<svg width="845" height="761" viewBox="0 0 845 761" fill="none" xmlns="http://www.w3.org/2000/svg">
<path d="M833.88 476.172V532.803L775.982 518.84V494.418L833.88 476.172Z" fill="#DDDDDD"/>
<rect width="454.63" height="901.538" rx="20" transform="matrix(0.866412 -0.49933 0.866412 0.49933 -330 309.836)" fill="#DDDDDD"/>
<rect width="454.63" height="901.538" rx="20" transform="matrix(0.866412 -0.49933 0.866412 0.49933 -330 253.354)" fill="#F8F7F7"/>
<path d="M274.589 319.615H395.485L395.485 73.3008H156.334L156.336 319.615H274.589Z" fill="#D83338"/>
<path d="M156.336 73.3008L395.484 73.3008L302.955 19.8565C287.015 10.6498 267.395 10.5564 251.369 19.6109L156.336 73.3008Z" fill="#EA3035"/>
<rect width="138.006" height="116.894" transform="matrix(0.866342 -0.49945 2.20628e-08 1 118.553 329.768)" fill="#D2D2D2"/>
<path d="M118.553 329.768L14.0455 260.9L14.0455 386.413L118.553 446.662L118.553 329.768Z" fill="#DEDDDE"/>
<path d="M14.0427 260.842L118.55 329.765L238.121 260.842L14.0427 260.842Z" fill="#F4F4F4"/>
<rect x="275.912" y="231.662" width="222.838" height="181.807" fill="#EFEFEF"/>
<path d="M498.776 222.312V232.443L497.351 235.457H484.887V222.312H498.776Z" fill="#EFEFEF"/>
<path d="M275.909 231.663L392.415 163.705L498.981 220.74C502.553 222.652 498.477 231.662 494.04 231.662L275.909 231.663Z" fill="#F8F7F7"/>
<path d="M300.452 518.194L395.485 464.504V383.99H156.334L156.336 464.504L248.866 517.949C264.805 527.155 284.425 527.249 300.452 518.194Z" fill="url(#paint0_linear_432_4640)"/>
<path d="M395.483 383.99H156.334L248.863 437.434C264.803 446.641 284.423 446.735 300.45 437.68L395.483 383.99Z" fill="#F4F4F4"/>
<path d="M220.22 711.286L204.697 697.971C208.216 695.858 215.384 691.655 215.906 691.742C216.428 691.828 220.833 694.599 222.97 695.974L220.22 711.286Z" fill="#346ABC"/>
<path d="M306.356 569.039L321.69 581.58C318.839 584.53 316.116 586.752 315.589 586.803C315.063 586.854 310.09 585.316 307.669 584.541L306.356 569.039Z" fill="#346ABC"/>
<path d="M208.245 611.953C207.782 606.442 211.483 601.446 216.889 600.282L313.485 579.49C319.971 578.094 326.209 582.714 326.764 589.326L334.503 681.503C334.966 687.014 331.265 692.011 325.859 693.174L229.263 713.966C222.777 715.362 216.539 710.742 215.984 704.131L208.245 611.953Z" fill="#2B5FAD"/>
<path d="M194.091 600.119C193.628 594.608 197.329 589.612 202.735 588.448L299.331 567.659C305.817 566.263 312.055 570.883 312.61 577.495L320.352 669.672C320.815 675.183 317.114 680.179 311.708 681.343L215.112 702.132C208.626 703.528 202.388 698.908 201.832 692.296L194.091 600.119Z" fill="#3C7EE2"/>
<path d="M231.264 651.959C232.496 653.631 234.145 654.236 235.751 654.089C237.821 653.899 239.663 653.193 242.793 647.627C245.3 643.166 248.16 636.964 250.111 633.062L253.415 626.45C255.711 621.859 258.387 616.743 261.681 613.14C264.371 610.199 267.411 608.423 270.62 608.129C276.006 607.634 281.459 610.398 285.99 616.103C290.95 622.352 293.869 630.527 294.729 639.162C295.241 644.295 294.64 648.157 293.275 651.289C291.956 654.318 289.114 657.484 283.85 657.967L283.032 649.751C287.539 649.337 288.236 644.943 287.747 640.033C287.05 633.035 284.702 625.413 280.68 620.183C277.826 616.472 274.396 614.36 270.885 614.682C267.089 615.031 264.329 618.277 261.423 623.882C259.877 626.86 258.344 630.456 256.625 634.514L254.733 638.978C250.931 647.952 249.946 650.007 247.94 653.433C244.423 659.433 241.153 661.885 236.569 662.305C231.131 662.804 227.45 660.68 224.954 657.199C222.917 654.363 221.672 650.511 221.226 646.032L229.195 645.597C229.485 648.506 230.324 650.682 231.264 651.959Z" fill="white"/>
<path d="M239.115 611.02C242.605 610.7 246.181 611.451 250.109 614.183C254.405 617.17 259.178 622.3 265.353 630.91L267.567 634C272.912 641.453 275.911 645.265 277.619 647.035C279.817 649.309 281.257 649.914 283.034 649.751C287.541 649.338 288.239 644.944 287.75 640.033L294.732 639.162C295.243 644.296 294.642 648.157 293.277 651.289C291.959 654.318 289.117 657.485 283.853 657.968C280.58 658.268 277.608 657.797 274.09 654.958C271.386 652.779 268.079 648.771 265.48 645.134L257.75 634.328C253.871 628.905 250.411 624.914 248.462 623.142C246.366 621.236 243.687 618.948 239.811 619.303C236.675 619.591 234.238 622.116 232.356 625.809L225.179 622.268C228.241 616.12 233.09 611.573 239.115 611.02Z" fill="white"/>
<path d="M232.353 625.809C229.692 631.027 228.493 638.547 229.195 645.597C229.485 648.506 230.324 650.682 231.264 651.959L224.954 657.199C222.917 654.363 221.672 650.511 221.226 646.032C220.414 637.887 221.726 629.2 225.177 622.268C228.238 616.12 233.087 611.572 239.113 611.019L239.809 619.303C236.672 619.591 234.235 622.116 232.353 625.809Z" fill="white"/>
<path d="M457.95 489.221C458.92 495.465 454.441 501.241 448.152 501.856L351.968 511.269C346.162 511.837 340.923 507.774 340.027 502.009L324.786 403.858C323.817 397.613 328.296 391.838 334.585 391.222L430.768 381.81C436.574 381.242 441.814 385.305 442.709 391.07L457.95 489.221Z" fill="#CF393D"/>
<path d="M343.589 387.299L330.893 392.529L338.891 400.656L348.145 395.854L343.589 387.299Z" fill="#CF393D"/>
<path d="M450.321 501.235L462.85 495.616L454.604 487.74L445.504 492.825L450.321 501.235Z" fill="#CF393D"/>
<path d="M471.275 483.424C472.244 489.668 467.765 495.444 461.476 496.06L365.293 505.472C359.487 506.04 354.247 501.977 353.352 496.212L338.111 398.061C337.141 391.817 341.62 386.041 347.909 385.426L444.093 376.013C449.899 375.445 455.139 379.508 456.034 385.273L471.275 483.424Z" fill="#EA3035"/>
<path d="M409.884 427.729C416.93 427.238 419.264 427.852 420.04 430.967C420.04 430.967 424.512 428.884 426.378 425.157C416.453 421.517 407.079 421.975 407.079 421.975L402.585 428.964L402.597 428.962L396.183 422.734C396.183 422.734 386.864 423.579 378.186 428.515C381.085 431.91 386.068 433.333 386.068 433.333C385.935 430.173 388.043 429.25 395.04 428.757L408.499 469.6L409.884 427.729Z" fill="white"/>
<path d="M427.017 423.686C427.888 421.495 428.056 420.542 428.056 420.542C417.874 417.422 408.665 416.754 400.893 417.262C393.131 417.836 384.3 419.762 375.22 424.224C375.22 424.224 375.817 425.342 377.141 427.162C385.396 422.728 393.828 420.913 401.356 420.446L401.357 420.446C408.868 419.865 417.651 420.48 427.017 423.686Z" fill="white"/>
<rect width="129.009" height="109.458" rx="15" transform="matrix(0.93539 -0.353619 0.774699 0.63233 527.174 446.17)" fill="#DADADA"/>
<path d="M535.312 449.305V423.441L552.289 425.363L561.302 439.082L535.312 449.305Z" fill="#DADADA"/>
<path d="M724.518 467.922V442.059L707.541 443.981L698.528 457.699L724.518 467.922Z" fill="#DADADA"/>
<rect width="129.009" height="109.458" rx="15" transform="matrix(0.93539 -0.353619 0.774699 0.63233 527.174 421.105)" fill="#F4F4F4"/>
<path d="M634.598 417.392V412.043L624.504 408.053L609.875 413.242L596.208 426.312C596.015 433.103 595.927 447.2 600.546 433.208C605.166 419.215 625.459 415.496 634.598 417.392Z" fill="#305EA3"/>
<path d="M603.36 447.566C588.598 439.845 589.651 426.039 597.384 419.256V432.241C600.522 435.222 606.926 441.278 607.438 441.661C607.949 442.044 620.122 445.757 626.144 447.566L649.967 444.694L662.599 435.275L659.598 419.256C667.095 426.47 675.208 441.904 656.669 450.14C640.313 457.406 620.393 456.475 603.36 447.566Z" fill="#305EA3"/>
<path d="M636.273 406.266L634.564 412.232V417.35L636.273 412.695V406.266Z" fill="#2C538C"/>
<path d="M656.67 424.17L635.23 431.423V437.334L656.67 430.204V424.17Z" fill="#305EA3"/>
<path d="M635.229 431.419L629.254 427.324V433.16L635.229 437.361V431.419Z" fill="#2C538C"/>
<path d="M656.66 430.152V424.193C657.449 423.495 659.083 422.098 659.309 422.098C659.535 422.098 662.29 424.666 663.639 425.951V436.524C661.49 437.275 657.502 438.328 658.744 436.524C659.987 434.719 657.873 431.106 656.66 430.152Z" fill="#2C538C"/>
<path d="M636.273 406.264L634.565 412.231C607.245 411.075 601.392 421.832 601.896 429.355C602.025 431.287 603.084 433.01 604.511 434.318C616.937 445.71 633.975 444.805 643.196 442.885C663.505 438.658 660.964 429.705 656.669 424.168L635.229 431.421L629.255 427.327L659.598 415.744C667.095 422.959 675.208 438.393 656.669 446.629C640.313 453.895 620.393 452.964 603.36 444.054C588.598 436.333 589.651 422.528 597.384 415.744C608.912 405.633 626.005 405.33 636.273 406.264Z" fill="#3C7EE2"/>
<rect width="161.658" height="85.3967" transform="matrix(0.866025 -0.5 2.20305e-08 1 452 80.832)" fill="#0088C4"/>
<rect width="16.7998" height="85.3967" transform="matrix(0.866025 -0.5 2.20305e-08 1 488.211 59.9238)" fill="#FBED04"/>
<rect width="16.7998" height="161.658" transform="matrix(-1.58247e-08 1 -0.866025 0.5 592.002 34.3008)" fill="#FBED04"/>
<path d="M452 66.0059L452 212.006" stroke="#D6D6D6" stroke-width="4" stroke-linecap="round"/>
<defs>
<linearGradient id="paint0_linear_432_4640" x1="156.334" y1="444.137" x2="395.485" y2="444.137" gradientUnits="userSpaceOnUse">
<stop stop-color="#DFDFDF"/>
<stop offset="1" stop-color="#D2D2D2"/>
</linearGradient>
</defs>
</svg>
