<svg width="55" height="54" viewBox="0 0 55 54" fill="none" xmlns="http://www.w3.org/2000/svg">
<rect x="0.996094" width="54" height="54" rx="27" fill="#EA3035"/>
<mask id="mask0_105_699" style="mask-type:luminance" maskUnits="userSpaceOnUse" x="0" y="0" width="55" height="54">
<rect x="0.996094" width="54" height="54" rx="27" fill="white"/>
</mask>
<g mask="url(#mask0_105_699)">
<path d="M32.2886 18.1398C36.3778 18.1398 37.6677 18.5882 37.8539 20.4185C37.8539 20.4185 40.5971 19.3957 41.9806 17.3184C36.5816 14.8166 31.1568 14.7037 31.1568 14.7037L27.9913 18.5592L27.9985 18.5587L24.833 14.7031C24.833 14.7031 19.4081 14.8161 14.0098 17.3179C15.3921 19.3952 18.1364 20.418 18.1364 20.418C18.3237 18.5876 19.612 18.1392 23.6738 18.1363L27.9985 42.2677L32.2886 18.1398Z" fill="white"/>
<path d="M42.4708 16.4939C43.1543 15.2637 43.33 14.72 43.33 14.72C37.7397 12.5083 32.5046 11.7514 27.9964 11.7324C23.4885 11.7514 18.2536 12.5084 12.6641 14.72C12.6641 14.72 12.9134 15.3897 13.5227 16.4939C18.6356 14.2651 23.6319 13.5565 27.9964 13.5899H27.997C32.3614 13.5565 37.3569 14.2651 42.4708 16.4939Z" fill="white"/>
</g>
</svg>
