<svg width="55" height="54" viewBox="0 0 55 54" fill="none" xmlns="http://www.w3.org/2000/svg">
<rect x="0.984375" width="54" height="54" rx="27" fill="#0177F3"/>
<mask id="mask0_105_761" style="mask-type:luminance" maskUnits="userSpaceOnUse" x="0" y="0" width="55" height="54">
<rect x="0.984375" width="54" height="54" rx="27" fill="white"/>
</mask>
<g mask="url(#mask0_105_761)">
<path d="M14.5689 34.2633C15.0859 35.1184 15.8571 35.4807 16.6433 35.4807C17.6573 35.4807 18.585 35.2234 20.3727 32.695C21.8049 30.6684 23.4925 27.8238 24.628 26.0405L26.5509 23.0192C27.8867 20.921 29.4328 18.5884 31.2055 17.0074C32.6528 15.7169 34.2139 15 35.785 15C38.4228 15 40.9354 16.5631 42.8583 19.4948C44.9628 22.7056 45.9844 26.7497 45.9844 30.9232C45.9844 33.4042 45.5061 35.2273 44.6924 36.6675C43.9062 38.0603 42.3739 39.4519 39.7962 39.4519V35.4807C42.0033 35.4807 42.5541 33.4068 42.5541 31.0333C42.5541 27.651 41.783 23.8974 40.0841 21.2154C38.8785 19.313 37.3161 18.1506 35.5973 18.1506C33.7382 18.1506 32.2421 19.5844 30.5608 22.141C29.6669 23.4993 28.7493 25.1546 27.719 27.0224L26.5847 29.0771C24.3063 33.2084 23.7291 34.1493 22.5899 35.7022C20.5931 38.4214 18.888 39.4519 16.6433 39.4519C13.9805 39.4519 12.2967 38.2729 11.2538 36.4959C10.4025 35.048 9.98438 33.1482 9.98438 30.9834L13.8728 31.1255C13.8728 32.5311 14.1745 33.6104 14.5689 34.2633Z" fill="white"/>
<path d="M20.3569 15C22.0658 15 23.7647 15.5172 25.5386 16.9984C27.4791 18.6179 29.5472 21.2845 32.1274 25.6795L33.0526 27.2567C35.286 31.0615 36.5567 33.0189 37.3003 33.9419C38.2568 35.1274 38.9266 35.4807 39.7966 35.4807C42.0038 35.4807 42.5546 33.4068 42.5546 31.0333L45.9849 30.9232C45.9849 33.4042 45.5066 35.2273 44.6929 36.6675C43.9067 38.0603 42.3743 39.4519 39.7966 39.4519C38.1942 39.4519 36.7745 39.096 35.2046 37.5816C33.9978 36.4191 32.5869 34.3542 31.5015 32.4979L28.2728 26.9827C26.6528 24.2149 25.1668 22.1512 24.3067 21.2167C23.3816 20.2117 22.1922 18.9981 20.2943 18.9981C18.7583 18.9981 17.4538 20.1003 16.3621 21.7864L13.0508 19.7752C14.8335 16.9651 17.4062 15 20.3569 15Z" fill="white"/>
<path d="M16.3616 21.7864C14.818 24.1688 13.8728 27.7176 13.8728 31.1255C13.8728 32.5311 14.1745 33.6104 14.5689 34.2633L11.2538 36.4959C10.4025 35.048 9.98438 33.1482 9.98438 30.9834C9.98438 27.0467 11.041 22.9437 13.0503 19.7752C14.833 16.9651 17.4057 15 20.3565 15L20.2939 18.9981C18.7578 18.9981 17.4533 20.1003 16.3616 21.7864Z" fill="white"/>
</g>
</svg>
