<svg width="359" height="329" viewBox="0 0 359 329" fill="none" xmlns="http://www.w3.org/2000/svg">
<path d="M354.958 225.095V245.819L333.719 240.709V231.772L354.958 225.095Z" fill="#DDDDDD"/>
<rect width="166.675" height="330.519" rx="8.6018" transform="matrix(0.866865 -0.498543 0.866865 0.498543 -72 164.222)" fill="#DDDDDD"/>
<rect width="166.675" height="330.519" rx="8.6018" transform="matrix(0.866865 -0.498543 0.866865 0.498543 -72 143.552)" fill="#FBFBFB"/>
<path d="M60.3158 115.134H104.665L104.665 24.9951H16.9355L16.9363 115.134H60.3158Z" fill="#D83338"/>
<path d="M16.9352 24.9951L104.664 24.9951L72.3277 6.36309C65.4824 2.41886 57.064 2.37882 50.1814 6.25776L16.9352 24.9951Z" fill="#EA3035"/>
<rect width="50.5954" height="42.7773" transform="matrix(0.866865 -0.498543 2.21163e-08 1 3.07617 118.852)" fill="#D2D2D2"/>
<path d="M3.07617 118.852L-35.2611 93.6492L-35.2611 139.581L3.07617 161.629L3.07617 118.852Z" fill="#DEDDDE"/>
<path d="M-35.261 93.6279L3.07622 118.85L46.9395 93.6279L-35.261 93.6279Z" fill="#F4F4F4"/>
<rect width="119.997" height="35.681" rx="17.8405" transform="matrix(-0.866865 0.498543 0.866865 0.498543 273.658 196.077)" fill="#2AB85D"/>
<path d="M178.683 255.97V248.89H182.326V255.97H178.683Z" fill="#2AB85D"/>
<path d="M291.857 213.328V206.248H295.5V213.328H291.857Z" fill="#2AB85D"/>
<rect width="119.997" height="35.681" rx="17.8405" transform="matrix(-0.866865 0.498543 0.866865 0.498543 273.658 189.281)" fill="#1ED15E"/>
<path d="M227.999 235.895L222.428 232.691L223.584 232.026L229.155 235.23L227.999 235.895Z" fill="white"/>
<path d="M232.901 233.076L231.198 232.096C231.102 232.041 231.015 231.991 230.937 231.946C230.859 231.901 230.789 231.861 230.726 231.824C230.559 231.729 230.387 231.654 230.208 231.601C230.027 231.546 229.839 231.526 229.645 231.542C229.451 231.558 229.25 231.626 229.041 231.746C228.86 231.851 228.744 231.965 228.693 232.089C228.646 232.213 228.661 232.337 228.739 232.463C228.817 232.589 228.953 232.708 229.147 232.819L228.588 232.872C228.24 232.672 228.011 232.453 227.9 232.215C227.789 231.978 227.788 231.743 227.896 231.509C228.007 231.275 228.22 231.067 228.535 230.886C228.865 230.696 229.202 230.579 229.547 230.534C229.892 230.486 230.235 230.501 230.575 230.578C230.915 230.651 231.242 230.779 231.557 230.96C231.685 231.034 231.829 231.116 231.987 231.208C232.146 231.299 232.308 231.392 232.475 231.488L234.069 232.404L232.901 233.076ZM230.076 234.701L226.064 232.394L227.235 231.72L231.247 234.027L230.076 234.701Z" fill="white"/>
<path d="M234.403 227.598L237.198 230.605L235.619 231.513L230.365 229.921L231.573 229.225L236.144 230.803L235.963 230.907L233.19 228.296L234.403 227.598Z" fill="white"/>
<path d="M237.613 228.463L236.839 228.017L239.498 226.488L239.581 226.666C239.561 226.655 239.542 226.644 239.525 226.634C239.505 226.622 239.486 226.611 239.468 226.601C239.325 226.519 239.153 226.459 238.954 226.423C238.753 226.385 238.539 226.384 238.312 226.419C238.086 226.45 237.861 226.53 237.64 226.658C237.418 226.785 237.275 226.923 237.209 227.07C237.144 227.215 237.156 227.363 237.247 227.514C237.34 227.663 237.511 227.809 237.761 227.952C238.018 228.1 238.278 228.204 238.543 228.263C238.807 228.319 239.069 228.33 239.328 228.293C239.59 228.256 239.842 228.167 240.084 228.028C240.24 227.939 240.361 227.853 240.446 227.772C240.529 227.689 240.584 227.615 240.609 227.548C240.637 227.48 240.642 227.419 240.624 227.366C240.606 227.312 240.575 227.268 240.529 227.233L241.685 226.569C241.839 226.674 241.947 226.803 242.01 226.955C242.071 227.106 242.077 227.27 242.029 227.448C241.979 227.625 241.863 227.809 241.682 228C241.503 228.19 241.25 228.379 240.922 228.567C240.479 228.822 240.004 228.994 239.498 229.082C238.99 229.169 238.488 229.175 237.995 229.099C237.499 229.023 237.046 228.866 236.635 228.63C236.22 228.391 235.948 228.129 235.819 227.844C235.691 227.556 235.705 227.267 235.861 226.977C236.017 226.684 236.313 226.413 236.748 226.162C237.194 225.906 237.669 225.736 238.172 225.652C238.674 225.566 239.172 225.565 239.668 225.647C240.162 225.729 240.62 225.891 241.043 226.134C241.106 226.17 241.165 226.206 241.221 226.24C241.276 226.275 241.315 226.302 241.338 226.321L237.613 228.463Z" fill="white"/>
<path d="M245.499 225.935C245.26 226.072 245.002 226.189 244.725 226.285C244.448 226.38 244.167 226.447 243.883 226.487C243.601 226.524 243.327 226.526 243.063 226.493C242.799 226.457 242.558 226.376 242.342 226.252C242.332 226.246 242.32 226.24 242.308 226.232C242.292 226.224 242.281 226.217 242.274 226.213L243.437 225.544C243.445 225.548 243.453 225.553 243.463 225.559C243.471 225.563 243.48 225.568 243.49 225.574C243.636 225.658 243.807 225.683 244.004 225.648C244.203 225.612 244.413 225.53 244.634 225.403C244.75 225.336 244.85 225.266 244.933 225.192C245.016 225.115 245.065 225.042 245.08 224.972C245.095 224.9 245.061 224.84 244.978 224.792C244.845 224.715 244.676 224.704 244.472 224.757C244.271 224.809 243.98 224.913 243.599 225.068C243.385 225.156 243.156 225.239 242.912 225.316C242.668 225.392 242.421 225.45 242.172 225.489C241.92 225.527 241.676 225.533 241.439 225.507C241.2 225.479 240.978 225.407 240.774 225.29C240.502 225.133 240.355 224.954 240.332 224.753C240.312 224.55 240.391 224.342 240.57 224.13C240.749 223.917 241.003 223.715 241.333 223.526C241.648 223.345 241.994 223.206 242.372 223.111C242.747 223.014 243.117 222.973 243.482 222.989C243.845 223.004 244.164 223.09 244.438 223.248C244.443 223.25 244.451 223.255 244.461 223.261C244.471 223.266 244.481 223.272 244.491 223.278L243.339 223.941C243.329 223.935 243.32 223.93 243.312 223.925C243.305 223.921 243.299 223.917 243.293 223.914C243.193 223.857 243.078 223.828 242.95 223.83C242.824 223.83 242.697 223.849 242.568 223.888C242.437 223.926 242.319 223.975 242.213 224.036C242.117 224.091 242.029 224.155 241.949 224.227C241.868 224.297 241.818 224.366 241.798 224.436C241.775 224.504 241.808 224.563 241.896 224.614C241.981 224.663 242.09 224.682 242.221 224.67C242.349 224.657 242.499 224.622 242.67 224.564C242.839 224.505 243.028 224.432 243.237 224.347C243.433 224.266 243.65 224.186 243.887 224.108C244.123 224.027 244.369 223.965 244.623 223.923C244.877 223.878 245.128 223.869 245.375 223.895C245.622 223.918 245.856 223.993 246.077 224.121C246.307 224.253 246.45 224.396 246.508 224.551C246.566 224.706 246.556 224.865 246.478 225.029C246.4 225.19 246.274 225.348 246.1 225.502C245.931 225.657 245.731 225.802 245.499 225.935Z" fill="white"/>
<path d="M250.029 223.321C249.875 223.41 249.703 223.493 249.511 223.571C249.325 223.649 249.122 223.706 248.903 223.743C248.684 223.776 248.455 223.773 248.216 223.734C247.976 223.695 247.731 223.603 247.479 223.458C247.424 223.426 247.367 223.394 247.309 223.36C247.251 223.327 247.193 223.294 247.135 223.26L245.447 222.289L244.521 222.822L243.615 222.3L243.876 222.15C244.027 222.063 244.14 221.991 244.215 221.933C244.294 221.874 244.329 221.817 244.321 221.764C244.314 221.707 244.261 221.643 244.163 221.572C244.064 221.501 243.918 221.41 243.724 221.299L243.218 221.008L244.393 220.332L245.715 221.092L246.882 220.421L247.789 220.942L246.622 221.614L248.065 222.444C248.11 222.47 248.154 222.495 248.197 222.52C248.24 222.544 248.281 222.568 248.321 222.591C248.495 222.691 248.656 222.761 248.805 222.8C248.956 222.837 249.115 222.809 249.281 222.713C249.364 222.665 249.434 222.616 249.492 222.565C249.553 222.513 249.594 222.472 249.617 222.441L250.497 222.948C250.467 222.991 250.413 223.045 250.335 223.11C250.259 223.177 250.157 223.247 250.029 223.321Z" fill="white"/>
<rect x="60.7988" y="82.9463" width="81.7455" height="66.5322" fill="#EFEFEF"/>
<path d="M142.556 79.5244V83.2316L142.033 84.3346H137.461V79.5244H142.556Z" fill="#EFEFEF"/>
<path d="M60.7996 82.9476L103.538 58.0783L141.322 78.2512C142.86 79.0728 141.108 82.9473 139.198 82.9473L60.7996 82.9476Z" fill="#F8F7F7"/>
<path d="M71.4228 186.894L104.669 168.157V138.692H16.9395L16.9402 168.157L49.2766 186.789C56.1219 190.733 64.5403 190.773 71.4228 186.894Z" fill="url(#paint0_linear_487_6737)"/>
<path d="M104.668 138.692H16.9395L49.2758 157.324C56.1211 161.269 64.5396 161.309 71.4221 157.43L104.668 138.692Z" fill="#F4F4F4"/>
<path d="M290.872 180.283L287.217 174.107L286.17 175.743L283.215 180.987L283.027 183.869L290.269 182.812L290.872 180.283Z" fill="#D5D5D5"/>
<path d="M287.217 174.099L262.402 192.936L278.822 200.747L282.051 191.19L303.268 185.309L305.851 177.499L284.265 183.104L287.217 174.099Z" fill="#F3F1F2"/>
<path d="M262.402 192.936L278.822 200.746L282.048 206.247L265.782 199.056L262.402 192.936Z" fill="#BFBFBF"/>
<path d="M278.82 200.746L282.046 206.247L285.354 197.256L282.055 191.178L278.82 200.746Z" fill="#D5D5D5"/>
<path d="M285.358 197.256L282.059 191.178L303.262 185.322L306.638 191.405L285.358 197.256Z" fill="#E4E4E3"/>
<path d="M306.636 191.407L303.26 185.324L305.85 177.504L309.132 183.71L306.636 191.407Z" fill="#D5D5D5"/>
<path d="M52.7472 260.585L47.0527 255.712C48.3436 254.939 50.9732 253.4 51.1646 253.432C51.3559 253.464 52.9719 254.478 53.7559 254.981L52.7472 260.585Z" fill="#346ABC"/>
<path d="M84.3455 208.529L89.9707 213.118C88.9247 214.198 87.9258 215.011 87.7327 215.03C87.5396 215.048 85.7152 214.486 84.8272 214.202L84.3455 208.529Z" fill="#346ABC"/>
<path d="M48.4069 224.852C48.2074 222.482 49.7995 220.333 52.1253 219.833L86.1886 212.519C88.9778 211.92 91.6601 213.907 91.8993 216.75L94.619 249.065C94.8185 251.436 93.2264 253.585 90.9005 254.085L56.8372 261.399C54.0481 261.998 51.3658 260.01 51.1265 257.167L48.4069 224.852Z" fill="#2B5FAD"/>
<path d="M43.2135 220.522C43.014 218.151 44.6061 216.002 46.932 215.503L80.9953 208.189C83.7844 207.59 86.4667 209.577 86.706 212.42L89.4256 244.735C89.6251 247.106 88.033 249.255 85.7071 249.754L51.6438 257.069C48.8547 257.668 46.1724 255.68 45.9331 252.837L43.2135 220.522Z" fill="#3C7EE2"/>
<path d="M56.8008 238.877C57.2528 239.489 57.8579 239.711 58.4469 239.657C59.2065 239.587 59.882 239.329 61.0301 237.292C61.9498 235.659 62.9989 233.39 63.7147 231.962L64.9268 229.542C65.7689 227.862 66.7508 225.99 67.9592 224.671C68.9458 223.595 70.0611 222.945 71.2381 222.837C73.2141 222.656 75.2145 223.668 76.8767 225.756C78.6959 228.042 79.767 231.034 80.0825 234.194C80.27 236.073 80.0496 237.486 79.5489 238.632C79.0652 239.74 78.0225 240.899 76.0915 241.076L75.7913 238.069C77.4447 237.918 77.7005 236.31 77.5211 234.513C77.2654 231.952 76.4039 229.163 74.9285 227.248C73.8816 225.891 72.6233 225.118 71.3356 225.236C69.9429 225.363 68.9306 226.551 67.8643 228.602C67.2974 229.692 66.7351 231.008 66.1045 232.493L65.4101 234.127C64.0156 237.411 63.6544 238.163 62.9183 239.417C61.628 241.612 60.4286 242.509 58.7471 242.663C56.7523 242.846 55.4018 242.069 54.4862 240.795C53.739 239.757 53.2821 238.347 53.1185 236.708L56.0422 236.549C56.1484 237.613 56.456 238.41 56.8008 238.877Z" fill="white"/>
<path d="M59.6803 223.896C60.9604 223.778 62.2722 224.053 63.7131 225.053C65.2891 226.146 67.0401 228.024 69.3052 231.174L70.1175 232.305C72.0782 235.033 73.1781 236.428 73.805 237.075C74.6111 237.907 75.1396 238.129 75.7914 238.069C77.4448 237.918 77.7007 236.31 77.5212 234.513L80.0826 234.194C80.2701 236.073 80.0497 237.486 79.549 238.632C79.0653 239.741 78.0226 240.899 76.0916 241.076C74.8912 241.186 73.8007 241.014 72.5102 239.975C71.5182 239.177 70.3052 237.711 69.3517 236.38L66.5161 232.425C65.0933 230.441 63.8241 228.98 63.1091 228.332C62.3401 227.634 61.3574 226.797 59.9356 226.927C58.7849 227.032 57.891 227.956 57.2007 229.308L54.568 228.012C55.6911 225.762 57.4698 224.098 59.6803 223.896Z" fill="white"/>
<path d="M57.2006 229.307C56.2243 231.217 55.7845 233.969 56.0422 236.549C56.1484 237.613 56.456 238.41 56.8008 238.877L54.4862 240.795C53.739 239.757 53.2821 238.347 53.1185 236.708C52.8209 233.727 53.3022 230.548 54.5679 228.012C55.691 225.762 57.4697 224.098 59.6802 223.895L59.9355 226.927C58.7848 227.032 57.8909 227.956 57.2006 229.307Z" fill="white"/>
<path d="M189.588 167.141C186.721 164.807 187.342 161.855 190.949 160.676L223.068 150.176C226.223 149.144 230.627 149.827 233.366 151.773L253.906 166.363C257.045 168.592 256.823 171.614 253.422 172.975L221.476 185.752C218.154 187.081 213.109 186.293 210.302 184.007L189.588 167.141Z" fill="#DADADA"/>
<path d="M187.699 164.389L187.297 156.751L193.525 157.454L196.831 162.475L187.699 164.389Z" fill="#DADADA"/>
<path d="M256.12 170.233L256.705 163.562L250.477 164.266L247.171 169.286L256.12 170.233Z" fill="#DADADA"/>
<rect width="47.3112" height="40.1144" rx="6.45135" transform="matrix(0.935672 -0.35287 0.775449 0.63141 184.312 155.895)" fill="#F4F4F4"/>
<path d="M349.296 274.524C349.714 277.21 347.787 279.696 345.081 279.96L311.185 283.269C308.689 283.513 306.436 281.766 306.051 279.288L300.677 244.766C300.259 242.079 302.186 239.594 304.892 239.33L338.788 236.021C341.284 235.777 343.537 237.524 343.922 240.002L349.296 274.524Z" fill="#CF393D"/>
<path d="M307.46 237.965L302.803 239.879L305.737 242.853L309.131 241.095L307.46 237.965Z" fill="#CF393D"/>
<path d="M346.616 279.66L351.212 277.604L348.187 274.721L344.849 276.582L346.616 279.66Z" fill="#CF393D"/>
<path d="M354.185 272.401C354.603 275.087 352.676 277.573 349.97 277.837L316.074 281.146C313.577 281.39 311.325 279.643 310.939 277.165L305.566 242.643C305.147 239.956 307.075 237.471 309.781 237.207L343.677 233.898C346.173 233.654 348.425 235.401 348.811 237.879L354.185 272.401Z" fill="#EA3035"/>
<path d="M331.783 252.76C334.367 252.58 335.224 252.805 335.508 253.944C335.508 253.944 337.149 253.182 337.834 251.819C334.193 250.487 330.754 250.654 330.754 250.654L329.105 253.212L329.11 253.211L326.757 250.932C326.757 250.932 323.338 251.241 320.155 253.047C321.218 254.29 323.046 254.811 323.046 254.811C322.997 253.654 323.771 253.316 326.338 253.136L331.275 268.082L331.783 252.76Z" fill="white"/>
<path d="M338.065 251.278C338.385 250.477 338.446 250.128 338.446 250.128C334.711 248.986 331.333 248.742 328.482 248.928C325.634 249.138 322.395 249.843 319.064 251.476C319.064 251.476 319.283 251.885 319.769 252.55C322.797 250.928 325.89 250.264 328.651 250.093L328.652 250.093C331.407 249.88 334.629 250.105 338.065 251.278Z" fill="white"/>
<path d="M223.719 154.538V152.58L220.016 151.12L214.649 153.019L209.636 157.802C209.565 160.287 209.533 165.446 211.227 160.326C212.922 155.205 220.366 153.844 223.719 154.538Z" fill="#305EA3"/>
<path d="M212.259 165.581C206.844 162.755 207.231 157.703 210.067 155.221V159.973C211.218 161.063 213.568 163.28 213.755 163.42C213.943 163.56 218.408 164.919 220.618 165.581L229.357 164.53L233.99 161.083L232.889 155.221C235.64 157.861 238.616 163.509 231.815 166.523C225.815 169.182 218.508 168.841 212.259 165.581Z" fill="#305EA3"/>
<path d="M224.336 150.465L223.709 152.648V154.521L224.336 152.818V150.465Z" fill="#2C538C"/>
<path d="M231.816 157.018L223.951 159.672V161.835L231.816 159.226V157.018Z" fill="#305EA3"/>
<path d="M223.95 159.673L221.758 158.175V160.311L223.95 161.848V159.673Z" fill="#2C538C"/>
<path d="M231.812 159.207V157.027C232.102 156.771 232.701 156.26 232.784 156.26C232.867 156.26 233.878 157.2 234.372 157.67V161.539C233.584 161.814 232.121 162.199 232.577 161.539C233.033 160.879 232.257 159.556 231.812 159.207Z" fill="#2C538C"/>
<path d="M224.333 150.464L223.707 152.648C213.912 152.235 211.639 155.985 211.713 158.725C211.736 159.559 212.198 160.303 212.821 160.857C217.367 164.893 223.525 164.561 226.873 163.866C234.323 162.319 233.391 159.043 231.815 157.017L223.95 159.671L221.759 158.172L232.889 153.934C235.64 156.574 238.616 162.222 231.815 165.236C225.815 167.895 218.508 167.554 212.259 164.294C206.844 161.468 207.231 156.416 210.067 153.934C214.296 150.233 220.566 150.123 224.333 150.464Z" fill="#3C7EE2"/>
<path d="M12.6641 200.144L-19.9034 181.402L-19.9034 188.223C-19.9034 189.174 -19.2358 190.328 -18.4121 190.801L7.73278 205.838C10.3489 207.342 12.4929 206.18 12.5771 203.212L12.6641 200.144Z" fill="#D5D5D5"/>
<path d="M12.6474 201.454V197.089H10.8192L8.52148 197.187C8.61338 197.913 8.80453 199.384 8.83394 199.458C8.86336 199.531 11.3885 200.819 12.6474 201.454Z" fill="#D5D5D5"/>
<path d="M-18.9811 178.884L12.6641 197.095L12.4315 197.485C11.7302 198.663 10.3202 198.847 8.78055 197.962L-18.5992 182.216C-19.4593 181.721 -19.9976 180.338 -19.5688 179.725L-18.9811 178.884Z" fill="#F8F7F7"/>
<path d="M143.941 182.564C149.476 182.564 153.964 180.125 153.964 177.118C153.964 174.11 149.476 171.672 143.941 171.672C138.405 171.672 133.918 174.11 133.918 177.118C133.918 180.125 138.405 182.564 143.941 182.564Z" stroke="#979797" stroke-width="1.80096"/>
<path fill-rule="evenodd" clip-rule="evenodd" d="M135.302 227.363C135.175 229.439 135.837 231.197 137.287 232.638C139.462 234.8 141.07 235.762 142.966 236.452C144.861 237.143 146.617 237.111 147.755 236.452C148.531 236.003 148.719 234.367 148.447 233.68C148.319 233.359 147.971 233.932 147.755 233.68C147.303 233.152 145.706 231.606 142.966 229.043L135.302 227.363ZM146.887 223.214C146.76 225.29 147.422 227.048 148.872 228.489C151.047 230.651 152.655 231.612 154.551 232.303C156.446 232.993 158.202 232.962 159.34 232.303C160.116 231.854 160.304 230.218 160.032 229.53C159.904 229.209 159.556 229.782 159.34 229.53C158.888 229.003 157.291 227.457 154.551 224.893L146.887 223.214Z" fill="#060606"/>
<path fill-rule="evenodd" clip-rule="evenodd" d="M135.301 227.555C135.181 228.662 135.852 229.938 137.314 231.386C139.506 233.557 141.128 234.522 143.039 235.216C144.949 235.909 146.719 235.878 147.867 235.216C149.014 234.554 148.551 233.226 147.867 232.431C147.411 231.902 145.802 230.349 143.039 227.774L135.301 227.555ZM146.756 223.406C146.635 224.512 147.306 225.789 148.768 227.236C150.961 229.407 152.583 230.373 154.493 231.067C156.404 231.76 158.174 231.729 159.322 231.067C160.469 230.405 160.005 229.077 159.322 228.282C158.866 227.752 157.256 226.2 154.493 223.625L146.756 223.406Z" fill="#282828"/>
<path fill-rule="evenodd" clip-rule="evenodd" d="M135.287 202.076H142.967V227.726C142.178 228.952 141.325 229.565 140.407 229.565C139.489 229.565 137.782 228.952 135.287 227.726V202.076Z" fill="black"/>
<path fill-rule="evenodd" clip-rule="evenodd" d="M135.404 217.866C134.508 217.13 134.732 216.762 136.076 216.762C137.193 216.762 138.037 215.859 140.518 216.367C140.856 216.436 141.708 216.936 143.076 217.866C143.411 217.597 143.608 217.597 143.666 217.866C143.841 218.682 143.666 220.656 143.666 221.043C143.666 221.623 143.469 221.966 143.076 222.072C142.288 222.314 141.435 222.436 140.518 222.436C139.955 222.436 139.337 221.713 138.178 221.621C137.694 221.583 136.769 221.733 135.404 222.072C134.871 221.457 134.541 221.023 134.416 220.769C134.027 219.982 134.121 219.407 134.121 218.961C134.121 218.3 134.549 217.935 135.404 217.866Z" fill="#DBDBDB"/>
<path fill-rule="evenodd" clip-rule="evenodd" d="M146.74 199.355H154.42V224.489C153.631 225.713 152.778 226.325 151.86 226.325C150.942 226.325 149.235 225.402 146.74 223.557V199.355Z" fill="black"/>
<path fill-rule="evenodd" clip-rule="evenodd" d="M146.74 190.408H154.42V215.541C153.631 216.766 152.778 217.378 151.86 217.378C150.942 217.378 149.235 216.766 146.74 215.541V190.408Z" fill="black"/>
<path fill-rule="evenodd" clip-rule="evenodd" d="M146.863 215.533C145.967 214.797 146.191 214.429 147.535 214.429C148.652 214.429 149.496 213.526 151.977 214.034C152.315 214.103 153.167 214.603 154.535 215.533C154.87 215.264 155.066 215.264 155.125 215.533C155.3 216.349 155.125 218.323 155.125 218.71C155.125 219.29 154.928 219.633 154.535 219.739C153.747 219.981 152.894 220.103 151.977 220.103C151.413 220.103 150.796 219.38 149.637 219.288C149.153 219.25 148.228 219.4 146.863 219.739C146.33 219.124 146 218.69 145.875 218.436C145.486 217.649 145.58 217.074 145.58 216.628C145.58 215.967 146.008 215.602 146.863 215.533Z" fill="#DBDBDB"/>
<path fill-rule="evenodd" clip-rule="evenodd" d="M139.724 208.173C149.221 208.173 151.297 203.577 151.297 194.094C151.297 184.611 143.31 176.924 134.101 176.924C131.662 176.924 132.907 178.168 130.961 178.973C128.437 180.017 122.912 180.878 121.451 183.088C119.784 185.609 121.439 188.834 121.439 192.548C121.439 202.031 130.228 208.173 139.724 208.173Z" fill="#3D7EE2"/>
<path fill-rule="evenodd" clip-rule="evenodd" d="M156.582 175.885C152.912 172.447 147.479 172.456 145.675 178.287C143.87 184.118 146.024 188.774 151.255 194.762C154.743 198.754 159.309 200.196 164.953 199.088C165.503 200.994 166.982 201.947 169.391 201.947C173.005 201.947 174.888 196.748 171.035 194.762C170.507 194.489 168.48 194.692 164.953 195.37C161.125 193.792 158.335 191.537 156.582 188.607C155.652 187.053 158.445 186.424 158.913 184.832C159.768 181.923 158.954 178.107 156.582 175.885Z" fill="#EBEBEB"/>
<path d="M143.616 212.839C155.118 212.839 164.443 203.55 164.443 192.093C164.443 180.635 155.118 171.347 143.616 171.347C132.114 171.347 122.789 180.635 122.789 192.093C122.789 203.55 132.114 212.839 143.616 212.839Z" fill="#D8D8D8"/>
<path fill-rule="evenodd" clip-rule="evenodd" d="M145.178 213.618C152.986 213.618 160.538 206.498 160.538 202.111C160.538 197.724 151.468 208.246 143.66 208.246C135.852 208.246 129.818 202.137 129.818 206.524C129.818 210.911 137.37 213.618 145.178 213.618Z" fill="black"/>
<path fill-rule="evenodd" clip-rule="evenodd" d="M134.061 173.551C125.851 178.737 121.621 181.95 121.37 183.189C120.993 185.047 129.453 181.759 131.451 183.189C133.448 184.618 133.35 189.471 131.451 193.275C129.551 197.08 122.914 191.959 123.775 198.561C124.35 202.963 127.217 206.805 132.377 210.089C139.553 211.162 144.144 211.162 146.15 210.089C149.158 208.479 148.441 207.727 149.038 201.173C149.437 196.804 149.155 192.306 148.193 187.677L138.706 183.189L134.061 173.551ZM155.511 187.122V202.593C155.51 203.668 156.385 204.538 157.463 204.539C157.699 204.539 157.933 204.496 158.154 204.413C160.777 203.425 162.578 201.966 163.558 200.037C164.449 198.281 165.471 192.165 164.68 187.799C164.451 186.53 163.622 185.397 162.195 184.399L154.55 183.146L155.511 187.122Z" fill="#3D7EE2"/>
<path d="M143.439 181.037C149.107 181.037 153.702 176.459 153.702 170.811C153.702 165.163 149.107 160.585 143.439 160.585C137.771 160.585 133.176 165.163 133.176 170.811C133.176 176.459 137.771 181.037 143.439 181.037Z" fill="white"/>
<path fill-rule="evenodd" clip-rule="evenodd" d="M136.342 170.573L132.778 173.581C132.646 173.692 132.609 173.879 132.687 174.032L132.821 174.293L136.573 181.604C136.628 181.71 136.66 181.825 136.67 181.943C137.004 186.021 137.707 188.846 138.781 190.42C139.786 191.894 141.834 192.981 144.924 193.682C145.376 193.784 145.833 193.533 145.986 193.097L147.054 190.06C147.22 189.587 147.74 189.338 148.215 189.504C148.4 189.568 148.559 189.69 148.668 189.852L151.143 193.493C151.425 193.908 151.991 194.016 152.408 193.735C152.611 193.599 152.75 193.386 152.794 193.146L153.816 187.545C153.894 187.113 154.272 186.799 154.712 186.799H157.595C157.891 186.799 158.168 186.943 158.339 187.183L160.497 190.224C160.788 190.633 161.356 190.731 161.767 190.441C161.957 190.308 162.088 190.108 162.134 189.882L163.095 185.193C163.126 185.04 163.117 184.881 163.069 184.732L161.773 180.744C161.733 180.622 161.668 180.509 161.581 180.413L158.303 176.82C158.151 176.653 158.067 176.435 158.067 176.21V172.35C158.067 172.095 157.959 171.853 157.771 171.681L154.46 168.659C154.159 168.385 153.712 168.343 153.365 168.556L148.131 171.776C147.948 171.889 147.731 171.933 147.519 171.902L137.064 170.367C136.804 170.329 136.541 170.404 136.342 170.573Z" fill="black"/>
<path fill-rule="evenodd" clip-rule="evenodd" d="M148.423 148.527L153.917 158.96C154.217 159.531 153.996 160.237 153.423 160.536C153.37 160.563 153.316 160.587 153.259 160.606L144.595 163.568L142.948 163.006L142.445 161.601L149.155 158.195C149.608 157.965 149.86 157.471 149.78 156.971L148.423 148.527Z" fill="#D8D8D8"/>
<path fill-rule="evenodd" clip-rule="evenodd" d="M133.334 168.236L153.51 166.472C152.038 161.424 148.555 158.9 143.062 158.9C137.568 158.9 134.325 162.012 133.334 168.236Z" fill="#FEC301"/>
<path fill-rule="evenodd" clip-rule="evenodd" d="M132.287 165.56L153.429 163.568L154.416 166.687L132.484 168.755L132.287 165.56Z" fill="#D8D8D8"/>
<path fill-rule="evenodd" clip-rule="evenodd" d="M132.954 148.527L127.46 158.96C127.16 159.531 127.381 160.237 127.954 160.536C128.007 160.563 128.061 160.587 128.118 160.606L136.782 163.568L138.429 163.006L138.932 161.601L132.222 158.195C131.769 157.965 131.517 157.471 131.597 156.971L132.954 148.527Z" fill="#D8D8D8"/>
<path fill-rule="evenodd" clip-rule="evenodd" d="M142.125 179.181C140.931 176.141 140.697 174.109 141.424 173.084C142.2 171.991 144.471 171.773 148.237 172.431L148.237 172.431C148.392 172.458 148.549 172.414 148.668 172.312C150.001 171.162 151.443 171.42 152.992 173.084C154.401 174.599 154.928 176.164 154.572 177.778C154.51 178.058 154.232 178.234 153.951 178.173C153.885 178.158 153.822 178.131 153.766 178.092L150.51 175.842C150.458 175.807 150.4 175.781 150.339 175.765L148.311 175.259C148.182 175.227 148.045 175.246 147.929 175.311L144.738 177.104C144.675 177.139 144.62 177.187 144.577 177.244L143.026 179.303C142.854 179.532 142.527 179.579 142.297 179.407C142.22 179.349 142.16 179.271 142.125 179.181Z" fill="#292828"/>
<path fill-rule="evenodd" clip-rule="evenodd" d="M162.018 171.667L164.437 173.003L132.346 230.672L129.926 229.336L162.018 171.667Z" fill="#979797"/>
<path fill-rule="evenodd" clip-rule="evenodd" d="M163.297 172.504L164.435 173.133L132.344 230.802L131.206 230.173L163.297 172.504Z" fill="#7C7B7B"/>
<path fill-rule="evenodd" clip-rule="evenodd" d="M132.378 183.148C128.709 179.71 123.278 179.719 121.474 185.55C119.67 191.381 120.362 196.645 125.592 202.633C129.078 206.625 134.129 207.864 140.746 206.35C141.295 208.257 142.774 209.21 145.182 209.21C146.383 209.21 146.154 208.774 146.826 207.934C147.413 207.199 148.88 205.493 148.85 204.558C148.812 203.348 148.275 202.772 146.826 202.024C146.297 201.752 144.271 201.955 140.746 202.633C138.923 201.356 137.136 199.252 135.383 196.322C134.454 194.768 134.24 193.687 134.708 192.095C135.562 189.185 134.749 185.37 132.378 183.148Z" fill="#EBEBEB"/>
<path fill-rule="evenodd" clip-rule="evenodd" d="M161.372 169.296L166.547 172.172C166.798 172.311 167.116 172.222 167.256 171.971C167.281 171.926 167.3 171.876 167.311 171.825L168.98 163.871C169.039 163.591 168.858 163.316 168.577 163.257C168.431 163.227 168.279 163.26 168.159 163.349L161.315 168.427C161.085 168.598 161.037 168.923 161.209 169.152C161.252 169.211 161.308 169.26 161.372 169.296Z" fill="#0E0E0E"/>
<path fill-rule="evenodd" clip-rule="evenodd" d="M162.109 171.607L162.923 170.186L165.452 171.607L164.445 173.034L162.109 171.667" fill="#D8D8D8"/>
<path fill-rule="evenodd" clip-rule="evenodd" d="M163.777 170.661C166.681 165.582 168.386 163.169 168.892 163.423C169.65 163.805 167.585 172.377 167.163 172.516C166.881 172.608 165.753 171.99 163.777 170.661Z" fill="#353535"/>
<path d="M169.78 214.398C174.884 214.398 179.021 207.925 179.021 199.941C179.021 191.956 174.884 185.483 169.78 185.483C164.675 185.483 160.538 191.956 160.538 199.941C160.538 207.925 164.675 214.398 169.78 214.398Z" fill="#EFEFEF"/>
<path fill-rule="evenodd" clip-rule="evenodd" d="M179.106 187.947C177.071 184.765 173.855 182.188 169.781 182.188C165.708 182.188 162.491 184.765 160.457 187.947C158.398 191.168 157.233 195.416 157.233 199.939C157.233 204.461 158.398 208.71 160.457 211.931C162.491 215.113 165.708 217.69 169.781 217.69C173.855 217.69 177.071 215.113 179.106 211.931C181.165 208.71 182.33 204.461 182.33 199.939C182.33 195.416 181.165 191.168 179.106 187.947ZM173.527 191.485C174.813 193.497 175.716 196.477 175.716 199.939C175.716 203.401 174.813 206.381 173.527 208.393C172.216 210.443 170.812 211.102 169.781 211.102C168.751 211.102 167.346 210.443 166.036 208.393C164.75 206.381 163.846 203.401 163.846 199.939C163.846 196.477 164.75 193.497 166.036 191.485C167.346 189.435 168.751 188.775 169.781 188.775C170.812 188.775 172.216 189.435 173.527 191.485Z" fill="#CECECE"/>
<path d="M170.428 203.764C172.01 203.764 173.292 202.052 173.292 199.939C173.292 197.827 172.01 196.114 170.428 196.114C168.847 196.114 167.564 197.827 167.564 199.939C167.564 202.052 168.847 203.764 170.428 203.764Z" fill="#E93036"/>
<path d="M170.064 214.258C174.902 214.258 178.824 207.801 178.824 199.835C178.824 191.87 174.902 185.412 170.064 185.412C165.227 185.412 161.305 191.87 161.305 199.835C161.305 207.801 165.227 214.258 170.064 214.258Z" fill="#F0EFED"/>
<path d="M170.423 204.801C172.251 204.801 173.734 202.578 173.734 199.835C173.734 197.093 172.251 194.87 170.423 194.87C168.594 194.87 167.111 197.093 167.111 199.835C167.111 202.578 168.594 204.801 170.423 204.801Z" fill="#CDCDCD"/>
<defs>
<linearGradient id="paint0_linear_487_6737" x1="16.9395" y1="160.703" x2="104.669" y2="160.703" gradientUnits="userSpaceOnUse">
<stop stop-color="#DFDFDF"/>
<stop offset="1" stop-color="#D2D2D2"/>
</linearGradient>
</defs>
</svg>
