<svg width="53" height="16" viewBox="0 0 53 16" fill="none" xmlns="http://www.w3.org/2000/svg">
<path d="M1 15L3.73509 6.79473C3.96794 6.09617 5 6.26365 5 7V7M5 11V7M5 7L6.70834 9.27779C7.28994 10.0533 8.48971 9.92264 8.89082 9.0402V9.0402C9.40077 7.91831 11.0472 8.09943 11.3011 9.30535L11.6023 10.7361C11.928 12.2829 13.9717 12.6454 14.8094 11.305L15.7362 9.82211C16.4499 8.6802 18.1664 8.86594 18.6193 10.1341V10.1341C19.1119 11.5132 21.0402 11.5729 21.6171 10.2268L22.7892 7.49185C22.9285 7.16693 23.1284 6.87158 23.3784 6.62162L26.7316 3.2684C26.9035 3.09655 27 2.86346 27 2.62042V2.62042C27 2.24571 27.2281 1.90875 27.576 1.76958L28.2665 1.4934C29.0148 1.19408 29.8695 1.36951 30.4394 1.93941L31.1136 2.61359C32.2252 3.72521 33.9465 3.9479 35.3044 3.15578L36.0354 2.72937C37.6727 1.77426 39.7743 2.32731 40.7294 3.96463V3.96463C41.7004 5.62931 43.8515 6.16834 45.4928 5.15829L49 3L52.5 1" stroke="black" stroke-width="2"/>
</svg>
