<svg width="140" height="140" viewBox="0 0 140 140" fill="none" xmlns="http://www.w3.org/2000/svg">
<g clip-path="url(#clip0_414_14691)">
<path d="M85.5206 116.307C58.1605 109.576 30.6438 81.7963 24.0617 54.2613C20.7489 40.4071 23.3683 29.2544 30.2749 22.4506L23.077 29.5411C16.1704 36.3449 13.551 47.4976 16.8638 61.3541C23.446 88.8891 50.9615 116.667 78.3228 123.4C91.9143 126.745 102.91 124.266 109.729 117.548L116.927 110.458C110.108 117.173 99.1122 119.652 85.5206 116.307Z" fill="#C03D40"/>
<path d="M123.14 78.6431C129.722 106.178 112.879 123.041 85.5202 116.311C58.16 109.579 30.6434 81.7994 24.0612 54.2645C17.479 26.7296 34.3228 9.8675 61.683 16.5993C89.0409 23.3311 116.558 51.1082 123.14 78.6431Z" fill="#EA3035"/>
<path d="M107.059 104.095C101.48 107.727 93.6966 108.435 84.6893 106.051C73.9935 103.217 62.8569 96.3615 53.3309 86.7442C43.8038 77.1302 37.0297 65.9033 34.255 55.1368C31.8824 45.9284 32.6774 38.0029 36.4609 32.3917C36.5271 32.3483 36.5922 32.306 36.6596 32.266C36.6722 32.2603 36.6848 32.2523 36.6962 32.2455C36.7065 32.2398 36.7167 32.2318 36.727 32.226C37.2514 31.8959 37.7871 31.5978 38.3331 31.3305C44.2733 28.3992 51.3718 28.8881 57.6478 30.3183C63.7673 31.7109 69.6047 34.2377 74.9394 37.5254C74.9497 37.5311 74.96 37.5391 74.9714 37.5459C87.4594 45.2498 98.2397 56.6972 104.858 69.8273C106.709 73.4987 108.2 77.3724 109.196 81.366C109.668 83.2497 110.029 85.162 110.267 87.0914C110.632 90.0649 110.723 93.0236 110.21 95.9857C109.949 97.4924 109.551 98.9775 108.99 100.402C108.813 100.851 108.569 101.58 108.26 102.281C107.927 103.053 107.521 103.792 107.059 104.095Z" fill="#EA3035"/>
<path d="M107.059 104.095C101.48 107.727 93.6966 108.435 84.6893 106.051C73.9935 103.217 62.8569 96.3615 53.3309 86.7442C43.8038 77.1302 37.0297 65.9033 34.255 55.1368C31.8824 45.9284 32.6774 38.0029 36.4609 32.3917C36.5271 32.3483 36.5922 32.306 36.6596 32.266C36.6722 32.2603 36.6848 32.2523 36.6962 32.2455C36.7065 32.2398 36.7167 32.2318 36.727 32.226C37.2514 31.8959 37.7871 31.5978 38.3331 31.3305C44.2733 28.3992 51.3718 28.8881 57.6478 30.3183C63.7673 31.7109 69.6047 34.2377 74.9394 37.5254C74.9497 37.5311 74.96 37.5391 74.9714 37.5459C87.4594 45.2498 98.2397 56.6972 104.858 69.8273C106.709 73.4987 108.2 77.3724 109.196 81.366C109.668 83.2497 110.029 85.162 110.267 87.0914C110.632 90.0649 110.723 93.0236 110.21 95.9857C109.949 97.4924 109.551 98.9775 108.99 100.402C108.813 100.851 108.569 101.58 108.26 102.281C107.927 103.053 107.521 103.792 107.059 104.095Z" fill="#D43D41" fill-opacity="0.6"/>
<path d="M107.562 103.602C107.834 103.243 108.062 102.777 108.259 102.279C108.566 101.579 108.81 100.85 108.989 100.4C109.549 98.9755 109.947 97.4904 110.209 95.9837C110.723 93.0228 110.63 90.063 110.266 87.0894C110.027 85.16 109.666 83.2478 109.194 81.364C108.198 77.3704 106.706 73.4956 104.857 69.8253C98.238 56.6952 87.4577 45.2479 74.9697 37.5439C74.9582 37.5371 74.9468 37.5279 74.9377 37.5234C69.603 34.2357 63.7645 31.7077 57.6461 30.3163C51.3701 28.8861 44.2716 28.3972 38.3314 31.3285C37.8871 31.5398 37.4473 31.7763 37.0086 32.0481C36.9115 32.1041 36.819 32.1647 36.7253 32.2241C36.715 32.2298 36.7047 32.2378 36.6945 32.2435C36.683 32.2503 36.6716 32.2595 36.6579 32.264C36.6134 32.2926 36.5665 32.3212 36.5185 32.3509C36.498 32.3646 36.4786 32.3748 36.458 32.3886C36.4888 32.3463 36.5174 32.3063 36.546 32.2618C37.0749 31.4952 37.6655 30.7721 38.3074 30.1027C38.3988 30.0068 38.4914 29.912 38.585 29.8183C39.2761 29.1272 40.0244 28.4886 40.816 27.9072C40.9223 27.8306 41.0262 27.7541 41.1347 27.6798C41.3712 27.5165 41.6145 27.3531 41.8658 27.1978C45.0735 25.1964 48.8581 24.2265 52.6312 24.0609C56.4078 23.8918 60.1855 24.4984 63.8399 25.4637C77.42 29.0506 89.5596 37.8912 98.7554 48.3367C102.794 52.9255 106.323 57.9701 109.154 63.3893C113.933 72.5475 118.093 84.1651 114.481 94.4255C113.028 98.5517 110.588 101.547 107.562 103.602Z" fill="#C03D40"/>
<path d="M92.1324 61.3312L90.3078 61.8823L81.1665 64.6436C78.0746 60.5965 73.6539 57.0943 69.4537 55.6983C69.0251 55.5514 68.6088 55.4411 68.2108 55.3493C66.7291 55.0064 65.4495 55.0003 64.4025 55.3003L64.2861 55.3309C62.9024 55.7473 61.9411 56.7086 61.5187 58.0984L52.9468 51.5471L45.3301 45.7305C45.8322 44.0773 46.6526 42.6813 47.767 41.567C48.318 41.016 48.9487 40.5323 49.6405 40.122C50.3385 39.7179 51.0977 39.3873 51.9304 39.1302C51.9488 39.124 51.9672 39.1179 51.9855 39.1118C51.9978 39.1118 52.0162 39.1057 52.0345 39.0995C52.0345 39.0995 52.0468 39.0995 52.0529 39.0934C55.2428 38.1689 59.3696 38.4016 64.231 40.018C65.627 40.4833 67.0352 41.0466 68.4496 41.7017C69.8395 42.3446 71.2354 43.0793 72.6192 43.8875C77.848 46.9367 82.9483 51.0695 87.375 55.7534C87.8097 56.2126 88.2383 56.6779 88.6608 57.1494C88.7955 57.2963 88.9302 57.4433 89.0649 57.6025C90.1302 58.8148 91.1589 60.0638 92.1324 61.3312Z" fill="#F7931E"/>
<path d="M87.8414 57.9695L81.1676 64.6433C78.0756 60.5962 73.655 57.094 69.4548 55.698C69.0262 55.5511 68.6099 55.4408 68.2119 55.349C66.7302 55.0061 65.4505 55 64.4035 55.3L64.2872 55.3306L68.1935 51.4243L67.6731 46.1404L72.608 43.8872L74.6163 42.9688L85.9005 48.8038L87.3638 55.7531L87.8414 57.9695Z" fill="#C03D40"/>
<path d="M52.0046 39.0551L45.3308 45.7289C45.8328 44.0757 46.6533 42.6797 47.7676 41.5654L54.4414 34.8916L52.0046 39.0551Z" fill="#C03D40"/>
<path d="M76.1283 49.0237C80.3285 50.4197 84.7491 53.9219 87.8411 57.969L98.807 54.6566C91.4413 45.0256 80.9041 36.6803 70.9056 33.3434C63.4481 30.8575 57.705 31.629 54.4477 34.8863C54.2579 35.0761 54.0742 35.272 53.9028 35.4802C53.064 36.4782 52.4272 37.6783 52.0108 39.0498L68.1994 51.4177C69.0198 48.687 71.9281 47.6277 76.1283 49.0237Z" fill="#EA3035"/>
<path d="M68.1923 51.4237L61.5246 58.0914L45.33 45.7296L52.0038 39.0558L68.1923 51.4237Z" fill="#C03D40"/>
<path d="M98.8013 54.6617L92.1337 61.3293L81.1678 64.6417L87.8355 57.9741L98.8013 54.6617Z" fill="#C03D40"/>
<path d="M80.9786 73.9894L74.311 80.6571L79.5492 96.3522L86.223 89.6784L80.9786 73.9894Z" fill="#E9E9E9"/>
<path d="M90.7243 80.0896L82.3055 74.8179C82.2014 74.2729 82.0545 73.6974 81.8524 73.0913C81.1606 71.0279 79.9544 68.9033 78.4421 66.9134L85.1158 60.2396L89.3038 63.6316L89.6222 63.8888L94.5143 67.8502L93.7979 70.1585L90.7243 80.0896Z" fill="#E9E9E9"/>
<path d="M102.657 88.1169L95.9832 94.7907C92.7259 98.048 86.9766 98.8256 79.513 96.3337L86.1868 89.6599L98.8731 88.4721L102.657 88.1169Z" fill="#D9D9D9"/>
<path d="M85.1092 60.2453C86.6338 62.2352 87.8338 64.3537 88.5196 66.4231C90.6074 72.6867 87.2215 76.0726 80.958 73.9847L86.1807 89.6651C93.6382 92.1509 99.3935 91.3794 102.651 88.1221C105.908 84.8648 106.686 79.1156 104.194 71.652C102.553 66.7293 99.6936 61.678 96.0689 56.939L85.1092 60.2453Z" fill="#FBFBFB"/>
<path d="M84.1872 91.2499L77.5134 97.9237C62.5862 92.952 46.4527 76.8186 41.4872 61.8975C40.9729 60.3546 40.5933 58.8851 40.3545 57.4952C39.8279 54.4584 39.9381 51.8011 40.6055 49.5908L47.2793 42.917L47.3099 42.9599L59.6778 59.1606L63.8964 64.6772L77.5685 82.574L84.1872 91.2499Z" fill="#D9D9D9"/>
<path d="M63.8412 60.4465C63.1493 58.3832 63.0636 56.6321 63.4677 55.2851L47.2792 42.9171C46.2995 46.1254 46.5138 50.295 48.1547 55.2177C53.1325 70.1388 69.2598 86.2662 84.1809 91.2439L78.9582 75.5636C72.7008 73.4819 65.929 66.7101 63.8412 60.4465Z" fill="#FBFBFB"/>
</g>
<defs>
<clipPath id="clip0_414_14691">
<rect width="140" height="140" fill="white"/>
</clipPath>
</defs>
</svg>
