<svg width="88" height="88" viewBox="0 0 88 88" fill="none" xmlns="http://www.w3.org/2000/svg">
<rect width="88" height="88" rx="44" fill="#0177F3"/>
<mask id="mask0_105_1006" style="mask-type:luminance" maskUnits="userSpaceOnUse" x="0" y="0" width="88" height="88">
<rect width="88" height="88" rx="44" fill="white"/>
</mask>
<g mask="url(#mask0_105_1006)">
<path d="M23.3861 56.512C24.2192 57.911 25.4616 58.5037 26.7283 58.5037C28.362 58.5037 29.8566 58.0827 32.7368 53.9466C35.0442 50.6314 37.7631 45.978 39.5925 43.0607L42.6906 38.1183C44.8427 34.6859 47.3336 30.8702 50.1897 28.2838C52.5213 26.1728 55.0364 25 57.5677 25C61.8175 25 65.8656 27.5571 68.9636 32.3529C72.3541 37.6052 74 44.2209 74 51.0482C74 55.1068 73.2295 58.089 71.9185 60.445C70.6518 62.7236 68.1831 65 64.0301 65V58.5037C67.586 58.5037 68.4735 55.111 68.4735 51.2283C68.4735 45.6953 67.231 39.555 64.494 35.1675C62.5517 32.0555 60.0345 30.1539 57.2652 30.1539C54.27 30.1539 51.8597 32.4995 49.1509 36.6817C47.7108 38.9037 46.2324 41.6115 44.5724 44.667L42.745 48.0283C39.0741 54.7864 38.1443 56.3257 36.3089 58.866C33.0918 63.3141 30.3447 65 26.7283 65C22.4382 65 19.7253 63.0712 18.0452 60.1644C16.6737 57.7958 16 54.688 16 51.1466L22.2647 51.3791C22.2647 53.6785 22.7508 55.444 23.3861 56.512Z" fill="white"/>
<path d="M32.7105 25C35.4637 25 38.2007 25.8461 41.0587 28.2691C44.185 30.9183 47.5171 35.2806 51.674 42.4702L53.1646 45.0503C56.7629 51.2743 58.8101 54.4764 60.0082 55.9864C61.5491 57.9257 62.6282 58.5037 64.03 58.5037C67.5859 58.5037 68.4734 55.111 68.4734 51.2283L73.9999 51.0482C73.9999 55.1068 73.2294 58.089 71.9184 60.445C70.6517 62.7236 68.183 65 64.03 65C61.4483 65 59.161 64.4178 56.6318 61.9403C54.6874 60.0387 52.4143 56.6607 50.6656 53.6241L45.4638 44.6021C42.8538 40.0743 40.4597 36.6984 39.074 35.1696C37.5835 33.5257 35.6674 31.5403 32.6096 31.5403C30.1348 31.5403 28.0331 33.3435 26.2743 36.1016L20.9395 32.8115C23.8116 28.2147 27.9565 25 32.7105 25Z" fill="white"/>
<path d="M26.2744 36.1016C23.7875 39.999 22.2647 45.8042 22.2647 51.3791C22.2647 53.6785 22.7508 55.444 23.3861 56.512L18.0452 60.1644C16.6737 57.7958 16 54.688 16 51.1466C16 44.7068 17.7023 37.9948 20.9396 32.8115C23.8117 28.2147 27.9566 25 32.7106 25L32.6098 31.5403C30.1349 31.5403 28.0332 33.3435 26.2744 36.1016Z" fill="white"/>
</g>
</svg>
