<svg width="96" height="42" viewBox="0 0 96 42" fill="none" xmlns="http://www.w3.org/2000/svg">
<path fill-rule="evenodd" clip-rule="evenodd" d="M0.234375 2.01952V24.346H3.41406V5.34352L11.7325 24.346H17.0219V2.01952H13.8272L14.219 22.7869L5.44846 2.01952H0.234375ZM21.6146 20.6224C22.3279 21.8736 23.3125 22.8575 24.5683 23.574C25.8341 24.2905 27.2908 24.6487 28.9384 24.6487C30.5861 24.6487 32.0378 24.2905 33.2936 23.574C34.5594 22.8575 35.544 21.8736 36.2472 20.6224C36.9605 19.361 37.3171 17.918 37.3171 16.2933C37.3171 14.6787 36.9605 13.2509 36.2472 12.0097C35.544 10.7584 34.5594 9.78458 33.2936 9.0883C32.0378 8.38192 30.5861 8.02874 28.9384 8.02874C27.2908 8.02874 25.8341 8.38192 24.5683 9.0883C23.3125 9.78458 22.3279 10.7584 21.6146 12.0097C20.9114 13.2509 20.5597 14.6787 20.5597 16.2933C20.5597 17.918 20.9114 19.361 21.6146 20.6224ZM33.384 19.2298C32.952 20.0573 32.3542 20.698 31.5907 21.1521C30.8272 21.6062 29.9431 21.8333 28.9384 21.8333C27.9438 21.8333 27.0598 21.6062 26.2862 21.1521C25.5227 20.698 24.9249 20.0573 24.4929 19.2298C24.0609 18.3922 23.8449 17.4134 23.8449 16.2933C23.8449 15.1833 24.0609 14.2196 24.4929 13.4022C24.9249 12.5848 25.5227 11.9542 26.2862 11.5101C27.0598 11.0661 27.9438 10.8441 28.9384 10.8441C29.9431 10.8441 30.8272 11.0661 31.5907 11.5101C32.3542 11.9542 32.952 12.5848 33.384 13.4022C33.816 14.2196 34.032 15.1833 34.032 16.2933C34.032 17.4134 33.816 18.3922 33.384 19.2298ZM44.2273 8.27092H40.9572V24.346H44.2273V15.9603C44.2273 15.3851 44.2926 14.815 44.4232 14.2499C44.4354 14.2 44.4482 14.1505 44.4618 14.1014L44.4715 14.0993L44.84 14.021L44.8663 13.6452L44.9117 12.9969C44.9753 12.8825 45.0435 12.7703 45.1164 12.6605C45.4379 12.1762 45.8698 11.7877 46.4124 11.495C46.9549 11.2024 47.638 11.0561 48.4618 11.0561C49.0043 11.0561 49.4263 11.1116 49.7277 11.2226C50.0391 11.3336 50.2451 11.4244 50.3455 11.495L51.0387 8.40715C50.9483 8.3466 50.7022 8.26588 50.3003 8.16497C49.9085 8.06406 49.3911 8.0136 48.7481 8.0136C47.9042 8.0136 47.1608 8.14983 46.5178 8.42229C45.8749 8.69475 45.3324 9.06811 44.8903 9.54239C44.8054 9.63369 44.7237 9.72752 44.6453 9.82389L44.5059 9.84955L44.2273 9.9008V8.27092ZM43.7589 11.3518C43.788 11.278 43.8185 11.2046 43.8505 11.1317C43.8739 11.0785 43.8979 11.0258 43.9226 10.9736L44.0525 10.9497L43.895 13.1995L43.8149 13.2166L43.7878 13.2043L43.513 12.7445L43.7589 11.3518ZM53.7244 20.8645C54.3875 22.1158 55.2716 23.0644 56.3767 23.7102C57.4818 24.346 58.6924 24.6638 60.0084 24.6638C61.3245 24.6638 62.51 24.3409 63.5649 23.6951C64.1617 23.3275 64.6892 22.8869 65.1472 22.3735V24.346H68.4323V0.6875H65.1472V10.2308C64.6621 9.713 64.1045 9.27666 63.4744 8.92179C62.4095 8.31633 61.2542 8.0136 60.0084 8.0136C58.7125 8.0136 57.5119 8.33651 56.4068 8.98234C55.3017 9.61808 54.4126 10.5515 53.7395 11.7826C53.0664 13.0137 52.7298 14.5122 52.7298 16.2782C52.7298 18.0845 53.0613 19.6133 53.7244 20.8645ZM65.1472 15.4305L67.0459 15.37V15.2792V15.1581C67.0459 13.7554 66.7194 12.5193 66.0664 11.4496C65.7961 11.0027 65.4897 10.5964 65.1472 10.2308V15.2337C65.1472 14.3962 64.9362 13.6545 64.5143 13.0087C64.0923 12.3527 63.5347 11.8381 62.8415 11.4647C62.1584 11.0813 61.43 10.8895 60.6564 10.8895C59.3604 10.8895 58.2754 11.3285 57.4014 12.2064C56.5274 13.0743 56.0903 14.4315 56.0903 16.2782C56.0903 18.1147 56.5274 19.477 57.4014 20.365C58.2855 21.243 59.3705 21.6819 60.6564 21.6819C61.4601 21.6819 62.2036 21.4902 62.8867 21.1067C63.5699 20.7132 64.1174 20.1784 64.5293 19.5023C64.9412 18.8262 65.1472 18.0542 65.1472 17.1864V22.3735C65.5063 21.9708 65.8228 21.5234 66.0966 21.031C66.7295 19.9109 67.0459 18.6546 67.0459 17.262L65.1472 17.1864V15.4305ZM75.897 8.27092H72.6721V24.346H75.897V8.27092ZM72.2351 3.20017C72.2351 3.74509 72.436 4.17396 72.8378 4.48678C73.2497 4.78951 73.737 4.94088 74.2996 4.94088C74.8521 4.94088 75.3294 4.78951 75.7312 4.48678C76.1431 4.17396 76.3491 3.74509 76.3491 3.20017C76.3491 2.66535 76.1431 2.24657 75.7312 1.94384C75.3294 1.63101 74.8521 1.4746 74.2996 1.4746C73.737 1.4746 73.2497 1.63101 72.8378 1.94384C72.436 2.24657 72.2351 2.66535 72.2351 3.20017ZM80.687 20.7283C81.4204 21.9897 82.42 22.9635 83.6858 23.6497C84.9617 24.3258 86.4034 24.6638 88.0108 24.6638C89.2566 24.6638 90.3516 24.4822 91.296 24.1189C92.2504 23.7556 93.0491 23.2713 93.6921 22.6658C94.335 22.0603 94.8223 21.3893 95.1538 20.6526C95.4853 19.9059 95.6511 19.1692 95.6511 18.4427H92.4111C92.3609 19.0482 92.175 19.6133 91.8536 20.138C91.5321 20.6526 91.0549 21.0664 90.422 21.3792C89.789 21.6819 88.9753 21.8333 87.9807 21.8333C87.0564 21.8333 86.2075 21.6214 85.4339 21.1975C84.6704 20.7737 84.0576 20.1531 83.5954 19.3358C83.1433 18.5083 82.9173 17.4891 82.9173 16.2782C82.9173 15.0672 83.1484 14.0581 83.6105 13.2509C84.0726 12.4436 84.6855 11.8432 85.449 11.4496C86.2226 11.046 87.0665 10.8441 87.9807 10.8441C88.8145 10.8441 89.5429 10.9804 90.1658 11.2528C90.7887 11.5253 91.291 11.8936 91.6727 12.3578C92.0545 12.822 92.2856 13.3518 92.3659 13.9471C92.376 14.0077 92.386 14.0733 92.3961 14.1439C92.4061 14.2045 92.4111 14.26 92.4111 14.3104H95.6511V14.2499V14.2045C95.6511 13.4779 95.4803 12.7513 95.1387 12.0248C94.7972 11.2982 94.2999 10.6322 93.6469 10.0268C92.9938 9.4213 92.1951 8.93693 91.2508 8.57365C90.3064 8.20028 89.2264 8.0136 88.0108 8.0136C86.4034 8.0136 84.9617 8.3466 83.6858 9.01261C82.42 9.67862 81.4204 10.6322 80.687 11.8734C79.9636 13.1045 79.602 14.5728 79.602 16.2782C79.602 17.9836 79.9636 19.4669 80.687 20.7283Z" fill="black"/>
<path fill-rule="evenodd" clip-rule="evenodd" d="M65.1445 3.6875H67.2344V22.6875H65.1445V3.6875Z" fill="black"/>
<path fill-rule="evenodd" clip-rule="evenodd" d="M0.251953 29.0293H2.39937L6.47088 37.0705L10.5252 29.0293H12.6726V41.1083H10.8516V32.1871L7.17523 39.3827H5.76652L2.07296 32.2044V41.1083H0.251953V29.0293ZM22.2112 29.0293H24.204L28.6019 41.1083H26.6778L25.6471 38.1576H20.7338L19.703 41.1083H17.7789L22.2112 29.0293ZM25.1317 36.7081L23.1904 31.2036L21.2491 36.7081H25.1317ZM33.7148 29.0293H37.855C38.8056 29.0293 39.5844 29.1904 40.1914 29.5125C40.8098 29.8346 41.268 30.2717 41.5657 30.8239C41.8635 31.3646 42.0124 31.9686 42.0124 32.6358C42.0124 33.3835 41.812 34.0622 41.4111 34.6719C41.0217 35.2816 40.409 35.7188 39.5729 35.9834L42.1327 41.1083H40.0196L37.6832 36.2422H35.5358V41.1083H33.7148V29.0293ZM37.7519 34.8618C38.5765 34.8618 39.1778 34.6604 39.5557 34.2578C39.9451 33.8552 40.1398 33.3318 40.1398 32.6875C40.1398 32.0433 39.9509 31.5314 39.5729 31.1518C39.195 30.7607 38.5823 30.5651 37.7347 30.5651H35.5358V34.8618H37.7519ZM47.6025 29.0293H49.4235V34.206L54.165 29.0293H56.4155L51.9661 33.8437L56.5186 41.1083H54.3025L50.6604 35.2414L49.4235 36.5873V41.1083H47.6025V29.0293ZM61.5406 29.0293H69.1854V30.5133H63.3616V34.2751H68.6701V35.7245H63.3616V39.6243H69.1854V41.1083H61.5406V29.0293ZM77.6083 30.5133H74.0521V29.0293H82.9682V30.5133H79.4293V41.1083H77.6083V30.5133ZM89.5393 40.8495C88.8751 40.5389 88.354 40.096 87.976 39.5208C87.6095 38.9456 87.4205 38.2611 87.4091 37.4674H89.3332C89.3446 38.1116 89.568 38.658 90.0032 39.1067C90.4384 39.5553 91.0511 39.7796 91.8414 39.7796C92.54 39.7796 93.084 39.6128 93.4734 39.2792C93.8742 38.9341 94.0747 38.497 94.0747 37.9678C94.0747 37.5421 93.9773 37.197 93.7826 36.9324C93.5994 36.6679 93.3417 36.4493 93.0096 36.2767C92.6889 36.1042 92.3167 35.9489 91.8929 35.8108C91.4691 35.6728 91.0225 35.5232 90.5529 35.3622C89.6252 35.0516 88.9266 34.6489 88.457 34.1543C87.9989 33.6596 87.7699 33.0096 87.7699 32.2044C87.7584 31.5257 87.913 30.9332 88.2337 30.427C88.5658 29.9209 89.0239 29.5297 89.608 29.2537C90.2036 28.9661 90.8965 28.8223 91.6867 28.8223C92.4655 28.8223 93.147 28.9661 93.7311 29.2537C94.3266 29.5413 94.7905 29.9439 95.1226 30.4616C95.4548 30.9677 95.6265 31.5602 95.638 32.2389H93.7139C93.7139 31.9283 93.6337 31.6349 93.4734 31.3589C93.3131 31.0713 93.0783 30.8354 92.769 30.6514C92.4598 30.4673 92.0819 30.3753 91.6352 30.3753C91.0626 30.3638 90.5873 30.5076 90.2093 30.8067C89.8428 31.1058 89.6596 31.5199 89.6596 32.0491C89.6596 32.5207 89.797 32.8831 90.0719 33.1362C90.3468 33.3893 90.7247 33.6021 91.2057 33.7746C91.6868 33.9357 92.2365 34.1255 92.8549 34.3441C93.4505 34.5396 93.983 34.7755 94.4526 35.0516C94.9222 35.3277 95.2944 35.69 95.5693 36.1387C95.8556 36.5873 95.9988 37.1568 95.9988 37.847C95.9988 38.4567 95.8441 39.0261 95.5349 39.5553C95.2257 40.073 94.7618 40.4986 94.1434 40.8322C93.5249 41.1543 92.7633 41.3154 91.8585 41.3154C90.9767 41.3154 90.2036 41.1601 89.5393 40.8495Z" fill="black"/>
</svg>
