<svg width="156" height="145" viewBox="0 0 156 145" fill="none" xmlns="http://www.w3.org/2000/svg">
<path d="M155.094 116.503L152.506 124.513L145.811 120.611L144.908 115.148L155.094 116.503Z" fill="#627BDD"/>
<path d="M144.37 108.822L152.499 123.496C152.837 124.106 152.462 124.866 151.772 124.97L135.33 127.427L144.37 108.822Z" fill="#627BDD"/>
<path d="M42.8306 94.9011C42.8306 123.332 70.5456 145 98.3927 145C126.24 145 148.814 121.953 148.814 93.5225C148.814 65.0921 123.613 38.3906 95.7656 38.3906C67.9184 38.3906 42.8306 66.4707 42.8306 94.9011Z" fill="#627BDD"/>
<path d="M146.973 100.975L155.102 115.648C155.441 116.259 155.066 117.019 154.375 117.122L137.934 119.579L146.973 100.975Z" fill="#243EB2"/>
<circle cx="51.4778" cy="51.4778" r="51.4778" transform="matrix(-1 0 0 1 151.418 34.1953)" fill="#243EB2"/>
<path fill-rule="evenodd" clip-rule="evenodd" d="M55.8355 106.61C84.2659 106.61 112.562 84.9409 112.562 56.5105C112.562 28.0801 86.9481 0 58.5177 0C30.0873 0 4.35763 26.7015 4.35763 55.1319C4.35763 61.3477 5.45928 67.3061 7.47797 72.8226L0.673009 85.1064C0.334916 85.7167 0.709925 86.4769 1.39995 86.58L16.9881 88.9095C26.4257 99.7545 40.33 106.61 55.8355 106.61Z" fill="#A1B7F9"/>
<path fill-rule="evenodd" clip-rule="evenodd" d="M61.7691 103.122C90.1995 103.122 113.247 80.0743 113.247 51.6439C113.247 23.2134 90.1995 0.166016 61.7691 0.166016C33.3386 0.166016 10.2912 23.2134 10.2912 51.6439C10.2912 57.8597 11.3929 63.8182 13.4117 69.3349L6.6066 81.6188C6.26851 82.2291 6.64352 82.9893 7.33355 83.0924L22.9221 85.422C32.3598 96.2667 46.2639 103.122 61.7691 103.122Z" fill="#7C98F3"/>
<ellipse cx="39.0547" cy="49.2182" rx="6.51568" ry="6.75723" fill="#DCDEF2"/>
<ellipse cx="60.0762" cy="51.6459" rx="6.51568" ry="6.75723" fill="#DCDEF2"/>
<ellipse cx="81.0977" cy="54.0697" rx="6.51568" ry="6.75723" fill="#DCDEF2"/>
</svg>
