<svg width="71" height="23" viewBox="0 0 71 23" fill="none" xmlns="http://www.w3.org/2000/svg">
<path d="M70.9844 23L64.6242 17.9248C63.8348 17.2949 63.1282 16.5678 62.5213 15.7606L61.6325 14.5785C61.4629 14.353 61.33 14.1021 61.2388 13.8351L60.3836 11.3329C59.9696 10.1217 58.32 9.96578 57.6864 11.078V11.078C57.0278 12.2343 55.298 12.0083 54.9586 10.7216L53.6098 5.60916C53.315 4.49213 52.5084 3.58085 51.4354 3.15274L50.8982 2.93841C49.6994 2.46011 48.3584 2.48536 47.1785 3.00844L45.3334 3.82639C43.9252 4.45066 42.2733 3.89835 41.5238 2.55265V2.55265C40.7342 1.13497 38.9551 0.610144 37.5224 1.37227L35.9011 2.23475C34.6765 2.88626 33.8861 4.13534 33.8218 5.52105L33.5567 11.2323C33.4594 13.3283 30.7181 14.0478 29.604 12.2698L29.1095 11.4807C28.3183 10.2179 26.4059 10.4857 25.9919 11.9172V11.9172C25.5918 13.3008 23.7721 13.6131 22.9335 12.4421L19.3363 7.41878C18.1468 5.75777 15.6307 5.90884 14.6486 7.70025L14.3819 8.18668C13.3894 9.99689 10.7542 9.89052 9.91086 8.00621V8.00621C9.22549 6.4749 7.25558 6.04091 5.99017 7.14245L0.984375 11.5" stroke="#1ED15E" stroke-width="2"/>
</svg>
