<svg width="71" height="23" viewBox="0 0 71 23" fill="none" xmlns="http://www.w3.org/2000/svg">
<path d="M70.9805 23L64.6203 17.9248C63.8309 17.2949 63.1243 16.5678 62.5174 15.7606L61.6286 14.5785C61.459 14.353 61.3261 14.1021 61.2349 13.8351L60.3797 11.3329C59.9657 10.1217 58.3161 9.96578 57.6825 11.078V11.078C57.0239 12.2343 55.2941 12.0083 54.9547 10.7216L53.6058 5.60916C53.3111 4.49213 52.5045 3.58085 51.4315 3.15274L50.8943 2.93841C49.6955 2.46011 48.3545 2.48536 47.1746 3.00844L45.3295 3.82639C43.9213 4.45066 42.2694 3.89835 41.5199 2.55265V2.55265C40.7303 1.13497 38.9512 0.610144 37.5185 1.37227L35.8972 2.23475C34.6725 2.88626 33.8822 4.13534 33.8179 5.52105L33.5528 11.2323C33.4555 13.3283 30.7142 14.0478 29.6001 12.2698L29.1056 11.4807C28.3144 10.2179 26.402 10.4857 25.988 11.9172V11.9172C25.5879 13.3008 23.7682 13.6131 22.9296 12.4421L19.3324 7.41878C18.1429 5.75777 15.6268 5.90884 14.6447 7.70025L14.378 8.18668C13.3855 9.99689 10.7503 9.89052 9.90695 8.00621V8.00621C9.22158 6.4749 7.25167 6.04091 5.98626 7.14245L0.980469 11.5" stroke="#1ED15E" stroke-width="2"/>
</svg>
