<svg width="237" height="72" viewBox="0 0 237 72" fill="none" xmlns="http://www.w3.org/2000/svg">
<path d="M103.408 37.3942C103.408 47.275 95.6624 54.556 86.157 54.556C76.6517 54.556 68.9062 47.275 68.9062 37.3942C68.9062 27.4438 76.6517 20.2324 86.157 20.2324C95.6624 20.2324 103.408 27.4438 103.408 37.3942ZM95.8562 37.3942C95.8562 31.2197 91.3672 26.995 86.157 26.995C80.9469 26.995 76.4578 31.2197 76.4578 37.3942C76.4578 43.5069 80.9469 47.7935 86.157 47.7935C91.3672 47.7935 95.8562 43.4991 95.8562 37.3942Z" fill="#EA4335"/>
<path d="M140.623 37.3942C140.623 47.275 132.877 54.556 123.372 54.556C113.867 54.556 106.121 47.275 106.121 37.3942C106.121 27.4515 113.867 20.2324 123.372 20.2324C132.877 20.2324 140.623 27.4438 140.623 37.3942ZM133.071 37.3942C133.071 31.2197 128.582 26.995 123.372 26.995C118.162 26.995 113.673 31.2197 113.673 37.3942C113.673 43.5069 118.162 47.7935 123.372 47.7935C128.582 47.7935 133.071 43.4991 133.071 37.3942Z" fill="#FBBC05"/>
<path d="M176.287 21.2692V52.08C176.287 64.7541 168.797 69.9305 159.943 69.9305C151.608 69.9305 146.592 64.3672 144.7 59.8176L151.275 57.0862C152.446 59.8795 155.314 63.1756 159.935 63.1756C165.603 63.1756 169.115 59.686 169.115 53.1169V50.6486H168.851C167.161 52.73 163.905 54.5483 159.796 54.5483C151.198 54.5483 143.32 47.0739 143.32 37.4561C143.32 27.7688 151.198 20.2324 159.796 20.2324C163.897 20.2324 167.154 22.0507 168.851 24.0702H169.115V21.277H176.287V21.2692ZM169.65 37.4561C169.65 31.4131 165.611 26.995 160.47 26.995C155.26 26.995 150.895 31.4131 150.895 37.4561C150.895 43.4372 155.26 47.7935 160.47 47.7935C165.611 47.7935 169.65 43.4372 169.65 37.4561Z" fill="#4285F4"/>
<path d="M188.11 3.20898V53.5028H180.744V3.20898H188.11Z" fill="#34A853"/>
<path d="M216.812 43.0425L222.674 46.9423C220.782 49.7355 216.223 54.5482 208.346 54.5482C198.577 54.5482 191.281 47.0119 191.281 37.3864C191.281 27.1806 198.639 20.2246 207.501 20.2246C216.425 20.2246 220.79 27.3122 222.216 31.1422L222.999 33.0921L200.011 42.5938C201.771 46.037 204.508 47.7934 208.346 47.7934C212.192 47.7934 214.859 45.9054 216.812 43.0425ZM198.771 36.868L214.138 30.5C213.292 28.3567 210.749 26.8634 207.757 26.8634C203.919 26.8634 198.577 30.2447 198.771 36.868Z" fill="#EA4335"/>
<path d="M41.0252 32.9293V25.6483H65.6104C65.8508 26.9173 65.9748 28.4184 65.9748 30.0433C65.9748 35.5059 64.4785 42.2608 59.656 47.0735C54.9653 51.9482 48.9721 54.548 41.0329 54.548C26.3174 54.548 13.9434 42.5858 13.9434 27.9C13.9434 13.2142 26.3174 1.25195 41.0329 1.25195C49.1737 1.25195 54.9731 4.43981 59.3304 8.59486L54.1823 13.7326C51.0577 10.8078 46.8245 8.53296 41.0252 8.53296C30.2793 8.53296 21.8748 17.1758 21.8748 27.9C21.8748 38.6242 30.2793 47.267 41.0252 47.267C47.9952 47.267 51.9649 44.4737 54.5079 41.9358C56.5702 39.8776 57.927 36.9374 58.462 32.9216L41.0252 32.9293Z" fill="#4285F4"/>
</svg>
