<svg width="96" height="41" viewBox="0 0 96 41" fill="none" xmlns="http://www.w3.org/2000/svg">
<path fill-rule="evenodd" clip-rule="evenodd" d="M0.773438 1.53707V23.5143H3.90339V4.80908L12.0917 23.5143H17.2984V1.53707H14.1536L14.5393 21.9796L5.90596 1.53707H0.773438ZM21.8192 19.8486C22.5214 21.0803 23.4905 22.0488 24.7267 22.7541C25.9727 23.4593 27.4067 23.812 29.0285 23.812C30.6503 23.812 32.0793 23.4593 33.3155 22.7541C34.5615 22.0488 35.5307 21.0803 36.2229 19.8486C36.9251 18.607 37.2761 17.1865 37.2761 15.5873C37.2761 13.998 36.9251 12.5924 36.2229 11.3706C35.5307 10.1389 34.5615 9.18036 33.3155 8.49497C32.0793 7.79965 30.6503 7.45198 29.0285 7.45198C27.4067 7.45198 25.9727 7.79965 24.7267 8.49497C23.4905 9.18036 22.5214 10.1389 21.8192 11.3706C21.127 12.5924 20.7809 13.998 20.7809 15.5873C20.7809 17.1865 21.127 18.607 21.8192 19.8486ZM33.4045 18.4778C32.9793 19.2924 32.3908 19.9231 31.6393 20.3701C30.8877 20.8171 30.0174 21.0406 29.0285 21.0406C28.0495 21.0406 27.1792 20.8171 26.4177 20.3701C25.6661 19.9231 25.0777 19.2924 24.6525 18.4778C24.2273 17.6534 24.0146 16.6899 24.0146 15.5873C24.0146 14.4946 24.2273 13.546 24.6525 12.7414C25.0777 11.9368 25.6661 11.316 26.4177 10.8789C27.1792 10.4419 28.0495 10.2233 29.0285 10.2233C30.0174 10.2233 30.8877 10.4419 31.6393 10.8789C32.3908 11.316 32.9793 11.9368 33.4045 12.7414C33.8297 13.546 34.0423 14.4946 34.0423 15.5873C34.0423 16.6899 33.8297 17.6534 33.4045 18.4778ZM44.0782 7.69038H40.8592V23.514H44.0782V15.2595C44.0782 14.6933 44.1424 14.1321 44.271 13.5758C44.4094 13.0096 44.6369 12.4881 44.9534 12.0113C45.2698 11.5345 45.695 11.1521 46.2291 10.864C46.7631 10.576 47.4356 10.4319 48.2465 10.4319C48.7805 10.4319 49.1958 10.4866 49.4925 10.5958C49.7991 10.7051 50.0018 10.7945 50.1007 10.864L50.7831 7.82448C50.6941 7.76488 50.4518 7.68542 50.0562 7.58608C49.6705 7.48675 49.1612 7.43709 48.5283 7.43709C47.6976 7.43709 46.9658 7.57118 46.3329 7.83938C45.7 8.10758 45.166 8.4751 44.7308 8.94196C44.5231 9.16523 44.3354 9.40391 44.1677 9.658L44.0782 9.67427V7.69038ZM53.4267 20.087C54.0794 21.3187 54.9497 22.2524 56.0375 22.8882C57.1253 23.514 58.317 23.8269 59.6125 23.8269C60.908 23.8269 62.0749 23.509 63.1133 22.8733C63.7008 22.5114 64.22 22.0777 64.6708 21.5723V23.514H67.9046V0.225586H64.6708V9.6196C64.1933 9.1099 63.6445 8.68039 63.0243 8.33107C61.976 7.73508 60.8387 7.43709 59.6125 7.43709C58.3368 7.43709 57.155 7.75495 56.0672 8.39067C54.9794 9.01646 54.1042 9.93528 53.4416 11.1471C52.779 12.359 52.4477 13.8341 52.4477 15.5724C52.4477 17.3504 52.7741 18.8553 53.4267 20.087ZM64.6708 14.738L66.5399 14.6784V14.589V14.4698C66.5399 13.0891 66.2185 11.8723 65.5757 10.8193C65.3096 10.3794 65.008 9.97952 64.6708 9.6196V14.5443C64.6708 13.7198 64.4632 12.9897 64.0478 12.354C63.6325 11.7084 63.0836 11.2018 62.4012 10.8342C61.7288 10.4568 61.0118 10.268 60.2503 10.268C58.9746 10.268 57.9066 10.7001 57.0462 11.5643C56.1858 12.4186 55.7557 13.7546 55.7557 15.5724C55.7557 17.3802 56.1858 18.7212 57.0462 19.5953C57.9165 20.4595 58.9845 20.8916 60.2503 20.8916C61.0415 20.8916 61.7733 20.7029 62.4457 20.3254C63.1182 19.938 63.6572 19.4116 64.0626 18.746C64.4681 18.0805 64.6708 17.3206 64.6708 16.4664V21.5723C65.0244 21.176 65.3359 20.7355 65.6054 20.2509C66.2284 19.1483 66.5399 17.9116 66.5399 16.5409L64.6708 16.4664V14.738ZM75.2525 7.69038H72.078V23.514H75.2525V7.69038ZM71.6478 2.69895C71.6478 3.23534 71.8456 3.6575 72.2412 3.96543C72.6467 4.26343 73.1263 4.41243 73.6801 4.41243C74.224 4.41243 74.6937 4.26343 75.0893 3.96543C75.4948 3.6575 75.6975 3.23534 75.6975 2.69895C75.6975 2.17249 75.4948 1.76026 75.0893 1.46227C74.6937 1.15434 74.224 1.00038 73.6801 1.00038C73.1263 1.00038 72.6467 1.15434 72.2412 1.46227C71.8456 1.76026 71.6478 2.17249 71.6478 2.69895ZM79.9676 19.9529C80.6895 21.1946 81.6734 22.1531 82.9195 22.8286C84.1754 23.4941 85.5946 23.8269 87.1768 23.8269C88.4031 23.8269 89.481 23.6481 90.4106 23.2905C91.3501 22.9329 92.1363 22.4561 92.7692 21.8601C93.4021 21.2641 93.8817 20.6035 94.2081 19.8784C94.5344 19.1434 94.6976 18.4182 94.6976 17.703H91.5083C91.4589 18.299 91.2759 18.8553 90.9594 19.3718C90.643 19.8784 90.1733 20.2857 89.5502 20.5936C88.9272 20.8916 88.1262 21.0406 87.1472 21.0406C86.2373 21.0406 85.4017 20.832 84.6402 20.4148C83.8886 19.9976 83.2854 19.3867 82.8305 18.5821C82.3855 17.7676 82.163 16.7644 82.163 15.5724C82.163 14.3804 82.3904 13.3871 82.8453 12.5924C83.3002 11.7978 83.9035 11.2067 84.6551 10.8193C85.4165 10.422 86.2472 10.2233 87.1472 10.2233C87.968 10.2233 88.6849 10.3574 89.2981 10.6256C89.9112 10.8938 90.4057 11.2564 90.7815 11.7133C91.1572 12.1703 91.3847 12.6917 91.4638 13.2778C91.4737 13.3374 91.4836 13.402 91.4935 13.4715C91.5034 13.5311 91.5083 13.5857 91.5083 13.6354H94.6976V13.5758V13.5311C94.6976 12.8159 94.5295 12.1007 94.1933 11.3855C93.857 10.6703 93.3675 10.0147 92.7247 9.41876C92.0819 8.82277 91.2957 8.34597 90.3661 7.98838C89.4365 7.62085 88.3734 7.43709 87.1768 7.43709C85.5946 7.43709 84.1754 7.76488 82.9195 8.42047C81.6734 9.07606 80.6895 10.0147 79.9676 11.2365C79.2555 12.4484 78.8995 13.8937 78.8995 15.5724C78.8995 17.2511 79.2555 18.7113 79.9676 19.9529Z" fill="black"/>
<path fill-rule="evenodd" clip-rule="evenodd" d="M64.6426 3.1416H66.6998V21.6138H64.6426V3.1416Z" fill="black"/>
<path fill-rule="evenodd" clip-rule="evenodd" d="M0.791016 28.1238H2.90484L6.91266 36.0391L10.9036 28.1238H13.0174V40.0138H11.2249V31.2321L7.606 38.3152H6.21932L2.58354 31.2491V40.0138H0.791016V28.1238ZM22.4067 28.1238H24.3684L28.6975 40.0138H26.8035L25.7889 37.1092H20.9524L19.9378 40.0138H18.0438L22.4067 28.1238ZM25.2816 35.6824L23.3707 30.264L21.4598 35.6824H25.2816ZM33.7304 28.1238H37.8058C38.7416 28.1238 39.5082 28.2823 40.1057 28.5994C40.7145 28.9164 41.1654 29.3467 41.4585 29.8903C41.7517 30.4225 41.8982 31.017 41.8982 31.6738C41.8982 32.4098 41.7009 33.0779 41.3063 33.6781C40.923 34.2783 40.3199 34.7086 39.4969 34.969L42.0166 40.0138H39.9366L37.6367 35.2238H35.5229V40.0138H33.7304V28.1238ZM37.7044 33.8649C38.5161 33.8649 39.108 33.6668 39.48 33.2704C39.8633 32.8741 40.055 32.3589 40.055 31.7247C40.055 31.0906 39.8689 30.5867 39.4969 30.213C39.1249 29.828 38.5217 29.6355 37.6875 29.6355H35.5229V33.8649H37.7044ZM47.4009 28.1238H49.1934V33.2195L53.8608 28.1238H56.0761L51.6962 32.8628L56.1775 40.0138H53.996L50.411 34.2386L49.1934 35.5635V40.0138H47.4009V28.1238ZM61.121 28.1238H68.6462V29.5845H62.9135V33.2874H68.1389V34.7142H62.9135V38.553H68.6462V40.0138H61.121V28.1238ZM76.9373 29.5845H73.4368V28.1238H82.2134V29.5845H78.7298V40.0138H76.9373V29.5845ZM88.6817 39.759C88.0278 39.4533 87.5149 39.0173 87.1428 38.4511C86.7821 37.8849 86.5961 37.2111 86.5848 36.4298H88.4788C88.49 37.0639 88.7099 37.6018 89.1383 38.0434C89.5667 38.4851 90.1698 38.7059 90.9477 38.7059C91.6354 38.7059 92.1709 38.5417 92.5542 38.2133C92.9488 37.8736 93.1461 37.4433 93.1461 36.9224C93.1461 36.5034 93.0503 36.1637 92.8586 35.9032C92.6782 35.6428 92.4246 35.4276 92.0976 35.2578C91.782 35.0879 91.4156 34.935 90.9985 34.7992C90.5813 34.6633 90.1416 34.5161 89.6794 34.3575C88.7663 34.0518 88.0786 33.6554 87.6163 33.1685C87.1654 32.6816 86.9399 32.0418 86.9399 31.2491C86.9286 30.581 87.0808 29.9978 87.3965 29.4996C87.7234 29.0013 88.1744 28.6163 88.7493 28.3446C89.3356 28.0615 90.0176 27.9199 90.7955 27.9199C91.5621 27.9199 92.2329 28.0615 92.8079 28.3446C93.3941 28.6277 93.8507 29.024 94.1777 29.5336C94.5046 30.0318 94.6737 30.615 94.685 31.2831H92.791C92.791 30.9774 92.7121 30.6886 92.5542 30.4168C92.3964 30.1337 92.1653 29.9016 91.8609 29.7204C91.5565 29.5392 91.1845 29.4486 90.7448 29.4486C90.1811 29.4373 89.7132 29.5789 89.3412 29.8733C88.9805 30.1677 88.8001 30.5754 88.8001 31.0963C88.8001 31.5605 88.9354 31.9172 89.2059 32.1664C89.4765 32.4155 89.8485 32.625 90.322 32.7948C90.7955 32.9534 91.3367 33.1402 91.9454 33.3554C92.5317 33.5479 93.0559 33.78 93.5181 34.0518C93.9804 34.3236 94.3468 34.6803 94.6173 35.1219C94.8992 35.5635 95.0401 36.124 95.0401 36.8035C95.0401 37.4036 94.8879 37.9642 94.5835 38.4851C94.2791 38.9946 93.8225 39.4136 93.2137 39.742C92.605 40.0591 91.8553 40.2176 90.9646 40.2176C90.0966 40.2176 89.3356 40.0647 88.6817 39.759Z" fill="black"/>
</svg>
