<svg width="32" height="32" viewBox="0 0 32 32" fill="none" xmlns="http://www.w3.org/2000/svg">
<g clip-path="url(#clip0_857_6348)">
<path d="M15.6224 0.443643L15.6224 16.1934L28.5535 3.26222C29.5936 2.22209 28.857 0.443643 27.386 0.443643L15.6224 0.443643Z" fill="#EA3035"/>
<path d="M6.85101 0.443643C3.43151 0.443643 0.659463 3.2157 0.659463 6.6352L0.659463 16.1934L16.4092 0.443643L6.85101 0.443643Z" fill="#EA3035"/>
<path d="M16.4092 31.9434L16.4092 16.1936L3.47804 29.1248C2.43791 30.1649 3.17457 31.9434 4.64552 31.9434H16.4092Z" fill="#EA3035"/>
<path d="M25.1805 31.9434C28.6 31.9434 31.3721 29.1713 31.3721 25.7518L31.3721 16.1936L15.6224 31.9434L25.1805 31.9434Z" fill="#EA3035"/>
</g>
<defs>
<clipPath id="clip0_857_6348">
<rect width="30.6993" height="31.1111" fill="white" transform="translate(0.661133 0.444336)"/>
</clipPath>
</defs>
</svg>
