<svg width="191" height="113" viewBox="0 0 191 113" fill="none" xmlns="http://www.w3.org/2000/svg">
<path fill-rule="evenodd" clip-rule="evenodd" d="M95.7754 23.5371V45.5143H98.9053V26.8091L107.094 45.5143H112.3V23.5371H109.156L109.541 43.9796L100.908 23.5371H95.7754ZM116.821 41.8486C117.523 43.0803 118.492 44.0488 119.729 44.7541C120.975 45.4593 122.409 45.812 124.03 45.812C125.652 45.812 127.081 45.4593 128.317 44.7541C129.563 44.0488 130.533 43.0803 131.225 41.8486C131.927 40.607 132.278 39.1865 132.278 37.5873C132.278 35.998 131.927 34.5924 131.225 33.3706C130.533 32.1389 129.563 31.1804 128.317 30.495C127.081 29.7996 125.652 29.452 124.03 29.452C122.409 29.452 120.975 29.7996 119.729 30.495C118.492 31.1804 117.523 32.1389 116.821 33.3706C116.129 34.5924 115.783 35.998 115.783 37.5873C115.783 39.1865 116.129 40.607 116.821 41.8486ZM128.406 40.4778C127.981 41.2924 127.393 41.9231 126.641 42.3701C125.89 42.8171 125.019 43.0406 124.03 43.0406C123.051 43.0406 122.181 42.8171 121.42 42.3701C120.668 41.9231 120.08 41.2924 119.654 40.4778C119.229 39.6534 119.017 38.6899 119.017 37.5873C119.017 36.4946 119.229 35.546 119.654 34.7414C120.08 33.9368 120.668 33.316 121.42 32.8789C122.181 32.4419 123.051 32.2233 124.03 32.2233C125.019 32.2233 125.89 32.4419 126.641 32.8789C127.393 33.316 127.981 33.9368 128.406 34.7414C128.832 35.546 129.044 36.4946 129.044 37.5873C129.044 38.6899 128.832 39.6534 128.406 40.4778ZM139.08 29.6904H135.861V45.514H139.08V37.2595C139.08 36.6933 139.144 36.1321 139.273 35.5758C139.411 35.0096 139.639 34.4881 139.955 34.0113C140.272 33.5345 140.697 33.1521 141.231 32.864C141.765 32.576 142.438 32.4319 143.248 32.4319C143.782 32.4319 144.198 32.4866 144.494 32.5958C144.801 32.7051 145.004 32.7945 145.103 32.864L145.785 29.8245C145.696 29.7649 145.454 29.6854 145.058 29.5861C144.672 29.4868 144.163 29.4371 143.53 29.4371C142.7 29.4371 141.968 29.5712 141.335 29.8394C140.702 30.1076 140.168 30.4751 139.733 30.942C139.525 31.1652 139.337 31.4039 139.17 31.658L139.08 31.6743V29.6904ZM148.429 42.087C149.081 43.3187 149.952 44.2524 151.039 44.8882C152.127 45.514 153.319 45.8269 154.614 45.8269C155.91 45.8269 157.077 45.509 158.115 44.8733C158.703 44.5114 159.222 44.0777 159.673 43.5723V45.514H162.907V22.2256H159.673V31.6196C159.195 31.1099 158.646 30.6804 158.026 30.3311C156.978 29.7351 155.841 29.4371 154.614 29.4371C153.339 29.4371 152.157 29.7549 151.069 30.3907C149.981 31.0165 149.106 31.9353 148.444 33.1471C147.781 34.359 147.45 35.8341 147.45 37.5724C147.45 39.3504 147.776 40.8553 148.429 42.087ZM159.673 36.738L161.542 36.6784V36.589V36.4698C161.542 35.0891 161.22 33.8723 160.578 32.8193C160.312 32.3794 160.01 31.9795 159.673 31.6196V36.5443C159.673 35.7198 159.465 34.9897 159.05 34.354C158.634 33.7084 158.086 33.2018 157.403 32.8342C156.731 32.4568 156.014 32.268 155.252 32.268C153.977 32.268 152.909 32.7001 152.048 33.5643C151.188 34.4186 150.758 35.7546 150.758 37.5724C150.758 39.3802 151.188 40.7212 152.048 41.5953C152.918 42.4595 153.986 42.8916 155.252 42.8916C156.043 42.8916 156.775 42.7029 157.448 42.3254C158.12 41.938 158.659 41.4116 159.065 40.746C159.47 40.0805 159.673 39.3206 159.673 38.4664V43.5723C160.026 43.176 160.338 42.7355 160.607 42.2509C161.23 41.1483 161.542 39.9116 161.542 38.5409L159.673 38.4664V36.738ZM170.254 29.6904H167.08V45.514H170.254V29.6904ZM166.65 24.699C166.65 25.2353 166.848 25.6575 167.243 25.9654C167.649 26.2634 168.128 26.4124 168.682 26.4124C169.226 26.4124 169.696 26.2634 170.091 25.9654C170.497 25.6575 170.699 25.2353 170.699 24.699C170.699 24.1725 170.497 23.7603 170.091 23.4623C169.696 23.1543 169.226 23.0004 168.682 23.0004C168.128 23.0004 167.649 23.1543 167.243 23.4623C166.848 23.7603 166.65 24.1725 166.65 24.699ZM174.97 41.9529C175.691 43.1946 176.675 44.1531 177.921 44.8286C179.177 45.4941 180.597 45.8269 182.179 45.8269C183.405 45.8269 184.483 45.6481 185.413 45.2905C186.352 44.9329 187.138 44.4561 187.771 43.8601C188.404 43.2641 188.884 42.6035 189.21 41.8784C189.536 41.1434 189.7 40.4182 189.7 39.703H186.51C186.461 40.299 186.278 40.8553 185.961 41.3718C185.645 41.8784 185.175 42.2857 184.552 42.5936C183.929 42.8916 183.128 43.0406 182.149 43.0406C181.239 43.0406 180.404 42.832 179.642 42.4148C178.891 41.9976 178.287 41.3867 177.832 40.5821C177.387 39.7676 177.165 38.7644 177.165 37.5724C177.165 36.3804 177.392 35.3871 177.847 34.5924C178.302 33.7978 178.905 33.2067 179.657 32.8193C180.418 32.422 181.249 32.2233 182.149 32.2233C182.97 32.2233 183.687 32.3574 184.3 32.6256C184.913 32.8938 185.408 33.2564 185.783 33.7133C186.159 34.1703 186.387 34.6917 186.466 35.2778C186.476 35.3374 186.486 35.402 186.495 35.4715C186.505 35.5311 186.51 35.5857 186.51 35.6354H189.7V35.5758V35.5311C189.7 34.8159 189.531 34.1007 189.195 33.3855C188.859 32.6703 188.369 32.0147 187.727 31.4188C187.084 30.8228 186.298 30.346 185.368 29.9884C184.438 29.6209 183.375 29.4371 182.179 29.4371C180.597 29.4371 179.177 29.7649 177.921 30.4205C176.675 31.0761 175.691 32.0147 174.97 33.2365C174.257 34.4484 173.901 35.8937 173.901 37.5724C173.901 39.2511 174.257 40.7113 174.97 41.9529Z" fill="black"/>
<path fill-rule="evenodd" clip-rule="evenodd" d="M159.643 25.1416H161.7V43.6138H159.643V25.1416Z" fill="black"/>
<path fill-rule="evenodd" clip-rule="evenodd" d="M95.793 50.1238H97.9068L101.915 58.0391L105.906 50.1238H108.019V62.0138H106.227V53.2321L102.608 60.3152H101.221L97.5855 53.2491V62.0138H95.793V50.1238ZM117.409 50.1238H119.37L123.699 62.0138H121.805L120.791 59.1092H115.954L114.94 62.0138H113.046L117.409 50.1238ZM120.284 57.6824L118.373 52.264L116.462 57.6824H120.284ZM128.732 50.1238H132.808C133.744 50.1238 134.51 50.2823 135.108 50.5994C135.716 50.9164 136.167 51.3467 136.46 51.8903C136.754 52.4225 136.9 53.017 136.9 53.6738C136.9 54.4098 136.703 55.0779 136.308 55.6781C135.925 56.2783 135.322 56.7086 134.499 56.969L137.019 62.0138H134.939L132.639 57.2238H130.525V62.0138H128.732V50.1238ZM132.706 55.8649C133.518 55.8649 134.11 55.6668 134.482 55.2704C134.865 54.8741 135.057 54.3589 135.057 53.7247C135.057 53.0906 134.871 52.5867 134.499 52.213C134.127 51.828 133.524 51.6355 132.689 51.6355H130.525V55.8649H132.706ZM142.403 50.1238H144.195V55.2195L148.863 50.1238H151.078L146.698 54.8628L151.179 62.0138H148.998L145.413 56.2386L144.195 57.5635V62.0138H142.403V50.1238ZM156.123 50.1238H163.648V51.5845H157.915V55.2874H163.141V56.7142H157.915V60.553H163.648V62.0138H156.123V50.1238ZM171.939 51.5845H168.439V50.1238H177.215V51.5845H173.732V62.0138H171.939V51.5845ZM183.684 61.759C183.03 61.4533 182.517 61.0173 182.145 60.4511C181.784 59.8849 181.598 59.2111 181.587 58.4298H183.481C183.492 59.0639 183.712 59.6018 184.14 60.0434C184.569 60.4851 185.172 60.7059 185.95 60.7059C186.637 60.7059 187.173 60.5417 187.556 60.2133C187.951 59.8736 188.148 59.4433 188.148 58.9224C188.148 58.5034 188.052 58.1637 187.861 57.9032C187.68 57.6428 187.427 57.4276 187.1 57.2578C186.784 57.0879 186.418 56.935 186 56.7992C185.583 56.6633 185.144 56.5161 184.681 56.3575C183.768 56.0518 183.081 55.6554 182.618 55.1685C182.167 54.6816 181.942 54.0418 181.942 53.2491C181.931 52.581 182.083 51.9978 182.398 51.4996C182.725 51.0013 183.176 50.6163 183.751 50.3446C184.338 50.0615 185.02 49.9199 185.797 49.9199C186.564 49.9199 187.235 50.0615 187.81 50.3446C188.396 50.6277 188.853 51.024 189.18 51.5336C189.507 52.0318 189.676 52.615 189.687 53.2831H187.793C187.793 52.9774 187.714 52.6886 187.556 52.4168C187.398 52.1337 187.167 51.9016 186.863 51.7204C186.558 51.5392 186.186 51.4486 185.747 51.4486C185.183 51.4373 184.715 51.5789 184.343 51.8733C183.982 52.1677 183.802 52.5754 183.802 53.0963C183.802 53.5605 183.937 53.9172 184.208 54.1664C184.478 54.4155 184.85 54.625 185.324 54.7948C185.797 54.9534 186.339 55.1402 186.947 55.3554C187.534 55.5479 188.058 55.78 188.52 56.0518C188.982 56.3236 189.349 56.6803 189.619 57.1219C189.901 57.5635 190.042 58.124 190.042 58.8035C190.042 59.4036 189.89 59.9642 189.585 60.4851C189.281 60.9946 188.824 61.4136 188.216 61.742C187.607 62.0591 186.857 62.2176 185.967 62.2176C185.099 62.2176 184.338 62.0647 183.684 61.759Z" fill="black"/>
<g filter="url(#filter0_d_532_9634)">
<rect x="6" y="6" width="70.8445" height="70" rx="21.6559" fill="white"/>
</g>
<g clip-path="url(#clip0_532_9634)">
<path d="M41.6233 25.4436V41.1934L54.5545 28.2622C55.5946 27.2221 54.8579 25.4436 53.387 25.4436H41.6233Z" fill="#EA3035"/>
<path d="M32.852 25.4436C29.4325 25.4436 26.6604 28.2157 26.6604 31.6352V41.1934L42.4102 25.4436H32.852Z" fill="#EA3035"/>
<path d="M42.4102 56.9434V41.1936L29.479 54.1248C28.4389 55.1649 29.1755 56.9434 30.6465 56.9434H42.4102Z" fill="#EA3035"/>
<path d="M51.1815 56.9434C54.601 56.9434 57.373 54.1713 57.373 50.7518V41.1936L41.6233 56.9434H51.1815Z" fill="#EA3035"/>
</g>
<defs>
<filter id="filter0_d_532_9634" x="0.814816" y="0.814816" width="112.325" height="111.481" filterUnits="userSpaceOnUse" color-interpolation-filters="sRGB">
<feFlood flood-opacity="0" result="BackgroundImageFix"/>
<feColorMatrix in="SourceAlpha" type="matrix" values="0 0 0 0 0 0 0 0 0 0 0 0 0 0 0 0 0 0 127 0" result="hardAlpha"/>
<feOffset dx="15.5556" dy="15.5556"/>
<feGaussianBlur stdDeviation="10.3704"/>
<feComposite in2="hardAlpha" operator="out"/>
<feColorMatrix type="matrix" values="0 0 0 0 0 0 0 0 0 0 0 0 0 0 0 0 0 0 0.06 0"/>
<feBlend mode="normal" in2="BackgroundImageFix" result="effect1_dropShadow_532_9634"/>
<feBlend mode="normal" in="SourceGraphic" in2="effect1_dropShadow_532_9634" result="shape"/>
</filter>
<clipPath id="clip0_532_9634">
<rect width="30.6993" height="31.1111" fill="white" transform="translate(26.6621 25.4443)"/>
</clipPath>
</defs>
</svg>
