<svg width="55" height="54" viewBox="0 0 55 54" fill="none" xmlns="http://www.w3.org/2000/svg">
<mask id="mask0_105_741" style="mask-type:luminance" maskUnits="userSpaceOnUse" x="0" y="0" width="55" height="54">
<rect x="0.980469" width="54" height="54" rx="27" fill="white"/>
</mask>
<g mask="url(#mask0_105_741)">
<path d="M54.9602 0V53.9798H0.980469V0H54.9602Z" fill="#E90001"/>
<path d="M38.463 39H41.9805C41.9805 25.1837 38.4315 14 34.0868 14C31.6053 14 29.412 17.3503 27.9641 22.6167C26.5163 17.3515 24.323 14 21.8613 14C17.5166 14 13.9805 25.1742 13.9805 38.9905H17.4968C17.4968 26.1578 19.4311 15.7765 21.8415 15.7765C24.2518 15.7765 26.206 25.3745 26.206 37.2139H29.7025C29.7025 25.3745 31.6671 15.7765 34.0775 15.7765H34.0973C36.5076 15.7765 38.463 26.1662 38.463 39Z" fill="#FFC301"/>
</g>
</svg>
