<svg width="231" height="72" viewBox="0 0 231 72" fill="none" xmlns="http://www.w3.org/2000/svg">
<path d="M7.56841 44.0895C7.56841 46.8255 8.15566 48.9261 8.92322 50.1969C9.92958 51.8614 11.4306 52.5666 12.9608 52.5666C14.9346 52.5666 16.7402 52.0657 20.2198 47.1445C23.0074 43.2 26.2921 37.6633 28.5022 34.1922L32.2449 28.3116C34.8449 24.2276 37.8542 19.6876 41.3046 16.6102C44.1215 14.0985 47.16 12.7031 50.2181 12.7031C55.3522 12.7031 60.2427 15.7456 63.9855 21.4518C68.0816 27.7011 70.07 35.5727 70.07 43.6958C70.07 48.5249 69.1391 52.0732 67.5553 54.8764C66.025 57.5875 63.0425 60.2961 58.0253 60.2961V52.5666C62.3212 52.5666 63.3934 48.5299 63.3934 43.9101C63.3934 37.3269 61.8924 30.021 58.5858 24.8007C56.2392 21.0979 53.1982 18.8354 49.8526 18.8354C46.2341 18.8354 43.3222 21.6262 40.0497 26.6023C38.3099 29.246 36.5238 32.4679 34.5184 36.1034L32.3107 40.1027C27.8759 48.1437 26.7526 49.9751 24.5352 52.9977C20.6487 58.2902 17.3299 60.2961 12.9608 60.2961C7.77797 60.2961 4.5006 58.0011 2.47082 54.5425C0.81386 51.7243 0 48.0266 0 43.813L7.56841 44.0895Z" fill="white"/>
<path d="M5.9668 21.9975C9.43667 16.528 14.4441 12.7031 20.1874 12.7031C23.5135 12.7031 26.8201 13.7098 30.273 16.5928C34.0499 19.7449 38.0753 24.9353 43.0973 33.4895L44.8981 36.5594C49.2452 43.965 51.7184 47.7749 53.1658 49.5715C55.0275 51.8788 56.3311 52.5666 58.0246 52.5666C62.3205 52.5666 63.3927 48.5299 63.3927 43.9101L70.0693 43.6958C70.0693 48.5249 69.1384 52.0732 67.5546 54.8764C66.0243 57.5875 63.0418 60.2961 58.0246 60.2961C54.9056 60.2961 52.1424 59.6033 49.0868 56.6556C46.7378 54.393 43.9916 50.3738 41.879 46.7607L35.5947 36.0262C32.4416 30.6389 29.5493 26.6222 27.8752 24.8032C26.0745 22.8471 23.7596 20.4849 20.0656 20.4849C17.0757 20.4849 14.5367 22.6304 12.4119 25.912L5.9668 21.9975Z" fill="white"/>
<path d="M20.0663 20.4849C17.0764 20.4849 14.5374 22.6304 12.4126 25.912C9.40813 30.5492 7.56841 37.4564 7.56841 44.0895C7.56841 46.8255 8.15566 48.9261 8.92322 50.1969L2.47082 54.5426C0.81386 51.7244 0 48.0266 0 43.813C0 36.1507 2.05658 28.1646 5.9675 21.9975C9.43737 16.528 14.4448 12.7031 20.1881 12.7031L20.0663 20.4849Z" fill="white"/>
<path d="M84.7832 14.207H93.5383L108.424 41.7461L123.312 14.207H131.877V59.4577H124.735V24.7771L111.68 48.7929H104.979L91.9252 24.7771V59.4577H84.7832V14.207ZM154.256 31.0789C149.134 31.0789 146.049 35.0208 145.311 39.9022H162.694C162.336 34.8738 159.5 31.0789 154.256 31.0789ZM138.23 42.6831C138.23 32.412 144.721 24.9366 154.38 24.9366C163.881 24.9366 169.554 32.3173 169.554 43.2312V45.2371H145.311C146.171 50.5471 149.617 54.1253 155.172 54.1253C159.605 54.1253 162.375 52.7424 165.002 50.2132L168.796 54.965C165.221 58.3264 160.674 60.265 154.919 60.265C144.463 60.265 138.23 52.4683 138.23 42.6831ZM178.214 31.7267H171.64V25.7464H178.214V15.8566H185.105V25.7464H195.093V31.7267H185.105V46.8842C185.105 52.0596 186.723 53.8985 190.7 53.8985C192.515 53.8985 193.555 53.7391 195.093 53.4774V59.3929C193.178 59.9461 191.35 60.2002 189.372 60.2002C181.932 60.2002 178.214 56.044 178.214 47.7239V31.7267ZM224.109 37.5425C222.725 33.9693 219.638 31.338 215.101 31.338C209.204 31.338 205.429 35.6164 205.429 42.5859C205.429 49.381 208.904 53.8661 214.818 53.8661C219.467 53.8661 222.786 51.1003 224.109 47.6591V37.5425ZM231 59.4577H224.236V54.7383C222.345 57.5166 218.904 60.265 213.332 60.265C204.369 60.265 198.38 52.5929 198.38 42.5859C198.38 32.4842 204.513 24.9366 213.712 24.9366C218.259 24.9366 221.826 26.7955 224.236 30.0772V25.7464H231V59.4577Z" fill="white"/>
</svg>
