<svg width="55" height="54" viewBox="0 0 55 54" fill="none" xmlns="http://www.w3.org/2000/svg">
<mask id="mask0_105_718" style="mask-type:luminance" maskUnits="userSpaceOnUse" x="0" y="0" width="55" height="54">
<rect x="0.980469" width="54" height="54" rx="27" fill="white"/>
</mask>
<g mask="url(#mask0_105_718)">
<path d="M54.9602 0V53.9798H0.980469V0H54.9602Z" fill="#F3F3F3"/>
<path fill-rule="evenodd" clip-rule="evenodd" d="M30.8513 16.7996L30.837 24.8914L30.1712 23.013L30.17 23.0094L29.3098 41.0239C30.1556 43.4126 30.6087 44.6877 30.6138 44.6927C30.6203 44.6995 31.1025 44.7286 31.6849 44.7575C33.4496 44.845 35.6366 45.0326 37.2957 45.2388C37.6798 45.2865 38.0103 45.311 38.0304 45.2931C38.0502 45.2753 38.0609 37.0363 38.0544 26.9843L38.0422 8.70785H30.8654L30.8513 16.7996ZM17.8848 26.9786C17.8848 37.041 17.8947 45.2836 17.9067 45.2956C17.9187 45.3076 18.5418 45.2488 19.2915 45.1648C20.041 45.0809 21.0771 44.9764 21.5937 44.9328C22.386 44.8659 24.7514 44.7138 25.0252 44.7121C25.1049 44.7117 25.11 44.3008 25.1216 36.9634L25.1338 29.2148L25.7061 30.8341L25.9086 31.4064L26.7686 13.3964L26.4731 12.561C26.0317 11.3126 25.5899 10.0643 25.1478 8.81606L25.1003 8.68359H17.8848V26.9786Z" fill="#B1060F"/>
<path d="M30.8513 16.7996L31.1631 16.8002V16.8002L30.8513 16.7996ZM30.837 24.8914L30.5431 24.9955L31.1487 24.892L30.837 24.8914ZM30.1712 23.013L29.8772 23.1166L29.8774 23.1171L30.1712 23.013ZM30.17 23.0094L30.464 22.9058L29.8586 22.9945L30.17 23.0094ZM29.3098 41.0239L28.9984 41.009L28.9954 41.0702L29.0159 41.128L29.3098 41.0239ZM30.6138 44.6927L30.8377 44.4758L30.8342 44.4723L30.6138 44.6927ZM31.6849 44.7575L31.6695 45.0689H31.6695L31.6849 44.7575ZM37.2957 45.2388L37.2572 45.5482L37.2573 45.5482L37.2957 45.2388ZM38.0304 45.2931L37.8226 45.0606L37.8225 45.0607L38.0304 45.2931ZM38.0544 26.9843L38.3662 26.9841V26.9841L38.0544 26.9843ZM38.0422 8.70785L38.3539 8.70764L38.3537 8.39609H38.0422V8.70785ZM19.2915 45.1648L19.3262 45.4746H19.3262L19.2915 45.1648ZM21.5937 44.9328L21.5675 44.6221L21.5674 44.6221L21.5937 44.9328ZM25.0252 44.7121L25.0236 44.4004H25.0233L25.0252 44.7121ZM25.1216 36.9634L25.4334 36.9638L25.1216 36.9634ZM25.1338 29.2148L25.4278 29.1109L24.8221 29.2143L25.1338 29.2148ZM25.7061 30.8341L25.4122 30.938L25.4122 30.9381L25.7061 30.8341ZM25.9086 31.4064L25.6147 31.5104L26.22 31.4213L25.9086 31.4064ZM26.7686 13.3964L27.08 13.4112L27.0829 13.3501L27.0625 13.2924L26.7686 13.3964ZM26.4731 12.561L26.1792 12.665L26.1792 12.665L26.4731 12.561ZM25.1478 8.81606L25.4416 8.71196L25.4413 8.71091L25.1478 8.81606ZM25.1003 8.68359L25.3938 8.57844L25.3198 8.37183H25.1003V8.68359ZM30.5395 16.7991L30.5252 24.8908L31.1487 24.892L31.1631 16.8002L30.5395 16.7991ZM31.1308 24.7873L30.4651 22.9089L29.8774 23.1171L30.5431 24.9955L31.1308 24.7873ZM30.4653 22.9094L30.464 22.9058L29.8759 23.113L29.8772 23.1166L30.4653 22.9094ZM29.8586 22.9945L28.9984 41.009L29.6212 41.0388L30.4814 23.0243L29.8586 22.9945ZM29.0159 41.128C29.4388 42.3223 29.7636 43.2384 29.9833 43.8566C30.0932 44.1656 30.1768 44.4004 30.2333 44.5583C30.2616 44.6372 30.2832 44.6973 30.2979 44.738C30.3053 44.7582 30.3112 44.7743 30.3155 44.7859C30.3175 44.7914 30.3197 44.7972 30.3217 44.8022C30.3226 44.8044 30.3243 44.8088 30.3264 44.8138C30.3273 44.8158 30.3297 44.8214 30.333 44.8283C30.3345 44.8315 30.338 44.8386 30.343 44.8473C30.3456 44.8517 30.352 44.862 30.3559 44.8679C30.3622 44.8769 30.3807 44.8997 30.3933 44.9132L30.8342 44.4723C30.8469 44.4857 30.8653 44.5086 30.8716 44.5174C30.8755 44.5234 30.8819 44.5336 30.8844 44.5379C30.8893 44.5465 30.8927 44.5535 30.8942 44.5565C30.8973 44.5629 30.8995 44.568 30.9 44.5694C30.9009 44.5714 30.9016 44.573 30.9018 44.5736C30.9021 44.5743 30.9023 44.5748 30.9023 44.5749C30.9023 44.5749 30.9021 44.5744 30.9016 44.5731C30.9012 44.5719 30.9005 44.5702 30.8997 44.568C30.8964 44.5591 30.8912 44.545 30.8841 44.5252C30.8698 44.4859 30.8485 44.4269 30.8204 44.3482C30.7641 44.1909 30.6806 43.9567 30.5708 43.6478C30.3513 43.0299 30.0266 42.1141 29.6037 40.9198L29.0159 41.128ZM30.3899 44.9097C30.4246 44.9455 30.4595 44.9641 30.4726 44.9708C30.4894 44.9793 30.5035 44.9846 30.5116 44.9874C30.5279 44.9931 30.5412 44.9962 30.547 44.9975C30.5597 45.0004 30.5705 45.002 30.5753 45.0027C30.5864 45.0044 30.5979 45.0056 30.6067 45.0065C30.6256 45.0084 30.6504 45.0104 30.6788 45.0125C30.7362 45.0168 30.817 45.0221 30.9146 45.028C31.1102 45.0398 31.3775 45.0544 31.6695 45.0689L31.7004 44.4461C31.4099 44.4317 31.145 44.4173 30.9522 44.4056C30.8556 44.3998 30.7783 44.3947 30.7253 44.3907C30.6984 44.3887 30.6799 44.3872 30.6689 44.3861C30.6628 44.3854 30.6626 44.3853 30.6657 44.3858C30.6665 44.3859 30.6741 44.387 30.6846 44.3894C30.6893 44.3904 30.7017 44.3933 30.7172 44.3987C30.725 44.4014 30.7389 44.4066 30.7554 44.415C30.7683 44.4216 30.8031 44.4401 30.8377 44.4758L30.3899 44.9097ZM31.6695 45.0689C33.4269 45.1561 35.6062 45.3429 37.2572 45.5482L37.3341 44.9295C35.667 44.7222 33.4723 44.534 31.7004 44.4461L31.6695 45.0689ZM37.2573 45.5482C37.453 45.5725 37.637 45.5912 37.7766 45.6015C37.8456 45.6066 37.908 45.61 37.9571 45.6106C37.9807 45.6109 38.008 45.6107 38.0341 45.6086C38.0465 45.6076 38.0668 45.6055 38.0899 45.6004C38.0955 45.5992 38.1709 45.5856 38.2382 45.5254L37.8225 45.0607C37.861 45.0262 37.8986 45.0103 37.9142 45.0042C37.9329 44.9969 37.9482 44.9932 37.9561 44.9914C37.972 44.9879 37.9828 44.9872 37.9835 44.9871C37.9862 44.9869 37.9814 44.9873 37.9652 44.9871C37.9346 44.9867 37.8866 44.9844 37.8225 44.9796C37.6958 44.9703 37.5224 44.9528 37.3341 44.9295L37.2573 45.5482ZM38.2381 45.5255C38.2716 45.4905 38.3106 45.4298 38.3202 45.408C38.3249 45.3953 38.3315 45.3741 38.3336 45.3656C38.3374 45.3501 38.3392 45.3374 38.3398 45.3329C38.3413 45.3219 38.342 45.3126 38.3422 45.3085C38.3429 45.2987 38.3434 45.2881 38.3437 45.2789C38.3444 45.2596 38.3451 45.233 38.3457 45.2007C38.3469 45.1354 38.348 45.0399 38.3491 44.9163C38.3513 44.6689 38.3533 44.3058 38.3552 43.8396C38.3589 42.9073 38.3619 41.5613 38.364 39.902C38.3684 36.5832 38.3694 32.0103 38.3662 26.9841L37.7426 26.9845C37.7459 32.0104 37.7448 36.5829 37.7405 39.9011C37.7383 41.5603 37.7353 42.9056 37.7316 43.8372C37.7298 44.303 37.7278 44.665 37.7256 44.9108C37.7245 45.0339 37.7234 45.127 37.7222 45.1893C37.7217 45.2207 37.7211 45.2426 37.7206 45.2561C37.7204 45.2633 37.7202 45.2653 37.7203 45.264C37.7203 45.2634 37.7204 45.262 37.7206 45.26C37.7208 45.2582 37.7212 45.2544 37.7219 45.2494C37.7223 45.246 37.7239 45.2343 37.7275 45.2193C37.7296 45.2112 37.7361 45.1903 37.7407 45.1777C37.7503 45.1561 37.7891 45.0955 37.8226 45.0606L38.2381 45.5255ZM38.3662 26.9841L38.3539 8.70764L37.7304 8.70806L37.7426 26.9845L38.3662 26.9841ZM38.0422 8.39609H30.8654V9.01962H38.0422V8.39609ZM30.5537 8.70731L30.5395 16.7991L31.1631 16.8002L31.1772 8.7084L30.5537 8.70731ZM17.573 26.9786C17.573 32.0099 17.5755 36.5863 17.5795 39.9064C17.5815 41.5664 17.5838 42.9125 17.5864 43.8444C17.5877 44.3103 17.5891 44.6729 17.5905 44.9196C17.5913 45.0428 17.592 45.1376 17.5927 45.2021C17.5931 45.2341 17.5935 45.2596 17.5939 45.2777C17.5941 45.2864 17.5943 45.2953 17.5947 45.3029C17.5948 45.3062 17.5951 45.3128 17.5958 45.3204C17.596 45.3233 17.5968 45.3324 17.5986 45.3436C17.5997 45.35 17.6031 45.3668 17.6058 45.3773C17.6122 45.398 17.6485 45.4703 17.6863 45.516L18.1272 45.0751C18.1649 45.1209 18.2011 45.193 18.2075 45.2136C18.2101 45.2239 18.2135 45.2405 18.2145 45.2466C18.2162 45.2572 18.2169 45.2654 18.2171 45.2673C18.2173 45.2704 18.2175 45.2727 18.2175 45.2735C18.2175 45.2738 18.2176 45.2746 18.2176 45.2747C18.2176 45.2747 18.2176 45.2752 18.2176 45.2751C18.2176 45.2751 18.2176 45.2749 18.2176 45.2743C18.2175 45.2737 18.2175 45.2729 18.2175 45.2718C18.2174 45.2697 18.2173 45.267 18.2173 45.2634C18.2169 45.249 18.2166 45.2263 18.2162 45.1949C18.2155 45.1323 18.2148 45.039 18.2141 44.916C18.2126 44.6703 18.2113 44.3084 18.21 43.8426C18.2073 42.9112 18.205 41.5655 18.203 39.9056C18.199 36.5858 18.1965 32.0097 18.1965 26.9786H17.573ZM17.6863 45.516C17.7414 45.5712 17.8017 45.5896 17.8136 45.5933C17.8353 45.6002 17.8533 45.6033 17.8623 45.6047C17.881 45.6075 17.8967 45.6083 17.904 45.6086C17.9204 45.6092 17.9367 45.6089 17.9488 45.6085C17.9747 45.6077 18.0079 45.6057 18.045 45.603C18.1203 45.5976 18.2255 45.5885 18.3518 45.5766C18.6051 45.5527 18.9501 45.5168 19.3262 45.4746L19.2568 44.855C18.8832 44.8968 18.5419 44.9323 18.2932 44.9558C18.1685 44.9676 18.0688 44.9762 18.0005 44.9811C17.9657 44.9836 17.9424 44.9848 17.929 44.9853C17.9215 44.9855 17.9224 44.9853 17.928 44.9855C17.9299 44.9856 17.9413 44.986 17.9569 44.9884C17.9643 44.9895 17.9811 44.9923 18.0019 44.9989C18.0127 45.0023 18.0724 45.0204 18.1272 45.0751L17.6863 45.516ZM19.3262 45.4746C20.074 45.3909 21.1071 45.2868 21.6199 45.2434L21.5674 44.6221C21.0471 44.6661 20.0079 44.7708 19.2568 44.855L19.3262 45.4746ZM21.6199 45.2434C22.4139 45.1764 24.7674 45.0255 25.0271 45.0239L25.0233 44.4004C24.7354 44.4022 22.358 44.5554 21.5675 44.6221L21.6199 45.2434ZM25.0269 45.0239C25.1143 45.0234 25.2032 44.9883 25.2692 44.9163C25.3201 44.8607 25.341 44.8004 25.35 44.7708C25.3688 44.7092 25.3772 44.6338 25.3831 44.5571C25.3959 44.3921 25.4044 44.1013 25.4107 43.593C25.4234 42.5709 25.4276 40.6315 25.4334 36.9638L24.8098 36.9629C24.804 40.6326 24.7999 42.5675 24.7872 43.5853C24.7809 44.0969 24.7724 44.3675 24.7614 44.509C24.7555 44.5855 24.7503 44.5996 24.7535 44.5893C24.7547 44.5853 24.7674 44.541 24.8094 44.4951C24.8666 44.4326 24.9461 44.4008 25.0236 44.4004L25.0269 45.0239ZM25.4334 36.9638L25.4456 29.2153L24.8221 29.2143L24.8098 36.9629L25.4334 36.9638ZM24.8399 29.3187L25.4122 30.938L26.0001 30.7303L25.4278 29.1109L24.8399 29.3187ZM25.4122 30.9381L25.6147 31.5104L26.2025 31.3024L26 30.7301L25.4122 30.9381ZM26.22 31.4213L27.08 13.4112L26.4572 13.3815L25.5972 31.3915L26.22 31.4213ZM27.0625 13.2924L26.767 12.4571L26.1792 12.665L26.4747 13.5003L27.0625 13.2924ZM26.767 12.4571C26.3256 11.2086 25.8838 9.96022 25.4416 8.71197L24.8539 8.92016C25.296 10.1683 25.7378 11.4166 26.1792 12.665L26.767 12.4571ZM25.4413 8.71091L25.3938 8.57844L24.8068 8.78875L24.8543 8.92122L25.4413 8.71091ZM25.1003 8.37183H17.8848V8.99536H25.1003V8.37183ZM17.573 8.68359V26.9786H18.1965V8.68359H17.573Z" fill="white"/>
<path d="M17.8848 18.9531L25.1191 38.1433C25.1199 37.7035 25.1208 37.466 25.1216 36.9634L25.1338 29.2148L25.7061 30.8341C28.8921 39.8492 30.6037 44.6826 30.6138 44.6927C30.6203 44.6995 31.1025 44.7286 31.6849 44.7575C33.4496 44.845 35.6366 45.0326 37.2957 45.2388C37.6798 45.2865 38.0103 45.311 38.0304 45.2931C38.0439 45.2808 38.0529 41.241 38.0552 35.5421L30.8547 14.8406L30.8513 16.7996L30.837 24.8914L30.1712 23.013C29.5207 21.1776 29.0864 19.9502 26.4731 12.561C26.0317 11.3126 25.5899 10.0643 25.1478 8.81606L25.1003 8.68359H17.8848V18.9531Z" fill="url(#paint0_radial_105_718)"/>
<path d="M25.1336 29.2241V29.2148L25.7059 30.8341C28.8919 39.8492 30.6035 44.6826 30.6136 44.6927C30.6201 44.6995 31.1023 44.7286 31.6847 44.7575C33.4494 44.845 35.6364 45.0326 37.2954 45.2389C37.6777 45.2863 38.0063 45.3106 38.0295 45.2933L30.8365 24.8878V24.8914L30.1708 23.013C29.5203 21.1776 29.086 19.9502 26.4727 12.561C25.7698 10.574 25.1735 8.88905 25.1473 8.81606L25.0999 8.68359H17.8848L25.1336 29.2241Z" fill="#E50914"/>
<path fill-rule="evenodd" clip-rule="evenodd" d="M30.8513 16.7996L30.837 24.8914L30.1712 23.013L30.17 23.0094L29.3098 41.0239C30.1556 43.4126 30.6087 44.6877 30.6138 44.6927C30.6203 44.6995 31.1025 44.7286 31.6849 44.7575C33.4496 44.845 35.6366 45.0326 37.2957 45.2388C37.6798 45.2865 38.0103 45.311 38.0304 45.2931C38.0502 45.2753 38.0609 37.0363 38.0544 26.9843L38.0422 8.70785H30.8654L30.8513 16.7996ZM17.8848 26.9786C17.8848 37.041 17.8947 45.2836 17.9067 45.2956C17.9187 45.3076 18.5418 45.2488 19.2915 45.1648C20.041 45.0809 21.0771 44.9764 21.5937 44.9328C22.386 44.8659 24.7514 44.7138 25.0252 44.7121C25.1049 44.7117 25.11 44.3008 25.1216 36.9634L25.1338 29.2148L25.7061 30.8341L25.9086 31.4064L26.7686 13.3964L26.4731 12.561C26.0317 11.3126 25.5899 10.0643 25.1478 8.81606L25.1003 8.68359H17.8848V26.9786Z" fill="#B1060F"/>
<path d="M30.8513 16.7996L31.1631 16.8002V16.8002L30.8513 16.7996ZM30.837 24.8914L30.5431 24.9955L31.1487 24.892L30.837 24.8914ZM30.1712 23.013L29.8772 23.1166L29.8774 23.1171L30.1712 23.013ZM30.17 23.0094L30.464 22.9058L29.8586 22.9945L30.17 23.0094ZM29.3098 41.0239L28.9984 41.009L28.9954 41.0702L29.0159 41.128L29.3098 41.0239ZM30.6138 44.6927L30.8377 44.4758L30.8342 44.4723L30.6138 44.6927ZM31.6849 44.7575L31.6695 45.0689H31.6695L31.6849 44.7575ZM37.2957 45.2388L37.2572 45.5482L37.2573 45.5482L37.2957 45.2388ZM38.0304 45.2931L37.8226 45.0606L37.8225 45.0607L38.0304 45.2931ZM38.0544 26.9843L38.3662 26.9841V26.9841L38.0544 26.9843ZM38.0422 8.70785L38.3539 8.70764L38.3537 8.39609H38.0422V8.70785ZM19.2915 45.1648L19.3262 45.4746H19.3262L19.2915 45.1648ZM21.5937 44.9328L21.5675 44.6221L21.5674 44.6221L21.5937 44.9328ZM25.0252 44.7121L25.0236 44.4004H25.0233L25.0252 44.7121ZM25.1216 36.9634L25.4334 36.9638L25.1216 36.9634ZM25.1338 29.2148L25.4278 29.1109L24.8221 29.2143L25.1338 29.2148ZM25.7061 30.8341L25.4122 30.938L25.4122 30.9381L25.7061 30.8341ZM25.9086 31.4064L25.6147 31.5104L26.22 31.4213L25.9086 31.4064ZM26.7686 13.3964L27.08 13.4112L27.0829 13.3501L27.0625 13.2924L26.7686 13.3964ZM26.4731 12.561L26.1792 12.665L26.1792 12.665L26.4731 12.561ZM25.1478 8.81606L25.4416 8.71196L25.4413 8.71091L25.1478 8.81606ZM25.1003 8.68359L25.3938 8.57844L25.3198 8.37183H25.1003V8.68359ZM30.5395 16.7991L30.5252 24.8908L31.1487 24.892L31.1631 16.8002L30.5395 16.7991ZM31.1308 24.7873L30.4651 22.9089L29.8774 23.1171L30.5431 24.9955L31.1308 24.7873ZM30.4653 22.9094L30.464 22.9058L29.8759 23.113L29.8772 23.1166L30.4653 22.9094ZM29.8586 22.9945L28.9984 41.009L29.6212 41.0388L30.4814 23.0243L29.8586 22.9945ZM29.0159 41.128C29.4388 42.3223 29.7636 43.2384 29.9833 43.8566C30.0932 44.1656 30.1768 44.4004 30.2333 44.5583C30.2616 44.6372 30.2832 44.6973 30.2979 44.738C30.3053 44.7582 30.3112 44.7743 30.3155 44.7859C30.3175 44.7914 30.3197 44.7972 30.3217 44.8022C30.3226 44.8044 30.3243 44.8088 30.3264 44.8138C30.3273 44.8158 30.3297 44.8214 30.333 44.8283C30.3345 44.8315 30.338 44.8386 30.343 44.8473C30.3456 44.8517 30.352 44.862 30.3559 44.8679C30.3622 44.8769 30.3807 44.8997 30.3933 44.9132L30.8342 44.4723C30.8469 44.4857 30.8653 44.5086 30.8716 44.5174C30.8755 44.5234 30.8819 44.5336 30.8844 44.5379C30.8893 44.5465 30.8927 44.5535 30.8942 44.5565C30.8973 44.5629 30.8995 44.568 30.9 44.5694C30.9009 44.5714 30.9016 44.573 30.9018 44.5736C30.9021 44.5743 30.9023 44.5748 30.9023 44.5749C30.9023 44.5749 30.9021 44.5744 30.9016 44.5731C30.9012 44.5719 30.9005 44.5702 30.8997 44.568C30.8964 44.5591 30.8912 44.545 30.8841 44.5252C30.8698 44.4859 30.8485 44.4269 30.8204 44.3482C30.7641 44.1909 30.6806 43.9567 30.5708 43.6478C30.3513 43.0299 30.0266 42.1141 29.6037 40.9198L29.0159 41.128ZM30.3899 44.9097C30.4246 44.9455 30.4595 44.9641 30.4726 44.9708C30.4894 44.9793 30.5035 44.9846 30.5116 44.9874C30.5279 44.9931 30.5412 44.9962 30.547 44.9975C30.5597 45.0004 30.5705 45.002 30.5753 45.0027C30.5864 45.0044 30.5979 45.0056 30.6067 45.0065C30.6256 45.0084 30.6504 45.0104 30.6788 45.0125C30.7362 45.0168 30.817 45.0221 30.9146 45.028C31.1102 45.0398 31.3775 45.0544 31.6695 45.0689L31.7004 44.4461C31.4099 44.4317 31.145 44.4173 30.9522 44.4056C30.8556 44.3998 30.7783 44.3947 30.7253 44.3907C30.6984 44.3887 30.6799 44.3872 30.6689 44.3861C30.6628 44.3854 30.6626 44.3853 30.6657 44.3858C30.6665 44.3859 30.6741 44.387 30.6846 44.3894C30.6893 44.3904 30.7017 44.3933 30.7172 44.3987C30.725 44.4014 30.7389 44.4066 30.7554 44.415C30.7683 44.4216 30.8031 44.4401 30.8377 44.4758L30.3899 44.9097ZM31.6695 45.0689C33.4269 45.1561 35.6062 45.3429 37.2572 45.5482L37.3341 44.9295C35.667 44.7222 33.4723 44.534 31.7004 44.4461L31.6695 45.0689ZM37.2573 45.5482C37.453 45.5725 37.637 45.5912 37.7766 45.6015C37.8456 45.6066 37.908 45.61 37.9571 45.6106C37.9807 45.6109 38.008 45.6107 38.0341 45.6086C38.0465 45.6076 38.0668 45.6055 38.0899 45.6004C38.0955 45.5992 38.1709 45.5856 38.2382 45.5254L37.8225 45.0607C37.861 45.0262 37.8986 45.0103 37.9142 45.0042C37.9329 44.9969 37.9482 44.9932 37.9561 44.9914C37.972 44.9879 37.9828 44.9872 37.9835 44.9871C37.9862 44.9869 37.9814 44.9873 37.9652 44.9871C37.9346 44.9867 37.8866 44.9844 37.8225 44.9796C37.6958 44.9703 37.5224 44.9528 37.3341 44.9295L37.2573 45.5482ZM38.2381 45.5255C38.2716 45.4905 38.3106 45.4298 38.3202 45.408C38.3249 45.3953 38.3315 45.3741 38.3336 45.3656C38.3374 45.3501 38.3392 45.3374 38.3398 45.3329C38.3413 45.3219 38.342 45.3126 38.3422 45.3085C38.3429 45.2987 38.3434 45.2881 38.3437 45.2789C38.3444 45.2596 38.3451 45.233 38.3457 45.2007C38.3469 45.1354 38.348 45.0399 38.3491 44.9163C38.3513 44.6689 38.3533 44.3058 38.3552 43.8396C38.3589 42.9073 38.3619 41.5613 38.364 39.902C38.3684 36.5832 38.3694 32.0103 38.3662 26.9841L37.7426 26.9845C37.7459 32.0104 37.7448 36.5829 37.7405 39.9011C37.7383 41.5603 37.7353 42.9056 37.7316 43.8372C37.7298 44.303 37.7278 44.665 37.7256 44.9108C37.7245 45.0339 37.7234 45.127 37.7222 45.1893C37.7217 45.2207 37.7211 45.2426 37.7206 45.2561C37.7204 45.2633 37.7202 45.2653 37.7203 45.264C37.7203 45.2634 37.7204 45.262 37.7206 45.26C37.7208 45.2582 37.7212 45.2544 37.7219 45.2494C37.7223 45.246 37.7239 45.2343 37.7275 45.2193C37.7296 45.2112 37.7361 45.1903 37.7407 45.1777C37.7503 45.1561 37.7891 45.0955 37.8226 45.0606L38.2381 45.5255ZM38.3662 26.9841L38.3539 8.70764L37.7304 8.70806L37.7426 26.9845L38.3662 26.9841ZM38.0422 8.39609H30.8654V9.01962H38.0422V8.39609ZM30.5537 8.70731L30.5395 16.7991L31.1631 16.8002L31.1772 8.7084L30.5537 8.70731ZM17.573 26.9786C17.573 32.0099 17.5755 36.5863 17.5795 39.9064C17.5815 41.5664 17.5838 42.9125 17.5864 43.8444C17.5877 44.3103 17.5891 44.6729 17.5905 44.9196C17.5913 45.0428 17.592 45.1376 17.5927 45.2021C17.5931 45.2341 17.5935 45.2596 17.5939 45.2777C17.5941 45.2864 17.5943 45.2953 17.5947 45.3029C17.5948 45.3062 17.5951 45.3128 17.5958 45.3204C17.596 45.3233 17.5968 45.3324 17.5986 45.3436C17.5997 45.35 17.6031 45.3668 17.6058 45.3773C17.6122 45.398 17.6485 45.4703 17.6863 45.516L18.1272 45.0751C18.1649 45.1209 18.2011 45.193 18.2075 45.2136C18.2101 45.2239 18.2135 45.2405 18.2145 45.2466C18.2162 45.2572 18.2169 45.2654 18.2171 45.2673C18.2173 45.2704 18.2175 45.2727 18.2175 45.2735C18.2175 45.2738 18.2176 45.2746 18.2176 45.2747C18.2176 45.2747 18.2176 45.2752 18.2176 45.2751C18.2176 45.2751 18.2176 45.2749 18.2176 45.2743C18.2175 45.2737 18.2175 45.2729 18.2175 45.2718C18.2174 45.2697 18.2173 45.267 18.2173 45.2634C18.2169 45.249 18.2166 45.2263 18.2162 45.1949C18.2155 45.1323 18.2148 45.039 18.2141 44.916C18.2126 44.6703 18.2113 44.3084 18.21 43.8426C18.2073 42.9112 18.205 41.5655 18.203 39.9056C18.199 36.5858 18.1965 32.0097 18.1965 26.9786H17.573ZM17.6863 45.516C17.7414 45.5712 17.8017 45.5896 17.8136 45.5933C17.8353 45.6002 17.8533 45.6033 17.8623 45.6047C17.881 45.6075 17.8967 45.6083 17.904 45.6086C17.9204 45.6092 17.9367 45.6089 17.9488 45.6085C17.9747 45.6077 18.0079 45.6057 18.045 45.603C18.1203 45.5976 18.2255 45.5885 18.3518 45.5766C18.6051 45.5527 18.9501 45.5168 19.3262 45.4746L19.2568 44.855C18.8832 44.8968 18.5419 44.9323 18.2932 44.9558C18.1685 44.9676 18.0688 44.9762 18.0005 44.9811C17.9657 44.9836 17.9424 44.9848 17.929 44.9853C17.9215 44.9855 17.9224 44.9853 17.928 44.9855C17.9299 44.9856 17.9413 44.986 17.9569 44.9884C17.9643 44.9895 17.9811 44.9923 18.0019 44.9989C18.0127 45.0023 18.0724 45.0204 18.1272 45.0751L17.6863 45.516ZM19.3262 45.4746C20.074 45.3909 21.1071 45.2868 21.6199 45.2434L21.5674 44.6221C21.0471 44.6661 20.0079 44.7708 19.2568 44.855L19.3262 45.4746ZM21.6199 45.2434C22.4139 45.1764 24.7674 45.0255 25.0271 45.0239L25.0233 44.4004C24.7354 44.4022 22.358 44.5554 21.5675 44.6221L21.6199 45.2434ZM25.0269 45.0239C25.1143 45.0234 25.2032 44.9883 25.2692 44.9163C25.3201 44.8607 25.341 44.8004 25.35 44.7708C25.3688 44.7092 25.3772 44.6338 25.3831 44.5571C25.3959 44.3921 25.4044 44.1013 25.4107 43.593C25.4234 42.5709 25.4276 40.6315 25.4334 36.9638L24.8098 36.9629C24.804 40.6326 24.7999 42.5675 24.7872 43.5853C24.7809 44.0969 24.7724 44.3675 24.7614 44.509C24.7555 44.5855 24.7503 44.5996 24.7535 44.5893C24.7547 44.5853 24.7674 44.541 24.8094 44.4951C24.8666 44.4326 24.9461 44.4008 25.0236 44.4004L25.0269 45.0239ZM25.4334 36.9638L25.4456 29.2153L24.8221 29.2143L24.8098 36.9629L25.4334 36.9638ZM24.8399 29.3187L25.4122 30.938L26.0001 30.7303L25.4278 29.1109L24.8399 29.3187ZM25.4122 30.9381L25.6147 31.5104L26.2025 31.3024L26 30.7301L25.4122 30.9381ZM26.22 31.4213L27.08 13.4112L26.4572 13.3815L25.5972 31.3915L26.22 31.4213ZM27.0625 13.2924L26.767 12.4571L26.1792 12.665L26.4747 13.5003L27.0625 13.2924ZM26.767 12.4571C26.3256 11.2086 25.8838 9.96022 25.4416 8.71197L24.8539 8.92016C25.296 10.1683 25.7378 11.4166 26.1792 12.665L26.767 12.4571ZM25.4413 8.71091L25.3938 8.57844L24.8068 8.78875L24.8543 8.92122L25.4413 8.71091ZM25.1003 8.37183H17.8848V8.99536H25.1003V8.37183ZM17.573 8.68359V26.9786H18.1965V8.68359H17.573Z" fill="white"/>
<path d="M25.1336 29.2241V29.2148L25.7059 30.8341C28.8919 39.8492 30.6035 44.6826 30.6136 44.6927C30.6201 44.6995 31.1023 44.7286 31.6847 44.7575C33.4494 44.845 35.6364 45.0326 37.2954 45.2389C37.6777 45.2863 38.0063 45.3106 38.0295 45.2933L30.8365 24.8878V24.8914L30.1708 23.013C29.5203 21.1776 29.086 19.9502 26.4727 12.561C25.7698 10.574 25.1735 8.88905 25.1473 8.81606L25.0999 8.68359H17.8848L25.1336 29.2241Z" fill="#E50914"/>
</g>
<defs>
<radialGradient id="paint0_radial_105_718" cx="0" cy="0" r="1" gradientUnits="userSpaceOnUse" gradientTransform="translate(27.6352 14.7992) scale(14.2077 25.7911)">
<stop/>
<stop offset="1" stop-opacity="0.01"/>
</radialGradient>
</defs>
</svg>
