<svg width="140" height="140" viewBox="0 0 140 140" fill="none" xmlns="http://www.w3.org/2000/svg">
<g clip-path="url(#clip0_414_14647)">
<path d="M43.0245 110.713C71.1947 111.292 104.964 91.5807 118.448 66.6876C125.234 54.1628 125.59 42.7122 120.68 34.3527L125.797 43.0646C130.708 51.4241 130.351 62.8747 123.565 75.4017C110.08 100.295 76.313 120.005 48.1414 119.427C34.1473 119.14 24.1674 113.899 19.3199 105.646L14.2024 96.9337C19.0505 105.185 29.0304 110.426 43.0245 110.713Z" fill="#DCAE4C"/>
<path d="M16.4361 64.5956C2.95169 89.4887 14.8559 110.137 43.0247 110.716C71.1949 111.295 104.964 91.5841 118.448 66.691C131.933 41.7979 120.027 21.1509 91.8568 20.572C63.6889 19.9937 29.9206 39.7025 16.4361 64.5956Z" fill="#FFC343"/>
<path d="M25.3811 93.3417C29.8292 98.2932 37.1645 100.992 46.482 101.02C57.5468 101.051 70.0782 97.3118 81.7687 90.4877C93.4595 83.6671 102.908 74.576 108.375 64.8945C113.05 56.614 114.334 48.7527 112.131 42.3535C112.079 42.2944 112.027 42.2367 111.972 42.1807C111.961 42.1719 111.951 42.1609 111.942 42.1514C111.934 42.1432 111.926 42.1328 111.917 42.1246C111.496 41.67 111.056 41.2434 110.598 40.8438C105.618 36.4751 98.6353 35.1101 92.203 34.8672C85.9316 34.6284 79.6392 35.5584 73.6353 37.3533C73.6239 37.3561 73.6119 37.3612 73.5991 37.3649C59.5427 41.5741 46.1669 49.8413 36.3754 60.8109C33.6377 63.8783 31.1951 67.2342 29.1993 70.8339C28.2561 72.5313 27.4125 74.285 26.6825 76.0869C25.5609 78.8647 24.7069 81.6989 24.4357 84.6928C24.2984 86.216 24.298 87.7533 24.4711 89.2744C24.5259 89.7539 24.5734 90.5211 24.6898 91.2784C24.8121 92.1107 25.0126 92.9296 25.3811 93.3417Z" fill="#F8DDA5"/>
<path d="M25.3811 93.3417C29.8292 98.2932 37.1645 100.992 46.482 101.02C57.5468 101.051 70.0782 97.3118 81.7687 90.4877C93.4595 83.6671 102.908 74.576 108.375 64.8945C113.05 56.614 114.334 48.7527 112.131 42.3535C112.079 42.2944 112.027 42.2367 111.972 42.1807C111.961 42.1719 111.951 42.1609 111.942 42.1514C111.934 42.1432 111.926 42.1328 111.917 42.1246C111.496 41.67 111.056 41.2434 110.598 40.8438C105.618 36.4751 98.6353 35.1101 92.203 34.8672C85.9316 34.6284 79.6392 35.5584 73.6353 37.3533C73.6239 37.3561 73.6119 37.3612 73.5991 37.3649C59.5427 41.5741 46.1669 49.8413 36.3754 60.8109C33.6377 63.8783 31.1951 67.2342 29.1993 70.8339C28.2561 72.5313 27.4125 74.285 26.6825 76.0869C25.5609 78.8647 24.7069 81.6989 24.4357 84.6928C24.2984 86.216 24.298 87.7533 24.4711 89.2744C24.5259 89.7539 24.5734 90.5211 24.6898 91.2784C24.8121 92.1107 25.0126 92.9296 25.3811 93.3417Z" fill="#FFC343" fill-opacity="0.6"/>
<path d="M25.0221 92.7352C24.8523 92.3184 24.7522 91.8091 24.6914 91.2771C24.5758 90.5212 24.5283 89.754 24.4726 89.2731C24.2995 87.752 24.2999 86.2146 24.4372 84.6915C24.707 81.6984 25.5624 78.8634 26.684 76.0856C27.414 74.2837 28.2576 72.53 29.2009 70.8326C31.1967 67.2328 33.6406 63.8762 36.377 60.8096C46.1685 49.84 59.5442 41.5728 73.6006 37.3635C73.6135 37.3599 73.6269 37.354 73.6369 37.3519C79.6407 35.557 85.9346 34.6263 92.2046 34.8659C98.6369 35.1088 105.62 36.4737 110.599 40.8425C110.974 41.1617 111.337 41.5039 111.691 41.88C111.77 41.9592 111.844 42.0417 111.919 42.1233C111.927 42.1315 111.935 42.1419 111.944 42.15C111.953 42.1596 111.961 42.1714 111.973 42.1794C112.009 42.2185 112.047 42.2582 112.086 42.2993C112.102 42.3178 112.118 42.3328 112.134 42.3514C112.116 42.3026 112.098 42.2566 112.082 42.2061C111.77 41.3288 111.386 40.4775 110.94 39.6648C110.876 39.5484 110.811 39.4329 110.745 39.3182C110.256 38.4717 109.699 37.6613 109.085 36.8947C109.002 36.7933 108.921 36.6925 108.836 36.5927C108.65 36.3737 108.457 36.1529 108.254 35.9378C105.674 33.1744 102.269 31.2581 98.6676 30.1215C95.0634 28.9808 91.2575 28.589 87.4778 28.5755C73.4321 28.5255 59.418 33.9228 47.832 41.6324C42.7437 45.0196 38.0286 48.9787 33.8917 53.4807C26.9058 61.09 19.8803 71.235 20.7137 82.0807C21.0493 86.4423 22.631 89.967 25.0221 92.7352Z" fill="#F5BB3F"/>
<path d="M32.1421 60.8989L32.1623 60.9339C32.2676 61.1099 32.3674 61.2892 32.4728 61.4653C32.9223 62.2374 37.2791 69.7319 37.4128 69.9569C37.7068 70.4662 38.241 70.6968 38.7177 71.0055C39.4757 71.4912 40.2345 71.9784 40.9955 72.4661C41.341 72.6864 41.685 72.9075 42.0293 73.1322L44.1568 67.9417L32.4982 61.2379C32.3418 61.1511 32.224 61.0344 32.1421 60.8989Z" fill="#E0E0E0"/>
<path d="M78.4361 59.6934C79.3428 61.2574 83.7921 68.9056 83.7937 68.9084C83.7872 68.8972 98.7932 56.2582 99.3013 55.8362C99.926 55.3188 100.731 54.5482 100.503 53.6463C100.48 53.5608 100.447 53.481 100.406 53.411L95.0507 44.2025C95.0919 44.2739 95.1219 44.3517 95.1435 44.4343C95.1651 44.517 95.1753 44.6025 95.1741 44.6909C95.1777 44.9556 95.087 45.2411 94.922 45.5304C94.7529 45.8257 94.4972 46.1226 94.1742 46.3968L78.4361 59.6934Z" fill="#E0E0E0"/>
<path d="M38.046 83.8996L43.4063 93.1129L43.4192 93.1353C43.7958 93.7424 44.7355 93.7222 45.3418 93.5606C46.1804 93.3394 64.2929 82.6304 64.7569 82.355L59.401 73.1428L59.3982 73.1445L41.1017 83.887C40.2363 84.3978 39.2887 84.5756 38.6341 84.3529C38.3628 84.2577 38.1631 84.1025 38.046 83.8996Z" fill="#E0E0E0"/>
<path d="M74.9744 75.6967C75.6908 75.742 76.3835 75.6592 77.0773 75.281C77.8364 74.867 78.8145 73.9796 78.7912 73.0379L78.4355 59.6947L83.7936 68.9074C83.7936 68.9074 84.1501 82.239 84.1494 82.2506C84.176 83.2725 83.0784 84.1953 82.2421 84.5886C80.8492 85.2454 79.3208 84.7791 77.8784 84.5393C76.3476 84.2852 74.8173 84.0289 73.2865 83.7748C71.662 83.5039 70.0383 83.2344 68.4138 82.9635C67.3339 82.783 66.2527 82.6032 65.1736 82.4241C65.0355 82.4013 64.8951 82.3778 64.7569 82.355L59.3988 73.1423C60.007 73.2426 60.6146 73.3451 61.2228 73.4454C62.6426 73.6815 64.0631 73.919 65.4829 74.1552C67.111 74.4259 68.7391 74.6965 70.368 74.9686C71.5998 75.1733 72.8317 75.3781 74.0644 75.5842C74.3722 75.6359 74.6757 75.677 74.9744 75.6967Z" fill="#EBEBEB"/>
<path d="M38.0455 83.8988C38.1626 84.1017 38.3615 84.2555 38.6342 84.3499C39.2897 84.574 40.2365 84.3948 41.1018 83.884L59.3983 73.1414L59.4011 73.1398L74.9711 75.733C75.7102 75.8565 76.6784 75.5755 77.4942 74.9982C77.9588 74.6721 78.3152 74.291 78.5373 73.9034C78.7091 73.6065 78.7978 73.311 78.7914 73.0349L78.4342 59.6924L78.437 59.6908L94.1734 46.3914C94.4964 46.1172 94.7522 45.8203 94.9212 45.525C95.0862 45.2357 95.1769 44.9502 95.1734 44.6855C95.1732 44.5979 95.1644 44.5116 95.1428 44.4289C95.1211 44.3463 95.0911 44.2685 95.0499 44.1971C94.8068 43.776 94.2304 43.579 93.4778 43.6777L74.9629 46.1743L69.1135 35.3611C68.8395 34.8478 68.0991 34.6671 67.1893 34.8846C66.2832 35.1018 65.3906 35.6787 64.8634 36.3842L53.7812 51.2702L34.4284 57.8956C33.5099 58.2077 32.6841 58.8486 32.2681 59.5626C31.9732 60.0761 31.9353 60.5531 32.142 60.8983C32.224 61.0338 32.3425 61.1519 32.499 61.2387L44.1576 67.9425L42.03 73.133L38.0486 82.8412C37.8799 83.2501 37.8831 83.6176 38.0455 83.8988Z" fill="#F8F7F7"/>
</g>
<defs>
<clipPath id="clip0_414_14647">
<rect width="140" height="140" fill="white"/>
</clipPath>
</defs>
</svg>
