<svg width="72" height="24" viewBox="0 0 72 24" fill="none" xmlns="http://www.w3.org/2000/svg">
<path d="M1 24V20.0681C1 13.3722 2.76678 6.79473 6.12195 1V1M7.82927 9.84615L6.12195 1M6.12195 1L7.09433 9.06112C7.3887 11.5015 10.3839 12.5066 12.0908 10.7378V10.7378C12.6406 10.168 13.3985 9.84615 14.1904 9.84615H14.4456C15.6424 9.84615 16.7572 10.4545 17.4048 11.4611L17.5028 11.6135C18.7266 13.5157 21.3185 13.9585 23.1044 12.5705L24.1864 11.7296C25.4884 10.7177 27.3781 11.0405 28.2704 12.4274L30.872 16.4713C31.6248 17.6415 33.439 17.1083 33.439 15.7169V15.7169C33.439 15.3557 33.5792 15.0086 33.83 14.7487L35.9355 12.5668C37.6133 10.8282 39.9257 9.84615 42.3419 9.84615H45.3902H49.6585H53.3452C54.2861 9.84615 55.2109 10.0894 56.03 10.5524L60.317 12.9756C62.0388 13.9488 64.1707 12.7049 64.1707 10.7271V10.7271C64.1707 10.156 64.3601 9.60092 64.7091 9.14881L64.8825 8.92422C66.8731 6.34573 71 7.7534 71 11.0109V20.4615" stroke="#1ED15E" stroke-width="2"/>
</svg>
