<svg width="72" height="24" viewBox="0 0 72 24" fill="none" xmlns="http://www.w3.org/2000/svg">
<path d="M1 1L5.87128 4.88708C7.6493 6.30587 9.24078 7.94381 10.6078 9.7619V9.7619M8.54902 15.7857L10.6078 9.7619M10.6078 9.7619L11.6008 12.6671C12.0148 13.8783 13.6644 14.0342 14.2979 12.922V12.922C14.9566 11.7657 16.6863 11.9917 17.0258 13.2784L18.3746 18.3908C18.6693 19.5079 19.476 20.4192 20.549 20.8473L21.0862 21.0616C22.285 21.5399 23.626 21.5146 24.8059 20.9916L26.651 20.1736C28.0592 19.5493 29.7111 20.1016 30.4606 21.4474V21.4474C31.2502 22.865 33.0293 23.3899 34.4619 22.6277L36.0832 21.7652C37.3079 21.1137 38.0983 19.8647 38.1626 18.4789L38.4277 12.7677C38.5249 10.6717 41.2663 9.95221 42.3804 11.7302L42.8748 12.5193C43.6661 13.7821 45.5785 13.5143 45.9925 12.0828V12.0828C46.3926 10.6992 48.2122 10.3869 49.0508 11.5579L52.6481 16.5812C53.8376 18.2422 56.3536 18.0912 57.3358 16.2998L57.6025 15.8133C58.595 14.0031 61.2302 14.1095 62.0735 15.9938V15.9938C62.7589 17.5251 64.7288 17.9591 65.9942 16.8575L71 12.5" stroke="#1ED15E" stroke-width="2"/>
</svg>
