<svg width="73" height="23" viewBox="0 0 73 23" fill="none" xmlns="http://www.w3.org/2000/svg">
<path d="M2.37305 0.782043L1.5914 0.158321L0.967679 0.939967L1.74933 1.56369L2.37305 0.782043ZM7.24432 4.66912L7.86804 3.88748L7.24432 4.66912ZM3.62049 -0.78125L4.24421 -1.5629L3.46257 -2.18662L2.83884 -1.40497L3.62049 -0.78125ZM8.49177 3.10583L9.11549 2.32418L8.49177 3.10583ZM13.4039 8.16132L14.0049 8.96058L14.8041 8.3596L14.2031 7.56034L13.4039 8.16132ZM11.8053 9.36328L11.0061 9.96426L11.6071 10.7635L12.4063 10.1625L11.8053 9.36328ZM12.1315 8.92401L11.8081 7.97775L10.8618 8.30116L11.1852 9.24742L12.1315 8.92401ZM13.1244 11.8292L12.1782 12.1526H12.1782L13.1244 11.8292ZM13.0777 8.60059L14.024 8.27718L13.7006 7.33092L12.7543 7.65434L13.0777 8.60059ZM14.0707 11.5058L15.0169 11.1824L14.0707 11.5058ZM15.8603 11.6749L14.9913 11.1799L15.8603 11.6749ZM19.506 12.1512L20.4729 11.8961V11.8961L19.506 12.1512ZM20.8548 17.2637L19.8879 17.5188L20.8548 17.2637ZM22.731 19.3833L23.1016 18.4545L23.1016 18.4545L22.731 19.3833ZM23.2682 19.5976L22.8977 20.5264H22.8977L23.2682 19.5976ZM26.6 19.5349L26.1948 18.6207L26.6 19.5349ZM28.4451 18.7169L28.0399 17.8027L28.4451 18.7169ZM32.8942 20.2045L32.0205 20.691L32.8942 20.2045ZM36.2239 21.1867L35.7542 20.3038L36.2239 21.1867ZM37.8452 20.3242L37.3755 19.4414L37.3755 19.4414L37.8452 20.3242ZM39.6599 17.4562L40.6588 17.5025V17.5025L39.6599 17.4562ZM39.925 11.7449L40.9239 11.7913V11.7913L39.925 11.7449ZM44.8009 10.4651L43.9535 10.9961V10.9961L44.8009 10.4651ZM45.2953 11.2542L46.1427 10.7232V10.7232L45.2953 11.2542ZM47.5089 10.9443L46.5483 10.6665V10.6665L47.5089 10.9443ZM51.4541 10.2672L52.2671 9.68495V9.68495L51.4541 10.2672ZM55.0514 15.2905L54.2384 15.8727L55.0514 15.2905ZM58.8942 15.0598L59.771 15.5405L59.771 15.5405L58.8942 15.0598ZM59.1609 14.5733L58.284 14.0926L58.284 14.0926L59.1609 14.5733ZM64.5267 14.7899L63.6139 15.1984V15.1984L64.5267 14.7899ZM67.6627 15.4808L67.0061 14.7266V14.7266L67.6627 15.4808ZM72.6685 11.1233L73.4227 10.4667L72.7662 9.71243L72.0119 10.369L72.6685 11.1233ZM73.3251 11.8775L73.9816 12.6318L74.7359 11.9752L74.0793 11.2209L73.3251 11.8775ZM68.3193 16.2351L68.9759 16.9893V16.9893L68.3193 16.2351ZM63.6139 15.1984L64.5267 14.7899V14.7899L63.6139 15.1984ZM60.0377 15.0541L59.1609 14.5733L59.1609 14.5733L60.0377 15.0541ZM59.771 15.5405L60.6479 16.0213L60.6479 16.0213L59.771 15.5405ZM54.2384 15.8727L53.4253 16.4549V16.4549L54.2384 15.8727ZM50.6411 10.8494L49.8281 11.4316V11.4316L50.6411 10.8494ZM48.4695 11.2221L49.4302 11.4999V11.4999L48.4695 11.2221ZM44.4479 11.7852L45.2953 11.2542V11.2542L44.4479 11.7852ZM43.9535 10.9961L43.1061 11.5271V11.5271L43.9535 10.9961ZM40.9239 11.7913L41.9228 11.8376V11.8376L40.9239 11.7913ZM40.6588 17.5025L39.6599 17.4562V17.4562L40.6588 17.5025ZM38.3148 21.2071L37.8452 20.3242V20.3242L38.3148 21.2071ZM36.6935 22.0695L36.2239 21.1867L36.6935 22.0695ZM32.0205 20.691L31.1469 21.1776V21.1776L32.0205 20.691ZM28.8504 19.6311L28.4451 18.7169L28.8504 19.6311ZM27.0053 20.4491L26.6 19.5349L27.0053 20.4491ZM22.8977 20.5264L23.2682 19.5976L22.8977 20.5264ZM22.3605 20.3121L21.9899 21.2409L22.3605 20.3121ZM19.8879 17.5188L18.921 17.7739L19.8879 17.5188ZM18.5391 12.4064L17.5722 12.6615L18.5391 12.4064ZM16.7292 12.1699L15.8603 11.6749V11.6749L16.7292 12.1699ZM1.74933 1.56369L6.6206 5.45077L7.86804 3.88748L2.99677 0.000396371L1.74933 1.56369ZM2.83884 -1.40497L1.5914 0.158321L3.15469 1.40576L4.40214 -0.157528L2.83884 -1.40497ZM9.11549 2.32418L4.24421 -1.5629L2.99677 0.000396371L7.86804 3.88748L9.11549 2.32418ZM14.2031 7.56034C12.7347 5.60748 11.0253 3.84814 9.11549 2.32418L7.86804 3.88748C9.64607 5.30627 11.2375 6.9442 12.6046 8.7623L14.2031 7.56034ZM12.4063 10.1625L14.0049 8.96058L12.8029 7.36206L11.2044 8.56402L12.4063 10.1625ZM6.6206 5.45077C8.26684 6.7644 9.74035 8.28092 11.0061 9.96426L12.6046 8.7623C11.2375 6.9442 9.64607 5.30627 7.86804 3.88748L6.6206 5.45077ZM11.1852 9.24742L12.1782 12.1526L14.0707 11.5058L13.0777 8.60059L11.1852 9.24742ZM12.7543 7.65434L11.8081 7.97775L12.4549 9.87027L13.4012 9.54685L12.7543 7.65434ZM15.0169 11.1824L14.024 8.27718L12.1315 8.92401L13.1244 11.8292L15.0169 11.1824ZM14.9913 11.1799C14.9879 11.186 14.987 11.1857 14.9903 11.1827C14.9933 11.1798 14.9972 11.1771 15.0011 11.1752C15.0048 11.1734 15.007 11.173 15.0074 11.1729C15.0075 11.1729 15.0066 11.173 15.0049 11.1729C15.0032 11.1727 15.0023 11.1724 15.0025 11.1725C15.0028 11.1726 15.005 11.1734 15.0082 11.1759C15.0117 11.1785 15.015 11.1819 15.0175 11.1853C15.0201 11.1889 15.0192 11.1889 15.0169 11.1824L13.1244 11.8292C13.6777 13.448 15.8824 13.6564 16.7292 12.1699L14.9913 11.1799ZM20.4729 11.8961C19.7908 9.31055 16.3149 8.85641 14.9913 11.1799L16.7292 12.1699C17.1662 11.4027 18.3139 11.5526 18.5391 12.4064L20.4729 11.8961ZM21.8218 17.0086L20.4729 11.8961L18.5391 12.4063L19.8879 17.5188L21.8218 17.0086ZM23.1016 18.4545C22.47 18.2025 21.9952 17.6661 21.8218 17.0086L19.8879 17.5188C20.2231 18.789 21.1403 19.8252 22.3605 20.3121L23.1016 18.4545ZM23.6388 18.6688L23.1016 18.4545L22.3605 20.3121L22.8977 20.5264L23.6388 18.6688ZM26.1948 18.6207C25.384 18.9801 24.4625 18.9974 23.6388 18.6688L22.8977 20.5264C24.2215 21.0546 25.7023 21.0267 27.0053 20.4491L26.1948 18.6207ZM28.0399 17.8027L26.1948 18.6207L27.0053 20.4491L28.8504 19.6311L28.0399 17.8027ZM33.7678 19.7179C32.6408 17.6945 30.1572 16.8641 28.0399 17.8027L28.8504 19.6311C30.0222 19.1116 31.3968 19.5712 32.0205 20.691L33.7678 19.7179ZM35.7542 20.3038C35.043 20.6822 34.1598 20.4217 33.7678 19.7179L32.0205 20.691C32.9427 22.3467 35.0204 22.9596 36.6935 22.0695L35.7542 20.3038ZM37.3755 19.4414L35.7542 20.3038L36.6935 22.0695L38.3148 21.2071L37.3755 19.4414ZM38.661 17.4098C38.6212 18.2664 38.1326 19.0386 37.3755 19.4414L38.3148 21.2071C39.6954 20.4726 40.5863 19.0646 40.6588 17.5025L38.661 17.4098ZM38.926 11.6985L38.661 17.4098L40.6588 17.5025L40.9239 11.7913L38.926 11.6985ZM45.6483 9.93415C43.7536 6.9104 39.0915 8.13406 38.926 11.6985L40.9239 11.7913C40.9985 10.1848 43.0996 9.63334 43.9535 10.9961L45.6483 9.93415ZM46.1427 10.7232L45.6483 9.93415L43.9535 10.9961L44.4479 11.7852L46.1427 10.7232ZM46.5483 10.6665C46.4944 10.8527 46.2456 10.8875 46.1427 10.7232L44.4479 11.7852C45.4686 13.4141 47.9355 13.0687 48.4695 11.2221L46.5483 10.6665ZM52.2671 9.68495C50.6991 7.49526 47.2965 8.07922 46.5483 10.6665L48.4695 11.2221C48.7537 10.2397 50.0457 10.0179 50.6411 10.8494L52.2671 9.68495ZM55.8644 14.7083L52.2671 9.68495L50.6411 10.8494L54.2384 15.8727L55.8644 14.7083ZM58.0173 14.579C57.5662 15.4017 56.4107 15.4711 55.8644 14.7083L54.2384 15.8727C55.6422 17.8331 58.6118 17.6548 59.771 15.5405L58.0173 14.579ZM58.284 14.0926L58.0173 14.579L59.771 15.5405L60.0377 15.0541L58.284 14.0926ZM65.4394 14.3814C64.0897 11.3658 59.8724 11.1955 58.284 14.0926L60.0377 15.0541C60.8316 13.6062 62.9393 13.6913 63.6139 15.1984L65.4394 14.3814ZM67.0061 14.7266C66.5005 15.1667 65.7133 14.9933 65.4394 14.3814L63.6139 15.1984C64.4365 17.0362 66.8006 17.5571 68.3193 16.2351L67.0061 14.7266ZM72.0119 10.369L67.0061 14.7266L68.3193 16.2351L73.3251 11.8775L72.0119 10.369ZM74.0793 11.2209L73.4227 10.4667L71.9142 11.7799L72.5708 12.5341L74.0793 11.2209ZM68.9759 16.9893L73.9816 12.6318L72.6685 11.1233L67.6627 15.4808L68.9759 16.9893ZM62.7012 15.607C63.798 18.0577 66.9507 18.7522 68.9759 16.9893L67.6627 15.4808C66.6505 16.3619 65.0749 16.0148 64.5267 14.7899L62.7012 15.607ZM60.9146 15.5348C61.3112 14.8115 62.3642 14.854 62.7012 15.607L64.5267 14.7899C63.5145 12.5285 60.352 12.4008 59.1609 14.5733L60.9146 15.5348ZM60.6479 16.0213L60.9146 15.5348L59.1609 14.5733L58.8942 15.0598L60.6479 16.0213ZM53.4253 16.4549C55.258 19.0141 59.1346 18.7814 60.6479 16.0213L58.8942 15.0598C58.089 16.5283 56.0265 16.6521 55.0514 15.2905L53.4253 16.4549ZM49.8281 11.4316L53.4253 16.4549L55.0514 15.2905L51.4541 10.2672L49.8281 11.4316ZM49.4302 11.4999C49.4822 11.3199 49.719 11.2793 49.8281 11.4316L51.4541 10.2672C50.3724 8.75659 48.0251 9.15945 47.5089 10.9443L49.4302 11.4999ZM43.6005 12.3162C45.0801 14.6774 48.656 14.1767 49.4302 11.4999L47.5089 10.9443C47.215 11.9607 45.8571 12.1508 45.2953 11.2542L43.6005 12.3162ZM43.1061 11.5271L43.6005 12.3162L45.2953 11.2542L44.8009 10.4651L43.1061 11.5271ZM41.9228 11.8376C41.9519 11.2102 42.7726 10.9948 43.1061 11.5271L44.8009 10.4651C43.4266 8.27187 40.045 9.15945 39.925 11.7449L41.9228 11.8376ZM41.6577 17.5489L41.9228 11.8376L39.925 11.7449L39.6599 17.4562L41.6577 17.5489ZM38.7845 22.0899C40.4768 21.1897 41.5689 19.4637 41.6577 17.5489L39.6599 17.4562C39.6037 18.6655 38.914 19.7556 37.8452 20.3242L38.7845 22.0899ZM37.1632 22.9524L38.7845 22.0899L37.8452 20.3242L36.2239 21.1867L37.1632 22.9524ZM31.1469 21.1776C32.3341 23.3092 35.0091 24.0983 37.1632 22.9524L36.2239 21.1867C35.0317 21.8209 33.5512 21.3842 32.8942 20.2045L31.1469 21.1776ZM29.2557 20.5453C29.9548 20.2354 30.7748 20.5096 31.1469 21.1776L32.8942 20.2045C32.0188 18.6329 30.0897 17.9879 28.4451 18.7169L29.2557 20.5453ZM27.4106 21.3633L29.2557 20.5453L28.4451 18.7169L26.6 19.5349L27.4106 21.3633ZM22.5271 21.4552C24.1009 22.0831 25.8615 22.05 27.4106 21.3633L26.6 19.5349C25.5432 20.0034 24.342 20.026 23.2682 19.5976L22.5271 21.4552ZM21.9899 21.2409L22.5271 21.4552L23.2682 19.5976L22.731 19.3833L21.9899 21.2409ZM18.921 17.7739C19.337 19.3505 20.4755 20.6366 21.9899 21.2409L22.731 19.3833C21.8052 19.0139 21.1091 18.2275 20.8548 17.2637L18.921 17.7739ZM17.5722 12.6615L18.921 17.7739L20.8548 17.2637L19.506 12.1512L17.5722 12.6615ZM17.5981 12.6648C17.6022 12.6576 17.6033 12.6578 17.5997 12.6612C17.5963 12.6643 17.5918 12.6673 17.5874 12.6694C17.5833 12.6713 17.5808 12.6717 17.5806 12.6717C17.5806 12.6717 17.5819 12.6716 17.584 12.6718C17.5861 12.6721 17.5874 12.6726 17.5873 12.6726C17.5871 12.6725 17.5849 12.6715 17.5814 12.6686C17.5776 12.6654 17.5741 12.6614 17.5716 12.6575C17.5689 12.6533 17.5701 12.6534 17.5722 12.6615L19.506 12.1512C19.0523 10.4316 16.7406 10.1295 15.8603 11.6749L17.5981 12.6648ZM12.1782 12.1526C13.01 14.5865 16.3249 14.8998 17.5981 12.6648L15.8603 11.6749C15.4399 12.4129 14.3454 12.3094 14.0707 11.5058L12.1782 12.1526Z" fill="#FD443A"/>
</svg>
