<svg width="72" height="17" viewBox="0 0 72 17" fill="none" xmlns="http://www.w3.org/2000/svg">
<path d="M1 12.5854L5.4192 2.3858C6.05633 0.915291 8.03527 0.663109 9.02083 1.92683V1.92683M10.1146 5.0122L9.02083 1.92683M9.02083 1.92683L10.0702 4.88706C10.5216 6.16031 12.2539 6.32796 12.941 5.16491V5.16491C13.6564 3.95406 15.4757 4.19796 15.8469 5.55448L17.3629 11.0947C17.6255 12.0543 18.2344 12.8825 19.0719 13.4195L19.4454 13.6589C21.0998 14.7196 23.2121 14.7522 24.8984 13.7432L27.836 11.9854C28.4075 11.6434 28.879 11.1571 29.2031 10.5753L30.8819 7.56159C31.7644 5.97749 34.0898 6.12628 34.7632 7.80992V7.80992C35.6438 10.0118 38.9167 9.3816 38.9167 7.01014V5.3442C38.9167 3.17721 41.7379 2.34098 42.9188 4.15795L43.7 5.36003C44.4021 6.44031 46.047 6.20439 46.4172 4.97033V4.97033C46.8292 3.59693 48.7426 3.51398 49.2719 4.84658L52.5719 13.1554C53.6344 15.8307 57.4564 15.7267 58.3718 12.9975L59.0501 10.9756C59.8061 8.72179 63.0171 8.78995 63.6768 11.0738V11.0738C64.081 12.4729 65.6189 13.2024 66.9581 12.63L71 10.9024" stroke="#EA3035" stroke-width="2"/>
</svg>
