<svg width="72" height="24" viewBox="0 0 72 24" fill="none" xmlns="http://www.w3.org/2000/svg">
<path d="M71 23L64.6398 17.9248C63.8504 17.2949 63.1439 16.5678 62.537 15.7606L61.6481 14.5785C61.4785 14.353 61.3457 14.1021 61.2544 13.8351L60.3992 11.3329C59.9852 10.1217 58.3356 9.96578 57.7021 11.078V11.078C57.0434 12.2343 55.3137 12.0083 54.9742 10.7216L53.6254 5.60916C53.3307 4.49213 52.524 3.58085 51.451 3.15274L50.9138 2.93841C49.715 2.46011 48.374 2.48536 47.1941 3.00844L45.349 3.82639C43.9408 4.45066 42.2889 3.89835 41.5394 2.55265V2.55265C40.7498 1.13497 38.9707 0.610144 37.5381 1.37227L35.9168 2.23475C34.6921 2.88626 33.9017 4.13534 33.8374 5.52105L33.5723 11.2323C33.4751 13.3283 30.7337 14.0478 29.6196 12.2698L29.1252 11.4807C28.3339 10.2179 26.4215 10.4857 26.0075 11.9172V11.9172C25.6074 13.3008 23.7878 13.6131 22.9492 12.4421L19.3519 7.41878C18.1624 5.75777 15.6464 5.90884 14.6642 7.70025L14.3975 8.18668C13.405 9.99689 10.7698 9.89052 9.92648 8.00621V8.00621C9.24111 6.4749 7.2712 6.04092 6.00579 7.14246L1 11.5" stroke="#EA3035" stroke-width="2"/>
</svg>
