<svg width="140" height="140" viewBox="0 0 140 140" fill="none" xmlns="http://www.w3.org/2000/svg">
<g clip-path="url(#clip0_414_14668)">
<path d="M115.426 53.5237C109.382 81.0438 82.3002 109.248 54.9388 116.517C41.1718 120.176 29.9571 117.837 22.9825 111.103L30.251 118.121C37.2256 124.855 48.4404 127.194 62.2096 123.535C89.5711 116.266 116.651 88.063 122.697 60.5417C125.7 46.8706 122.947 35.94 116.06 29.2918L108.792 22.2737C115.676 28.922 118.43 39.8526 115.426 53.5237Z" fill="#4477C5"/>
<path d="M76.8315 16.8597C104.193 9.59002 121.473 26.0051 115.429 53.5241C109.385 81.0442 82.3033 109.248 54.9419 116.518C27.5804 123.787 10.3018 107.371 16.3463 79.851C22.3908 52.3331 49.4701 24.1294 76.8315 16.8597Z" fill="#3C7EE2"/>
<path d="M102.678 32.2982C106.448 37.7835 107.351 45.5472 105.194 54.6115C102.628 65.3748 96.0542 76.6797 86.6785 86.4435C77.3061 96.2084 66.2524 103.261 55.5587 106.305C46.4127 108.908 38.4697 108.311 32.7655 104.669C32.7205 104.604 32.6766 104.54 32.6349 104.474C32.6289 104.462 32.6206 104.449 32.6135 104.438C32.6075 104.428 32.5992 104.418 32.5933 104.408C32.2501 103.892 31.9386 103.364 31.6577 102.824C28.5787 96.9595 28.8896 89.851 30.1622 83.5411C31.401 77.3886 33.7809 71.4898 36.9339 66.0744C36.9394 66.064 36.9471 66.0535 36.9537 66.042C44.3424 53.3649 55.5162 42.3013 68.4764 35.3559C72.1004 33.4139 75.9355 31.8266 79.9029 30.7308C81.7742 30.212 83.6769 29.8032 85.5997 29.5162C88.5631 29.0775 91.5186 28.912 94.4926 29.3506C96.0054 29.5743 97.4999 29.9346 98.938 30.4596C99.3912 30.6254 100.126 30.8515 100.835 31.1423C101.615 31.4564 102.364 31.8433 102.678 32.2982Z" fill="#3C7EE2"/>
<path d="M102.678 32.2982C106.448 37.7835 107.351 45.5472 105.194 54.6115C102.628 65.3748 96.0542 76.6797 86.6785 86.4435C77.3061 96.2084 66.2524 103.261 55.5587 106.305C46.4127 108.908 38.4697 108.311 32.7655 104.669C32.7205 104.604 32.6766 104.54 32.6349 104.474C32.6289 104.462 32.6206 104.449 32.6135 104.438C32.6075 104.428 32.5992 104.418 32.5933 104.408C32.2501 103.892 31.9386 103.364 31.6577 102.824C28.5787 96.9595 28.8896 89.851 30.1622 83.5411C31.401 77.3886 33.7809 71.4898 36.9339 66.0744C36.9394 66.064 36.9471 66.0535 36.9537 66.042C44.3424 53.3649 55.5162 42.3013 68.4764 35.3559C72.1004 33.4139 75.9355 31.8266 79.9029 30.7308C81.7742 30.212 83.6769 29.8032 85.5997 29.5162C88.5631 29.0775 91.5186 28.912 94.4926 29.3506C96.0054 29.5743 97.4999 29.9346 98.938 30.4596C99.3912 30.6254 100.126 30.8515 100.835 31.1423C101.615 31.4564 102.364 31.8433 102.678 32.2982Z" fill="#4477C5" fill-opacity="0.6"/>
<path d="M102.173 31.8063C101.808 31.5435 101.336 31.3268 100.833 31.1428C100.126 30.8532 99.3909 30.6271 98.9365 30.4602C97.4984 29.9351 96.0039 29.5749 94.491 29.3511C91.5182 28.9114 88.5616 29.078 85.5981 29.5168C83.6753 29.8038 81.7727 30.2125 79.9014 30.7314C75.934 31.8272 72.0977 33.4157 68.4749 35.3565C55.5147 42.3019 44.3409 53.3655 36.9521 66.0426C36.9456 66.0541 36.9367 66.0658 36.9324 66.075C33.7794 71.4904 31.3984 77.3904 30.1607 83.5417C28.8881 89.8515 28.5771 96.9601 31.6562 102.825C31.8786 103.264 32.126 103.698 32.4088 104.129C32.4672 104.225 32.53 104.316 32.5917 104.408C32.5977 104.418 32.606 104.428 32.6119 104.438C32.6191 104.45 32.6285 104.461 32.6334 104.475C32.6631 104.518 32.6928 104.564 32.7237 104.612C32.7379 104.632 32.7487 104.651 32.7629 104.671C32.7199 104.641 32.6792 104.614 32.6339 104.586C31.8544 104.077 31.1167 103.505 30.4315 102.88C30.3332 102.791 30.2361 102.701 30.1402 102.609C29.4319 101.936 28.7748 101.204 28.1737 100.427C28.0946 100.323 28.0155 100.221 27.9385 100.114C27.7693 99.8816 27.5999 99.6425 27.4383 99.3951C25.3572 96.2386 24.2929 92.4795 24.0328 88.7116C23.7692 84.9405 24.281 81.1488 25.1544 77.4714C28.4001 63.8057 36.9339 51.4485 47.1459 41.9939C51.6321 37.8421 56.5867 34.1871 61.9333 31.2215C70.9689 26.2152 82.4787 21.7652 92.8264 25.1192C96.9876 26.4684 100.043 28.8327 102.173 31.8063Z" fill="#4477C5"/>
<path d="M50.7255 58.9318C51.5548 59.7396 52.3809 60.5507 53.2068 61.3554C54.1815 62.3079 55.1529 63.2572 56.1308 64.2064C56.4943 64.5649 56.1995 65.2385 56.094 65.6471C55.781 66.8887 51.4061 84.106 51.0024 85.6811C50.6562 87.0502 50.4875 88.7089 48.9253 89.214C47.5275 89.6718 46.0954 90.0335 44.6836 90.4399C43.4266 90.8027 42.1663 91.1688 40.9061 91.5349C40.5612 91.633 40.2879 91.583 40.1195 91.4229L34.7108 86.1386C34.734 86.1606 34.7569 86.1761 34.7799 86.1916C34.9508 86.3096 35.1976 86.3344 35.4941 86.2475L43.5487 83.9158C44.2321 83.7197 44.928 83.0013 45.1026 82.3151L50.8569 59.6864C50.9353 59.3857 50.8949 59.1438 50.7717 58.9757C50.7683 58.9661 50.765 58.963 50.7584 58.9567C50.7421 58.9539 50.7354 58.9412 50.7255 58.9318Z" fill="#E6E6E6"/>
<path d="M50.7156 58.9227C50.7288 58.9353 50.7388 58.9512 50.7521 58.9638C50.7618 58.9667 50.762 58.9732 50.7654 58.9828C50.8918 59.1475 50.9289 59.3928 50.8505 59.6935L45.0994 82.3188C44.9248 83.005 44.2289 83.7235 43.5456 83.9195L35.4941 86.2479C35.1976 86.3348 34.9508 86.31 34.7799 86.192C34.7569 86.1765 34.734 86.161 34.7108 86.139C34.5424 85.9788 34.482 85.7051 34.5693 85.362L40.3237 62.7398C40.4983 62.0536 41.1942 61.3351 41.8776 61.1391L49.9322 58.8074C50.2771 58.7092 50.5504 58.7592 50.7156 58.9227Z" fill="#FEFFFF"/>
<path d="M81.0581 43.4606C81.1484 43.9344 81.132 44.4278 81.083 44.9091C80.9663 46.0766 80.6675 47.2108 80.3687 48.345L80.2011 48.3956L77.7128 49.1138L72.9812 50.4845C72.6428 50.5824 72.4661 50.3317 72.6409 49.9827C73.6763 47.8889 74.2544 45.7799 74.7603 43.7932C75.0371 42.6953 75.405 41.4423 75.5897 40.2759C75.7774 39.0932 75.7757 38.0039 75.295 37.2859C75.225 37.1875 75.1551 37.0892 75.0724 37.0042C75.046 36.979 75.0227 36.9506 74.993 36.9223C75.3762 37.2931 77.7466 39.5159 79.0251 40.7574C79.8045 41.4986 80.8454 42.3551 81.0581 43.4606Z" fill="#E6E6E6"/>
<path d="M54.3845 79.0519L59.7965 84.3392C59.7238 84.2701 59.61 84.2509 59.4681 84.2877L54.0146 85.8686C53.8695 85.9087 53.7557 85.8895 53.6831 85.8204L48.2711 80.533C48.2876 80.5487 48.3073 80.561 48.3269 80.5734C48.3269 80.5734 48.3269 80.5734 48.3302 80.5765C48.3695 80.5948 48.4118 80.6032 48.4636 80.6016C48.5058 80.6036 48.551 80.5957 48.5994 80.5845L54.0627 79.0066C54.2012 78.9602 54.3118 78.9828 54.3845 79.0519Z" fill="#E6E6E6"/>
<path d="M86.3281 46.6219L80.3685 48.3447L80.2009 48.3953L77.7126 49.1135L72.981 50.4842C72.6426 50.5821 72.4659 50.3314 72.6407 49.9824C73.6761 47.8886 74.2542 45.7796 74.7601 43.7928C75.0369 42.695 75.4048 41.4419 75.5896 40.2756C75.7772 39.0929 75.7755 38.0036 75.2948 37.2856C75.2248 37.1872 75.1549 37.0888 75.0722 37.0038C75.0458 36.9787 75.0225 36.9502 74.9928 36.922C74.4245 36.3688 73.5609 36.1262 72.4586 36.4453C69.4127 37.3266 68.1675 40.4675 67.2634 42.9788C66.2118 45.9095 65.3329 48.8837 63.4232 51.857C62.083 53.9406 60.4447 55.8681 58.3087 57.2013C56.6627 58.2309 55.4461 59.0075 53.7916 59.7683C53.5346 59.8864 53.3063 60.1463 53.2431 60.3979L48.212 80.2096C48.1398 80.4971 48.3148 80.6636 48.5984 80.5771L54.0552 78.9994C54.2228 78.9488 54.3532 78.9902 54.4168 79.0953C54.5272 79.2702 54.6534 79.4284 54.7956 79.57L54.822 79.5951C56.5161 81.2064 59.2782 79.9026 61.2057 79.3442C63.0364 78.8147 64.8704 78.2819 66.7011 77.7523C66.8139 77.7197 66.9236 77.6904 67.0331 77.6546L73.2022 75.8703L75.6454 75.1664C78.1434 74.4446 80.7077 71.8013 81.3429 69.2951C81.5054 68.6482 81.5073 68.0775 81.3718 67.6115C81.3196 67.4283 81.4406 67.149 81.6667 66.9443C82.7816 65.9374 83.8085 64.0709 84.1306 62.7998L84.263 62.277C84.4287 61.6267 84.4274 61.0593 84.2887 60.5967C84.2365 60.4135 84.3575 60.1342 84.5837 59.9295C85.6986 58.9227 86.5838 57.6084 86.9059 56.3373L87.0384 55.8144C87.204 55.1642 87.2027 54.5968 87.0641 54.1342C87.0119 53.951 87.1329 53.6717 87.359 53.467C88.4739 52.4601 89.3591 51.1458 89.6844 49.8714C89.9645 48.7702 89.8175 47.8799 89.3651 47.2842C89.3317 47.2334 89.2918 47.1827 89.2487 47.1289C89.232 47.1067 89.2155 47.091 89.1924 47.069C89.1923 47.0625 89.1857 47.0563 89.1823 47.0531C88.5968 46.4453 87.5883 46.2558 86.3281 46.6219Z" fill="#FEFFFF"/>
<path d="M94.2869 51.8771C94.9907 52.5656 95.3475 53.4138 95.2446 54.4545C95.087 56.0156 94.1271 57.4943 92.9937 58.5471C92.8154 58.7147 92.6242 58.8826 92.5542 59.115C92.4994 59.2982 92.5291 59.4919 92.5458 59.6859C92.6543 60.7622 92.3774 61.8601 91.8743 62.8255C91.4869 63.5701 90.9716 64.244 90.3935 64.8519C90.1648 65.0923 89.8127 65.3171 89.7448 65.6596C89.6882 65.9175 89.794 66.1898 89.8022 66.4457C89.8127 66.8182 89.7715 67.1988 89.6976 67.5675C89.5499 68.3047 89.2621 69.0106 88.9251 69.6824C88.488 70.5387 87.9725 71.3651 87.2987 72.0537C86.9936 72.3613 86.7959 72.5295 86.8047 72.9831C86.8111 73.3136 86.9178 73.6313 86.8853 73.963C86.8254 74.5485 86.6322 75.1153 86.3833 75.6481C85.9228 76.6414 85.276 77.5464 84.5034 78.319C83.489 79.326 82.231 80.1395 80.861 80.5284C80.1196 80.7392 79.3783 80.9565 78.637 81.1737L72.4679 82.9581L63.9748 85.4135C62.3343 85.8886 61.02 85.6436 60.2271 84.8703L54.8415 79.608C55.5156 80.2682 56.5428 80.4248 57.4552 80.3384C58.733 80.2117 60.0165 79.7087 61.251 79.3499C62.4307 79.0089 63.6039 78.6682 64.7836 78.3272C65.541 78.1062 66.2985 77.8917 67.0591 77.6674L73.2282 75.883L75.6714 75.1791C78.1694 74.4573 80.7337 71.8141 81.3689 69.3078C81.5314 68.6609 81.5332 68.0902 81.3978 67.6242C81.3456 67.441 81.4666 67.1617 81.6927 66.957C82.8076 65.9502 83.8345 64.0836 84.1566 62.8125L84.289 62.2897C84.4547 61.6394 84.4534 61.0721 84.3147 60.6094C84.2625 60.4262 84.3835 60.1469 84.6097 59.9422C85.7245 58.9354 86.6098 57.6211 86.9319 56.35L87.0644 55.8272C87.23 55.1769 87.2287 54.6096 87.09 54.1469C87.0379 53.9637 87.1588 53.6844 87.385 53.4797C88.4999 52.4729 89.3851 51.1586 89.7104 49.8841C90.0235 48.649 89.81 47.6699 89.2215 47.0784C89.2214 47.0719 89.2148 47.0657 89.2115 47.0625C89.4065 47.2543 89.6079 47.4459 89.8061 47.6344C91.2888 49.0446 92.81 50.4343 94.2869 51.8771Z" fill="#E6E6E6"/>
</g>
<defs>
<clipPath id="clip0_414_14668">
<rect width="140" height="140" fill="white"/>
</clipPath>
</defs>
</svg>
