<svg width="54" height="54" viewBox="0 0 54 54" fill="none" xmlns="http://www.w3.org/2000/svg">
<g clip-path="url(#clip0_434_5597)">
<rect width="54" height="54" rx="27" fill="black"/>
<path d="M25.3728 24.3181C24.6737 24.6134 24.1132 25.0533 23.6973 25.644C23.2815 26.2346 23.0705 26.9458 23.0705 27.7835C23.0705 28.8563 23.5225 29.6819 24.4205 30.2665C25.2703 30.815 26.1623 30.9536 27.0964 30.6763C28.1752 30.3629 28.9045 29.5975 29.2902 28.3801C29.471 27.8196 29.5614 27.1929 29.5614 26.4938V23.4683C28.802 23.4924 28.0908 23.5647 27.4219 23.6913C26.7529 23.8179 26.0719 24.0288 25.3728 24.3181ZM27 0C12.0897 0 0 12.0897 0 27C0 41.9103 12.0897 54 27 54C41.9103 54 54 41.9103 54 27C54 12.0897 41.9103 0 27 0ZM29.1576 15.8324C28.7237 15.1754 27.9462 14.844 26.8252 14.844C26.7469 14.844 26.6444 14.85 26.5058 14.8621C26.3732 14.8741 26.108 14.9525 25.7283 15.085C25.347 15.2215 24.9845 15.4058 24.6496 15.6335C24.3181 15.8625 23.9565 16.2362 23.5647 16.7424C23.179 17.2547 22.8717 17.8513 22.6426 18.5384L16.9775 18.0321C16.9775 17.2848 17.1221 16.5435 17.3993 15.8083C17.6826 15.073 18.1105 14.3679 18.6891 13.6989C19.2676 13.0239 19.9607 12.4333 20.7683 11.927C21.5759 11.4147 22.5522 11.0109 23.6853 10.7036C24.8243 10.3962 26.0417 10.2455 27.3556 10.2455C28.6393 10.2455 29.8025 10.4022 30.8391 10.7096C31.8757 11.023 32.7134 11.4027 33.3342 11.8607C33.9323 12.2922 34.459 12.8149 34.8951 13.4096C35.3109 13.9882 35.6002 14.5246 35.7629 15.0188C35.9257 15.5129 36.004 15.965 36.004 16.3929V27.3917C36.004 27.7775 36.0884 28.1752 36.2632 28.585C36.4379 28.9949 36.6429 29.3565 36.8779 29.6699C37.1129 29.9833 37.354 30.2665 37.6011 30.5317C37.8482 30.7908 38.0592 30.9958 38.24 31.1283L38.4871 31.3333L34.1176 35.5158C33.6054 35.0518 33.0991 34.5877 32.5989 34.1056C32.0987 33.6234 31.725 33.2618 31.4839 33.0147L31.1163 32.6411C30.9717 32.5025 30.815 32.2975 30.6342 32.0263C30.146 32.7616 29.5192 33.4004 28.7598 33.9429C27.9944 34.4853 27.1748 34.883 26.3069 35.1301C25.433 35.3772 24.535 35.5219 23.6129 35.558C22.6908 35.5942 21.8049 35.4676 20.9672 35.1663C20.1295 34.865 19.3701 34.4612 18.7011 33.9429C18.0321 33.4246 17.5018 32.7254 17.104 31.8335C16.7062 30.9415 16.5074 29.935 16.5074 28.796C16.5074 27.7473 16.6882 26.7891 17.0437 25.9212C17.4054 25.0473 17.8634 24.3241 18.4299 23.7455C18.9964 23.167 19.6775 22.6487 20.479 22.1967C21.2806 21.7446 22.0701 21.3891 22.8415 21.1299C23.6129 20.8768 24.4446 20.6598 25.3426 20.485C26.2406 20.3103 27.006 20.1958 27.6449 20.1415C28.2837 20.0873 28.9225 20.0451 29.5614 20.021V17.6464C29.5614 16.8328 29.4228 16.2301 29.1576 15.8324ZM40.0359 38.71C39.8672 38.9089 39.5839 39.1801 39.1862 39.5237C38.7884 39.8672 38.1737 40.2891 37.348 40.7953C36.5223 41.3016 35.6123 41.7596 34.6359 42.1754C33.6536 42.5913 32.4482 42.9529 31.0138 43.2603C29.5855 43.5676 28.1089 43.7183 26.5962 43.7183C25.0654 43.7183 23.5406 43.5254 22.0098 43.1397C20.479 42.754 19.1411 42.2779 17.9839 41.7114C16.8328 41.1449 15.7179 40.494 14.6632 39.7708C13.6025 39.0415 12.7527 38.3906 12.1078 37.8121C11.469 37.2335 10.9266 36.685 10.4926 36.1788C10.3902 36.0643 10.3239 35.9618 10.2998 35.8714C10.2757 35.781 10.2817 35.7027 10.3179 35.6484C10.354 35.5942 10.4083 35.552 10.4746 35.5158C10.5466 35.4839 10.6257 35.4715 10.704 35.48C10.7823 35.4885 10.857 35.5175 10.9205 35.5641C13.3855 37.0225 15.3141 38.0531 16.7002 38.6618C21.6964 40.8556 26.8252 41.4161 32.0866 40.3433C34.5275 39.8431 37.0346 39.0054 39.6141 37.8241C39.8069 37.7518 39.9757 37.7337 40.1143 37.7699C40.2529 37.806 40.3252 37.9145 40.3252 38.0953C40.3252 38.2641 40.2288 38.475 40.0359 38.71ZM43.646 36.9623C43.5375 37.6312 43.3507 38.2641 43.0975 38.8788C42.6636 39.9094 42.1152 40.6868 41.4643 41.1931C41.2473 41.3679 41.0786 41.4221 40.9641 41.3618C40.8496 41.3016 40.8496 41.1509 40.9641 40.9159C41.2353 40.3554 41.5185 39.602 41.8199 38.6438C42.1212 37.6915 42.1634 37.0768 41.9464 36.8056C41.8801 36.7152 41.7837 36.6489 41.6451 36.5886C41.5125 36.5344 41.3377 36.4982 41.1268 36.4741C40.9159 36.45 40.723 36.438 40.5603 36.4259C40.3915 36.4138 40.1685 36.4138 39.8853 36.4259C39.602 36.438 39.4031 36.45 39.2766 36.4621C38.9333 36.4956 38.5898 36.5257 38.246 36.5525C38.1676 36.5645 38.0833 36.5766 37.9989 36.5826C37.9085 36.5886 37.8362 36.5946 37.7879 36.6007L37.6252 36.6187C37.565 36.6248 37.5228 36.6308 37.4926 36.6308H37.2998L37.2395 36.6187L37.2033 36.5886L37.1732 36.5344C37.0949 36.3355 37.3962 36.0884 38.0772 35.7871C38.7583 35.4857 39.4212 35.2989 40.06 35.2266C40.6507 35.1362 41.3438 35.1362 42.1393 35.2085C42.9348 35.2808 43.423 35.4315 43.6038 35.6545C43.7424 35.8654 43.7545 36.2993 43.646 36.9623Z" fill="white"/>
</g>
<defs>
<clipPath id="clip0_434_5597">
<rect width="54" height="54" rx="27" fill="white"/>
</clipPath>
</defs>
</svg>
