<svg width="54" height="54" viewBox="0 0 54 54" fill="none" xmlns="http://www.w3.org/2000/svg">
<g clip-path="url(#clip0_434_5633)">
<path d="M0 0H53.9798V53.9798H0V0Z" fill="#EA3035"/>
<path d="M22.1285 32.3968C20.5657 31.3832 18.4447 31.2053 15.0242 32.1608C11.3777 33.0235 10.1619 33.5766 8.5652 32.4663C7.95179 31.921 7.73187 31.0428 7.89609 29.778C8.27698 27.716 9.3063 25.7317 11.1346 23.5306C12.1552 22.3856 13.1018 21.403 14.3518 21.0084C15.3098 20.7609 15.2203 21.5189 15.1044 21.6273C14.982 21.6273 14.7765 21.6467 14.6177 21.751C14.4888 21.8517 14.135 22.1767 14.116 22.6138C14.0886 23.283 14.7765 23.1437 15.0732 22.7763C15.3929 22.3622 15.8656 21.5694 15.4938 20.8304C15.338 20.5674 15.0688 20.3856 14.7345 20.3237C13.5899 20.2579 12.5239 20.8072 11.5401 21.4146C9.38851 22.9194 7.6674 25.0045 6.69352 27.2869C6.13203 28.6639 5.62425 30.6366 6.3854 32.2421C6.97419 33.3561 8.1966 33.9479 9.655 33.8241C10.6779 33.7159 11.9147 33.3831 12.7466 33.1821C13.5784 32.9809 17.8367 31.5071 19.2358 34.072C19.2358 34.072 19.7011 33.1627 20.8638 33.1433C21.8197 33.0545 23.1987 33.422 24.203 34.1645C23.8684 33.658 22.9198 32.9114 22.1285 32.3968Z" fill="white"/>
<path d="M15.4576 23.7903C14.6611 23.2642 13.0604 24.27 11.7783 25.9952C10.6059 27.5427 10.0996 29.3413 10.6505 30.173C11.4701 31.1517 12.9916 29.7282 13.6386 28.9662L13.7221 28.8772C14.1621 28.4013 14.502 27.8288 14.831 27.2794C14.831 27.2794 15.1334 26.7766 15.1479 26.7533C15.3348 26.7186 15.5599 26.6644 15.8136 26.5909C15.8099 26.6024 14.843 28.2388 14.9416 29.051C14.9723 29.2988 14.9489 30.204 15.8267 30.4786C16.9966 30.676 17.9308 29.7629 18.7549 28.9506C18.7549 28.9506 18.8954 28.8153 18.9748 28.7381C18.9547 28.8191 18.9285 28.9272 18.9285 28.9272C18.586 30.1264 19.0477 30.378 19.3365 30.4709C20.2093 30.7264 21.252 29.4497 21.2553 29.4497C21.2283 29.8518 21.1492 30.1845 21.5703 30.4515C21.9677 30.5947 22.3699 30.3764 22.6756 30.1713C23.7768 29.3899 24.664 28.167 25.3805 27.1098H24.9235C24.9181 27.1098 23.7956 28.7478 23.0668 29.1038C23.0656 29.1038 22.933 29.1723 22.8566 29.1181C22.7619 29.0368 22.7993 28.8679 22.8577 28.7482C22.8614 28.7404 25.6719 23.8327 25.6719 23.8327H24.3449C24.3449 23.8327 24.1999 24.0688 24.1881 24.0843C24.1792 24.0765 24.1579 24.0359 24.1432 24.0165C23.321 22.8715 21.4592 24.6327 20.0575 26.6751C19.5179 27.4605 18.8308 28.3447 18.1184 28.983C18.1184 28.983 17.063 29.957 16.612 29.2572C16.4471 28.9632 16.4978 28.5333 16.5908 28.251C17.1159 26.7462 18.0206 25.3805 19.0501 24.5564C19.3408 24.3284 19.6567 24.2624 19.8134 24.3591C19.9628 24.4482 19.9869 24.6685 19.8924 24.8195C19.6526 24.8117 19.4605 24.8851 19.3043 25.0476C18.9967 25.3726 18.8898 25.6859 18.9876 25.98C19.4628 26.6608 20.4105 25.3146 20.3646 24.4945C20.3483 24.2004 20.1924 23.922 19.9599 23.7865C19.6134 23.5777 19.0847 23.6317 18.7425 23.7982C18.2845 23.9722 17.5595 24.5795 17.1363 25.0515C16.6035 25.6434 15.6898 26.301 15.4041 26.2274C15.4977 25.9758 16.2695 24.386 15.4576 23.7903ZM21.8553 26.1423C22.1134 25.7826 22.8647 24.8193 23.0479 24.6569C23.6639 24.1112 23.9102 24.3513 23.9315 24.5214C23.3566 25.5581 22.678 26.7457 22.04 27.8135C22.0413 27.8096 21.8404 28.119 21.8404 28.119C21.5586 28.5522 21.2749 28.9236 20.8121 29.1827C20.7461 29.2022 20.6373 29.2099 20.5649 29.1556C20.4778 29.0976 20.4434 29.0008 20.4532 28.9002C20.4809 28.5676 20.8173 27.5504 21.8553 26.1423ZM14.6362 26.765C14.6362 26.765 14.6247 26.8 14.619 26.8114C14.6175 26.8114 14.0404 27.759 14.0404 27.759C13.6921 28.2272 13.2573 28.8153 12.7137 29.0976C12.5526 29.1518 12.3299 29.1866 12.2164 29.0436C11.9757 28.7534 12.0998 28.3511 12.2005 28.0262L12.2361 27.9101C12.525 27.1211 12.9833 26.4246 13.4294 25.7786C13.435 25.7748 13.4475 25.7709 13.452 25.7709C13.453 25.7748 13.4548 25.7748 13.4556 25.7826C13.7355 26.324 14.2604 26.5754 14.653 26.6916C14.6554 26.6916 14.6579 26.6955 14.6579 26.7032C14.6579 26.7148 14.6515 26.7304 14.6362 26.765ZM15.183 25.6472C15.1805 25.6549 14.9259 26.2429 14.9259 26.2429C14.8891 26.2738 14.831 26.2583 14.7643 26.2429L14.65 26.2234C14.2913 26.1113 14.0207 25.8714 13.9373 25.5852C13.8222 25.0281 14.2949 24.591 14.5032 24.4325C14.703 24.2931 15.0136 24.2196 15.194 24.3628C15.3053 24.4944 15.3474 24.6645 15.3474 24.8503C15.3475 25.1017 15.2704 25.3841 15.183 25.6472Z" fill="white"/>
<path d="M31.96 27.4417C31.832 27.1632 31.5283 26.9853 31.2046 27.0046C30.1533 27.1014 29.1251 27.9717 28.5853 29.2211C28.302 29.8633 28.1474 30.3932 28.046 31.2365C28.3729 30.8575 29.0396 30.2347 29.7962 29.8943C29.7962 29.8943 29.8992 29.0858 30.4242 28.3663C30.6229 28.0683 31.0204 27.5887 31.4668 27.7163C31.8569 27.8479 31.7198 28.9349 31.2014 29.9869C30.8178 30.7607 30.2309 31.5346 29.637 32.0683C29.112 32.517 28.3351 33.0585 27.6554 32.6408C27.2274 32.3856 27.009 31.8516 27.0552 31.1631C27.2597 29.2096 28.1429 27.5462 29.4068 25.6507C30.7101 23.8906 32.1467 22.0841 34.082 21.1208C34.4768 20.9196 34.8423 20.8732 35.1583 20.997C35.1583 20.997 33.3416 22.0028 32.4756 23.8635C32.2553 24.3355 31.949 24.9736 32.2575 25.5385C32.4187 25.8324 32.705 25.8557 32.9355 25.8402C33.997 25.5925 34.6828 24.5945 35.2431 23.6817C35.568 22.9893 35.8567 22.3007 35.8567 21.5347C35.8567 21.4419 35.852 21.3182 35.8441 21.2253C36.3513 20.9546 37.3912 21.4341 37.3912 21.4341C38.2039 21.705 39.9342 23.0397 40.5179 23.2949C40.8026 22.9623 41.2705 22.4594 41.534 22.2079L41.1526 21.9719C40.542 21.5967 39.8966 21.2407 39.2614 20.8888C37.8187 20.0958 36.6445 20.3743 36.0468 20.591C35.8119 20.676 35.5972 20.7495 35.5972 20.7495C35.1537 20.2621 34.4263 20.3084 33.8904 20.4401C31.9629 20.9971 30.1733 22.3548 28.2547 24.7107C26.8441 26.556 25.9691 28.1498 25.5028 29.7241C25.1433 30.784 25.0341 32.343 25.9114 33.2675C26.6574 34.0526 27.6466 33.8825 28.3451 33.6002C29.8585 32.8498 31.2187 31.2327 31.8965 29.372C32.06 28.8189 32.2416 28.0375 31.96 27.4417ZM35.44 21.6122C35.2397 23.9255 33.4537 25.2834 33.0118 25.3915C32.744 25.4456 32.287 25.3258 32.6949 24.3549C33.2957 23.0473 34.3213 21.9372 35.4218 21.3685C35.4486 21.4652 35.4479 21.527 35.44 21.6122Z" fill="white"/>
<path d="M46.0335 21.9062C45.0728 22.4556 44.0769 22.8114 42.8713 22.6876C42.5372 23.0668 42.2119 23.4575 41.9121 23.8597C43.6041 24.293 45.398 23.3298 46.3983 22.4131C47.4566 21.4885 47.9993 20.3242 47.9993 20.3242C47.9993 20.3242 47.2061 21.2371 46.0335 21.9062Z" fill="white"/>
<path d="M27.1662 24.9949L27.8773 23.832H26.6171L25.9062 24.9949H27.1662Z" fill="white"/>
<path d="M42.8669 32.5037C42.7314 32.5966 42.541 32.5252 42.6122 32.3125C42.7895 31.7709 43.4943 30.6673 43.4943 30.6673L45.4576 27.1615H44.1128C44.0489 27.2672 43.9122 27.5099 43.9122 27.5099C43.85 27.4056 43.6639 27.1736 43.5873 27.1234C43.2588 26.9144 42.7767 27.0132 42.4442 27.2027C40.9984 28.0539 39.9435 29.7356 39.1116 31.047C39.1116 31.047 38.2358 32.5048 37.7497 32.6132C37.3701 32.6442 37.4093 32.1295 37.4257 32.0095C37.5725 31.1429 37.9133 30.319 38.2566 29.5724C38.9549 29.085 39.7519 28.4467 40.4761 27.7466C42.0479 26.2339 43.3729 24.5202 43.5666 24.1373C43.5666 24.1373 43.3569 24.1799 43.1094 24.1875C41.9002 25.8857 39.4258 28.3539 38.6756 28.7213C39.0079 27.9165 41.155 24.0753 42.9822 22.2379L43.2697 21.9593C43.7143 21.5222 44.175 21.0734 44.534 20.9999C44.5719 20.9961 44.6207 20.9999 44.6629 21.089C44.6789 21.4294 44.5531 21.6809 44.4087 21.9671L44.2063 22.3849C44.2063 22.3849 44.4929 22.3308 44.6812 22.2687C44.8996 21.855 45.1414 21.3906 45.0523 20.8376C45.0225 20.6596 44.8946 20.5243 44.7274 20.4933C44.1823 20.3888 43.5883 20.7949 43.1103 21.1238L43.091 21.1353C40.6339 23.0734 38.5591 25.8664 36.7452 29.6806C36.6137 29.7811 36.1058 29.9011 36.0194 29.843C36.1986 29.4717 36.4241 28.9726 36.537 28.431C36.5565 28.2763 36.5747 28.1177 36.5747 27.963C36.5747 27.6301 36.4953 27.3169 36.199 27.1003C35.8517 26.9262 35.4224 27.0075 35.133 27.1389C33.8363 27.6805 32.8672 29.0191 32.1679 30.1214C31.7918 30.8218 31.4168 31.5719 31.3129 32.4308C31.2398 33.1038 31.3887 33.5371 31.7688 33.7538C32.1596 33.9548 32.6515 33.7458 32.8448 33.6454C34.1584 32.9491 35.0762 31.5527 35.7997 30.276C35.8285 30.2722 36.2235 30.2607 36.5223 30.1832C36.5263 30.1832 36.5279 30.1832 36.5346 30.1873C36.5174 30.245 36.363 30.7094 36.363 30.7094C35.9045 32.0632 35.6925 32.984 36.1256 33.5293C36.7445 34.2992 37.7691 33.5024 38.6027 32.45C38.4238 33.7111 39.0729 33.9084 39.5678 33.8118C40.1362 33.6572 40.7696 33.0458 41.0635 32.7326C40.9691 33.1 40.9948 33.7577 41.5119 33.8234C41.8663 33.8894 42.1315 33.6953 42.4385 33.5289C43.5393 32.9253 44.8571 30.9143 45.1993 30.3328H44.7507C44.2643 31.0729 43.6454 32.0432 42.8669 32.5037ZM32.9854 32.3691C32.9156 32.2646 32.8924 32.1504 32.8901 32.0269C32.8767 31.2684 33.6873 29.91 34.2594 29.17C34.2606 29.17 34.2606 29.17 34.2606 29.17C34.5004 29.6986 35.0433 30.0384 35.3711 30.1816C34.964 31.0946 33.5679 33.0499 32.9854 32.3691ZM35.6008 29.7734C35.562 29.8006 34.8774 29.5684 34.7451 28.9302C34.6328 28.3807 35.0087 27.9513 35.3723 27.7348C35.5284 27.611 35.7635 27.5686 35.936 27.6302C36.096 27.7387 36.1394 27.9322 36.1394 28.1408C36.1394 28.2687 36.1225 28.4001 36.1077 28.52C36.1077 28.52 36.1048 28.5433 36.1044 28.5472C35.9903 28.9764 35.8157 29.3981 35.6008 29.7734ZM41.0921 32.1254C41.0916 32.1254 40.9623 32.2414 40.9623 32.2414C40.7776 32.4077 40.5875 32.5856 40.3581 32.4966C40.2947 32.4734 40.2501 32.3884 40.2394 32.3224C40.229 31.8466 40.4418 31.4057 40.6482 30.9764L40.7011 30.8642C41.2948 29.8662 41.9849 28.6902 42.9983 27.8741C43.1691 27.75 43.3544 27.6458 43.55 27.7271C43.595 27.7695 43.6474 27.8431 43.6474 27.9165C43.6474 27.9398 43.6269 28.0017 43.615 28.0209C43.332 28.4815 43.0624 28.9649 42.8003 29.4291C42.288 30.346 41.7565 31.2936 41.0921 32.1254Z" fill="white"/>
</g>
<defs>
<clipPath id="clip0_434_5633">
<rect width="54" height="54" rx="27" fill="white"/>
</clipPath>
</defs>
</svg>
