<svg width="54" height="54" viewBox="0 0 54 54" fill="none" xmlns="http://www.w3.org/2000/svg">
<g clip-path="url(#clip0_434_5609)">
<path d="M0 0H53.9798V53.9798H0V0Z" fill="white"/>
<path d="M43.6693 23.6706H42.3V23.6H27V30.4H36.6076C35.2059 34.3584 31.4396 37.2 27 37.2C21.3671 37.2 16.8 32.6329 16.8 27C16.8 21.3671 21.3671 16.8 27 16.8C29.6002 16.8 31.9657 17.7809 33.7669 19.3832L38.5753 14.5747C35.5391 11.7451 31.4778 10 27 10C17.6118 10 10 17.6118 10 27C10 36.3883 17.6118 44 27 44C36.3883 44 44 36.3883 44 27C44 25.8602 43.8827 24.7475 43.6693 23.6706Z" fill="#FFC107"/>
<path d="M11.9609 19.0873L17.5463 23.1835C19.0576 19.4418 22.7177 16.8 27.0008 16.8C29.601 16.8 31.9665 17.7809 33.7677 19.3832L38.5761 14.5747C35.5399 11.7451 31.4786 10 27.0008 10C20.4711 10 14.8084 13.6865 11.9609 19.0873Z" fill="#FF3D00"/>
<path d="M26.9995 43.9994C31.3906 43.9994 35.3805 42.319 38.3971 39.5862L33.1356 35.1339C31.3715 36.4755 29.2158 37.2012 26.9995 37.1994C22.5778 37.1994 18.8233 34.38 17.4089 30.4453L11.8652 34.7166C14.6787 40.222 20.3924 43.9994 26.9995 43.9994Z" fill="#4CAF50"/>
<path d="M43.6693 23.6702H42.3V23.5996H27V30.3996H36.6076C35.9371 32.2836 34.7294 33.9298 33.1336 35.135L33.1361 35.1333L38.3977 39.5856C38.0254 39.9239 44 35.4996 44 26.9996C44 25.8598 43.8827 24.7471 43.6693 23.6702Z" fill="#1976D2"/>
</g>
<defs>
<clipPath id="clip0_434_5609">
<rect width="54" height="54" rx="27" fill="white"/>
</clipPath>
</defs>
</svg>
