<svg width="170" height="170" viewBox="0 0 170 170" fill="none" xmlns="http://www.w3.org/2000/svg">
<g clip-path="url(#clip0_236_2594)">
<path d="M49.59 97.0438L123.99 44.0662L140.389 105.267L140.42 105.381C141.229 107.295 140.69 109.518 138.625 111.59L91.4114 158.943C87.323 163.042 78.7702 164.949 72.3168 163.221C68.8928 162.304 66.7642 160.552 66.1076 158.493L66.0794 158.518L49.6063 97.0394L49.59 97.0438Z" fill="#1ED15E"/>
<path d="M74.9042 97.3341L122.118 49.982C126.207 45.8827 124.298 41.1722 117.845 39.4435C111.391 37.7148 102.839 39.6223 98.7502 43.7216L51.5363 91.0738C47.4478 95.1731 49.3562 99.8835 55.8096 101.612C62.263 103.341 70.8114 101.417 74.9042 97.3341Z" fill="#27BE5D"/>
<path d="M105.273 56.9117C99.7534 58.3906 94.5803 56.9816 93.7183 53.7645C92.8563 50.5474 96.6318 46.7406 102.151 45.2617C107.67 43.7829 112.843 45.1919 113.705 48.409C114.567 51.626 110.792 55.4329 105.273 56.9117Z" fill="#289C51"/>
<path d="M57.8903 89.5812C58.7352 92.7345 63.8292 94.1167 69.2505 92.6641C74.6719 91.2114 78.3923 87.4674 77.5474 84.3142C76.7024 81.1609 71.6085 79.7787 66.1871 81.2313C60.7608 82.6655 57.0405 86.4096 57.8903 89.5812Z" fill="#289C51"/>
<path d="M64.1299 12.6724C77.3298 -0.504634 99.839 5.54921 104.663 23.5543L111.47 48.9571C111.474 48.9734 111.479 48.9897 111.483 49.006C112.147 51.4827 109.246 54.4081 104.993 55.5476C100.74 56.6872 96.7651 55.6042 96.1014 53.1275C96.0927 53.0949 96.084 53.0623 96.0796 53.046L95.9981 53.0678L90.0778 30.9729C88.0345 23.3471 78.5103 20.7821 72.9122 26.3513C66.4208 32.8235 63.8709 42.2737 66.246 51.1378L75.3186 84.9972L75.2372 85.019C75.8062 87.4687 72.9246 90.3365 68.737 91.4586C64.5168 92.5894 60.5624 91.5183 59.8749 89.0829L51.7541 58.7756C47.34 42.3022 52.061 24.7257 64.1299 12.6724Z" fill="#EAEAEA"/>
<path d="M103.446 109.996L106.711 122.184L111.339 117.556L108.073 105.368C109.602 102.338 110.205 98.5268 109.415 95.5776C108.323 91.504 104.998 90.6311 101.996 93.6359C98.9939 96.6408 97.4415 102.383 98.533 106.457C99.3395 109.402 101.3 110.658 103.446 109.996Z" fill="#289C51"/>
</g>
<defs>
<clipPath id="clip0_236_2594">
<rect width="170" height="170" fill="white"/>
</clipPath>
</defs>
</svg>
