<svg width="54" height="54" viewBox="0 0 54 54" fill="none" xmlns="http://www.w3.org/2000/svg">
<g clip-path="url(#clip0_434_5585)">
<path d="M0 0H53.9798V53.9798H0V0Z" fill="#E90001"/>
<path d="M33.1168 15.7765C35.5272 15.7765 37.4825 26.1662 37.4825 39H41C41 25.1837 37.451 14 33.1063 14C30.6248 14 28.4315 17.3503 26.9837 22.6167C25.5358 17.3515 23.3425 14 20.8808 14C16.5362 14 13 25.1742 13 38.9905H16.5163C16.5163 26.1578 18.4507 15.7765 20.861 15.7765C23.2713 15.7765 25.2255 25.3745 25.2255 37.2139H28.722C28.722 25.3745 30.6867 15.7765 33.097 15.7765H33.1168Z" fill="#FFC301"/>
</g>
<defs>
<clipPath id="clip0_434_5585">
<rect width="54" height="54" rx="27" fill="white"/>
</clipPath>
</defs>
</svg>
