<svg width="54" height="54" viewBox="0 0 54 54" fill="none" xmlns="http://www.w3.org/2000/svg">
<rect width="54" height="54" rx="27" fill="#0177F3"/>
<path d="M12.8884 31.1255C12.8884 32.5311 13.1902 33.6104 13.5845 34.2633C14.1015 35.1184 14.8727 35.4807 15.6589 35.4807C16.673 35.4807 17.6006 35.2234 19.3884 32.695C20.8206 30.6684 22.5081 27.8238 23.6436 26.0405L25.5666 23.0192C26.9024 20.921 28.4485 18.5884 30.2212 17.0074C31.6684 15.7169 33.2295 15 34.8007 15C37.4384 15 39.951 16.5631 41.874 19.4948C43.9784 22.7056 45 26.7497 45 30.9232C45 33.4042 44.5218 35.2273 43.708 36.6675C42.9218 38.0603 41.3895 39.4519 38.8118 39.4519V35.4807C41.0189 35.4807 41.5698 33.4068 41.5698 31.0333C41.5698 27.651 40.7986 23.8974 39.0997 21.2154C37.8941 19.313 36.3318 18.1506 34.6129 18.1506C32.7538 18.1506 31.2578 19.5844 29.5764 22.141C28.6826 23.4993 27.7649 25.1546 26.7346 27.0224L25.6004 29.0771C23.3219 33.2084 22.7448 34.1493 21.6055 35.7022C19.6087 38.4214 17.9036 39.4519 15.6589 39.4519C12.9961 39.4519 11.3123 38.2729 10.2694 36.4959C9.41814 35.048 9 33.1482 9 30.9834L12.8884 31.1255Z" fill="white"/>
<path d="M12.0664 19.7752C13.8491 16.9651 16.4218 15 19.3726 15C21.0814 15 22.7803 15.5172 24.5542 16.9984C26.4947 18.6179 28.5629 21.2845 31.1431 25.6795L32.0682 27.2567C34.3016 31.0615 35.5723 33.0189 36.316 33.9419C37.2724 35.1274 37.9422 35.4807 38.8123 35.4807C41.0194 35.4807 41.5702 33.4068 41.5702 31.0333L45.0005 30.9232C45.0005 33.4042 44.5222 35.2273 43.7085 36.6675C42.9223 38.0603 41.39 39.4519 38.8123 39.4519C37.2098 39.4519 35.7902 39.096 34.2203 37.5816C33.0134 36.4191 31.6025 34.3542 30.5171 32.4979L27.2884 26.9827C25.6684 24.2149 24.1824 22.1512 23.3224 21.2167C22.3972 20.2117 21.2079 18.9981 19.31 18.9981C17.7739 18.9981 16.4694 20.1003 15.3777 21.7864L12.0664 19.7752Z" fill="white"/>
<path d="M19.3095 18.9981C17.7734 18.9981 16.4689 20.1003 15.3772 21.7864C13.8336 24.1688 12.8884 27.7176 12.8884 31.1255C12.8884 32.5311 13.1902 33.6104 13.5845 34.2633L10.2694 36.4959C9.41814 35.048 9 33.1482 9 30.9834C9 27.0467 10.0566 22.9437 12.0659 19.7752C13.8487 16.9651 16.4213 15 19.3721 15L19.3095 18.9981Z" fill="white"/>
</svg>
