<svg width="54" height="54" viewBox="0 0 54 54" fill="none" xmlns="http://www.w3.org/2000/svg">
<g clip-path="url(#clip0_434_5561)">
<path d="M0 0H53.9798V53.9798H0V0Z" fill="white"/>
<path d="M29.885 8.7059L29.8708 16.7977L29.8565 24.8894L29.1908 23.011L29.1895 23.0075L28.3293 41.0219C29.1752 43.4106 29.6283 44.6857 29.6333 44.6908C29.6399 44.6975 30.1221 44.7266 30.7045 44.7555C32.4692 44.8431 34.6562 45.0306 36.3152 45.2369C36.6993 45.2846 37.0298 45.309 37.0499 45.2911C37.0697 45.2734 37.0805 37.0344 37.0739 26.9824L37.0617 8.7059H29.885ZM16.9043 8.68164V26.9767C16.9043 37.039 16.9142 45.2816 16.9262 45.2936C16.9383 45.3057 17.5614 45.2468 18.311 45.1629C19.0605 45.0789 20.0966 44.9745 20.6132 44.9308C21.4055 44.864 23.7709 44.7119 24.0447 44.7102C24.1245 44.7098 24.1295 44.2989 24.1411 36.9614L24.1534 29.2128L24.7256 30.8322L24.9281 31.4045L25.7881 13.3944L25.4926 12.5591C25.0512 11.3106 24.6094 10.0623 24.1673 8.81411L24.1198 8.68164H16.9043Z" fill="#B1060F" stroke="white" stroke-width="0.623531"/>
<path d="M16.9043 8.68164V18.9511L24.1386 38.1414C24.1395 37.7016 24.1403 37.4641 24.1411 36.9614L24.1534 29.2128L24.7256 30.8322C27.9116 39.8472 29.6232 44.6807 29.6333 44.6908C29.6399 44.6975 30.1221 44.7266 30.7045 44.7555C32.4692 44.8431 34.6562 45.0306 36.3152 45.2369C36.6993 45.2846 37.0298 45.309 37.0499 45.2911C37.0634 45.2789 37.0725 41.239 37.0748 35.5401L29.8742 14.8387L29.8708 16.7977L29.8565 24.8894L29.1908 23.011C28.5402 21.1757 28.1059 19.9482 25.4926 12.5591C25.0512 11.3106 24.6094 10.0623 24.1673 8.81411L24.1198 8.68164H16.9043Z" fill="url(#paint0_radial_434_5561)"/>
<path d="M16.9043 8.68164L24.1532 29.2221V29.2128L24.7254 30.8322C27.9114 39.8472 29.623 44.6807 29.6331 44.6908C29.6396 44.6975 30.1219 44.7266 30.7043 44.7555C32.469 44.8431 34.656 45.0306 36.315 45.2369C36.6972 45.2844 37.0258 45.3086 37.049 45.2913L29.8561 24.8859V24.8894L29.1904 23.011C28.5398 21.1757 28.1055 19.9482 25.4922 12.5591C24.7894 10.5721 24.193 8.88709 24.1669 8.81411L24.1194 8.68164H16.9043Z" fill="#E50914"/>
<path d="M29.885 8.7059L29.8708 16.7977L29.8565 24.8894L29.1908 23.011L29.1895 23.0075L28.3293 41.0219C29.1752 43.4106 29.6283 44.6857 29.6333 44.6908C29.6399 44.6975 30.1221 44.7266 30.7045 44.7555C32.4692 44.8431 34.6562 45.0306 36.3152 45.2369C36.6993 45.2846 37.0298 45.309 37.0499 45.2911C37.0697 45.2734 37.0805 37.0344 37.0739 26.9824L37.0617 8.7059H29.885ZM16.9043 8.68164V26.9767C16.9043 37.039 16.9142 45.2816 16.9262 45.2936C16.9383 45.3057 17.5614 45.2468 18.311 45.1629C19.0605 45.0789 20.0966 44.9745 20.6132 44.9308C21.4055 44.864 23.7709 44.7119 24.0447 44.7102C24.1245 44.7098 24.1295 44.2989 24.1411 36.9614L24.1534 29.2128L24.7256 30.8322L24.9281 31.4045L25.7881 13.3944L25.4926 12.5591C25.0512 11.3106 24.6094 10.0623 24.1673 8.81411L24.1198 8.68164H16.9043Z" fill="#B1060F" stroke="white" stroke-width="0.623531"/>
<path d="M16.9043 8.68164L24.1532 29.2221V29.2128L24.7254 30.8322C27.9114 39.8472 29.623 44.6807 29.6331 44.6908C29.6396 44.6975 30.1219 44.7266 30.7043 44.7555C32.469 44.8431 34.656 45.0306 36.315 45.2369C36.6972 45.2844 37.0258 45.3086 37.049 45.2913L29.8561 24.8859V24.8894L29.1904 23.011C28.5398 21.1757 28.1055 19.9482 25.4922 12.5591C24.7894 10.5721 24.193 8.88709 24.1669 8.81411L24.1194 8.68164H16.9043Z" fill="#E50914"/>
</g>
<defs>
<radialGradient id="paint0_radial_434_5561" cx="0" cy="0" r="1" gradientUnits="userSpaceOnUse" gradientTransform="translate(26.6547 14.7973) scale(14.2077 14.2078)">
<stop/>
<stop offset="1" stop-opacity="0"/>
</radialGradient>
<clipPath id="clip0_434_5561">
<rect width="54" height="54" rx="27" fill="white"/>
</clipPath>
</defs>
</svg>
