<svg width="56" height="72" viewBox="0 0 56 72" fill="none" xmlns="http://www.w3.org/2000/svg">
<g clip-path="url(#clip0_609_6733)">
<path d="M35.7825 0C16.0209 0 0 16.0483 0 35.8443C0 55.6412 16.0209 71.6882 35.7825 71.6882C55.5463 71.6882 71.5655 55.6412 71.5655 35.8443C71.5655 16.0497 55.5463 0.0018 35.7821 0.0018L35.7825 0ZM52.1925 51.6978C52.0398 51.9485 51.8392 52.1665 51.6023 52.3394C51.3654 52.5123 51.0967 52.6368 50.8117 52.7056C50.5268 52.7744 50.231 52.7862 49.9415 52.7404C49.6519 52.6945 49.3742 52.592 49.1243 52.4385C40.723 47.2977 30.1466 46.1335 17.6911 48.9843C17.1144 49.1157 16.5092 49.0123 16.0085 48.6969C15.5078 48.3815 15.1526 47.8798 15.021 47.3022C14.9554 47.0162 14.9468 46.72 14.9956 46.4307C15.0444 46.1413 15.1498 45.8645 15.3056 45.616C15.4614 45.3675 15.6646 45.1522 15.9036 44.9825C16.1426 44.8128 16.4127 44.6919 16.6984 44.6269C30.329 41.5071 42.0208 42.8504 51.4531 48.6248C51.7032 48.7778 51.9207 48.9788 52.0932 49.2162C52.2657 49.4535 52.3898 49.7226 52.4585 50.0081C52.5271 50.2935 52.5389 50.5897 52.4932 50.8797C52.4475 51.1697 52.3451 51.4479 52.192 51.6983L52.1925 51.6978ZM56.5724 41.9378C55.7642 43.2527 54.0469 43.668 52.7347 42.8589C43.1169 36.9369 28.4549 35.2215 17.0784 38.6811C16.3702 38.8958 15.606 38.8203 14.9533 38.4712C14.3006 38.1221 13.8128 37.5279 13.597 36.819C13.3835 36.1097 13.4594 35.3446 13.8081 34.6913C14.1568 34.038 14.7498 33.5498 15.4572 33.3338C28.4526 29.3836 44.6079 31.2971 55.6533 38.0961C56.965 38.9052 57.3796 40.626 56.5719 41.9382L56.5724 41.9378ZM56.9479 31.7745C45.416 24.9129 26.388 24.282 15.3772 27.63C13.6091 28.1673 11.7394 27.1674 11.204 25.3962C10.9464 24.5453 11.0366 23.6268 11.4548 22.8425C11.8731 22.0583 12.5851 21.4725 13.4343 21.2139C26.074 17.37 47.0862 18.1125 60.3638 26.0087C60.7422 26.2329 61.0727 26.5297 61.3364 26.8821C61.6001 27.2346 61.7919 27.6356 61.9006 28.0624C62.0093 28.4891 62.033 28.9332 61.9701 29.3691C61.9073 29.805 61.7592 30.2242 61.5344 30.6027C60.5947 32.1957 58.535 32.7209 56.9497 31.775H56.9479V31.7745ZM97.3524 33.0894C91.1739 31.6134 90.076 30.5779 90.076 28.4013C90.076 26.3448 92.0072 24.9611 94.8826 24.9611C97.6687 24.9611 100.429 26.0123 103.326 28.1754C103.412 28.2407 103.522 28.2668 103.629 28.2497C103.683 28.242 103.735 28.2233 103.781 28.1949C103.828 28.1665 103.868 28.129 103.899 28.0845L106.915 23.8248C106.975 23.7404 107 23.6364 106.986 23.5339C106.972 23.4315 106.919 23.3384 106.839 23.2736C103.39 20.5029 99.5105 19.1561 94.9725 19.1561C88.3025 19.1561 83.6409 23.166 83.6409 28.904C83.6409 35.0568 87.6614 37.2357 94.6095 38.9174C100.519 40.2813 101.518 41.4239 101.518 43.4669C101.518 45.7313 99.5015 47.1393 96.2545 47.1393C92.6482 47.1393 89.704 45.9198 86.414 43.0686C86.3319 42.9993 86.2264 42.9641 86.1193 42.9705C86.0659 42.9741 86.0137 42.9885 85.966 43.0127C85.9182 43.0369 85.8758 43.0704 85.8412 43.1114L82.4573 47.1434C82.3893 47.2242 82.3553 47.3283 82.3626 47.4338C82.3698 47.5392 82.4176 47.6377 82.4959 47.7085C86.3241 51.133 91.0328 52.9394 96.1175 52.9394C103.305 52.9394 107.95 49.0055 107.95 42.9147C107.962 37.7752 104.89 34.929 97.3655 33.0952L97.3524 33.0894ZM124.212 26.9856C121.097 26.9856 118.542 28.215 116.431 30.7341V27.8991C116.431 27.675 116.252 27.4928 116.03 27.4928H110.496C110.389 27.4933 110.287 27.5364 110.212 27.6125C110.136 27.6886 110.094 27.7915 110.095 27.8987V59.4027C110.095 59.625 110.274 59.8091 110.496 59.8091H116.03C116.137 59.8082 116.239 59.765 116.314 59.6889C116.389 59.6127 116.431 59.5098 116.431 59.4027V49.459C118.542 51.826 121.097 52.9862 124.212 52.9862C130.002 52.9862 135.864 48.5222 135.864 39.9875C135.873 31.451 130.01 26.9852 124.216 26.9852L124.212 26.9856H124.212ZM129.429 39.9875C129.429 44.3313 126.759 47.3661 122.93 47.3661C119.149 47.3661 116.294 44.1945 116.294 39.9875C116.294 35.78 119.149 32.6088 122.93 32.6088C126.695 32.6088 129.429 35.7107 129.429 39.987V39.9875ZM150.884 26.9856C143.427 26.9856 137.586 32.7366 137.586 40.0806C137.586 47.345 143.389 53.0334 150.794 53.0334C158.275 53.0334 164.134 47.3022 164.134 39.9875C164.134 32.6975 158.314 26.987 150.884 26.987V26.9856ZM150.884 47.4089C146.918 47.4089 143.927 44.2157 143.927 39.9852C143.927 35.7354 146.816 32.6511 150.794 32.6511C154.785 32.6511 157.793 35.8429 157.793 40.0779C157.793 44.3273 154.887 47.4089 150.884 47.4089ZM180.055 27.4928H173.966V21.258C173.966 21.0344 173.786 20.8521 173.564 20.8521H168.03C167.923 20.8523 167.82 20.8951 167.744 20.9712C167.668 21.0472 167.625 21.1503 167.624 21.258V27.4928H164.967C164.86 27.4933 164.757 27.5364 164.682 27.6125C164.607 27.6886 164.565 27.7915 164.565 27.8987V32.6615C164.565 32.7686 164.607 32.8716 164.682 32.9478C164.757 33.0239 164.86 33.0671 164.967 33.0678H167.624V45.3933C167.624 50.3712 170.098 52.8966 174.982 52.8966C176.965 52.8966 178.61 52.4853 180.161 51.6038C180.224 51.5693 180.276 51.5185 180.312 51.4567C180.348 51.3949 180.367 51.3244 180.366 51.2528V46.7154C180.366 46.6467 180.348 46.5792 180.314 46.5194C180.281 46.4595 180.232 46.4093 180.174 46.3734C180.116 46.336 180.049 46.3146 179.98 46.3115C179.91 46.3085 179.842 46.3237 179.78 46.3559C178.717 46.8914 177.687 47.1393 176.533 47.1393C174.76 47.1393 173.965 46.3302 173.965 44.5239V33.0705H180.054C180.161 33.0699 180.264 33.0268 180.339 32.9506C180.414 32.8744 180.456 32.7714 180.456 32.6642V27.9014C180.457 27.8482 180.449 27.7953 180.429 27.7457C180.41 27.6961 180.381 27.651 180.344 27.613C180.307 27.575 180.262 27.545 180.213 27.5247C180.164 27.5044 180.112 27.4943 180.059 27.495L180.054 27.4928H180.055ZM201.265 27.517V26.7512C201.265 24.4985 202.128 23.4941 204.059 23.4941C205.214 23.4941 206.141 23.7236 207.179 24.0701C207.24 24.0905 207.305 24.0961 207.368 24.0864C207.432 24.0766 207.492 24.0518 207.544 24.014C207.596 23.9762 207.638 23.9265 207.667 23.8691C207.695 23.8117 207.71 23.7482 207.709 23.684L207.709 19.0143C207.71 18.9271 207.683 18.8419 207.631 18.7716C207.579 18.7014 207.506 18.6499 207.423 18.6251C206.329 18.2984 204.927 17.9636 202.825 17.9636C197.719 17.9636 195.014 20.8458 195.014 26.2958V27.4685H192.356C192.249 27.4687 192.146 27.5115 192.07 27.5875C191.994 27.6636 191.951 27.7667 191.95 27.8744V32.6615C191.95 32.8851 192.134 33.0678 192.356 33.0678H195.014V52.0745C195.014 52.3013 195.198 52.4813 195.42 52.4813H200.949C201.175 52.4813 201.355 52.3013 201.355 52.0745V33.0692H206.521L214.435 52.0745C213.537 54.0693 212.653 54.4671 211.447 54.4671C210.473 54.4671 209.444 54.1764 208.397 53.5986C208.298 53.5483 208.183 53.5375 208.076 53.5685C208.024 53.5862 207.975 53.6148 207.934 53.6524C207.893 53.69 207.86 53.7357 207.837 53.7867L205.961 57.9087C205.918 58.0023 205.912 58.1089 205.945 58.2067C205.977 58.3046 206.046 58.3863 206.137 58.4352C208.093 59.4968 209.858 59.9504 212.042 59.9504C216.126 59.9504 218.387 58.0415 220.374 52.9137L229.971 28.0719C229.996 28.0105 230.005 27.9438 229.997 27.8779C229.99 27.812 229.966 27.7491 229.928 27.6948C229.892 27.6404 229.843 27.5959 229.786 27.5651C229.728 27.5343 229.664 27.5183 229.599 27.5184H223.839C223.755 27.5179 223.672 27.5439 223.603 27.5927C223.534 27.6416 223.482 27.7108 223.454 27.7907L217.553 44.6697L211.093 27.7794C211.064 27.7029 211.012 27.637 210.945 27.5904C210.878 27.5437 210.799 27.5187 210.717 27.5184H201.265V27.517ZM188.968 27.4928H183.434C183.327 27.4932 183.224 27.5361 183.148 27.6121C183.072 27.6881 183.029 27.7911 183.029 27.8987V52.0745C183.029 52.3013 183.213 52.4813 183.434 52.4813H188.968C189.19 52.4813 189.374 52.3013 189.374 52.0745V27.9005C189.374 27.847 189.364 27.794 189.343 27.7446C189.323 27.6952 189.293 27.6503 189.255 27.6126C189.218 27.5748 189.173 27.5449 189.123 27.5245C189.074 27.5042 189.021 27.4939 188.968 27.4941V27.4928ZM186.233 16.484C184.041 16.484 182.264 18.2614 182.264 20.4566C182.264 20.9787 182.366 21.4958 182.566 21.9782C182.765 22.4607 183.058 22.899 183.426 23.2683C183.795 23.6375 184.232 23.9304 184.714 24.1302C185.196 24.33 185.712 24.4328 186.233 24.4328C188.425 24.4328 190.198 22.6535 190.198 20.4566C190.198 19.4031 189.78 18.3929 189.037 17.6479C188.293 16.903 187.285 16.4843 186.233 16.484Z" fill="white"/>
</g>
<defs>
<clipPath id="clip0_609_6733">
<rect width="230" height="72" fill="white"/>
</clipPath>
</defs>
</svg>
