<svg width="87" height="87" viewBox="0 0 87 87" fill="none" xmlns="http://www.w3.org/2000/svg">
<rect width="87" height="87" rx="43.5" fill="white"/>
<mask id="mask0_105_1016" style="mask-type:luminance" maskUnits="userSpaceOnUse" x="0" y="0" width="87" height="87">
<rect width="87" height="87" rx="43.5" fill="white"/>
</mask>
<g mask="url(#mask0_105_1016)">
<path fill-rule="evenodd" clip-rule="evenodd" d="M0 43.5003C0 67.5255 19.4762 87 43.4997 87C67.526 87 87 67.5255 87 43.5003C87 19.4777 67.526 0.00218446 43.4992 0.00218446L43.4997 0C19.4762 0 0 19.4761 0 43.5003ZM62.7313 63.5186C62.4433 63.7284 62.1167 63.8794 61.7703 63.9629C61.4239 64.0464 61.0643 64.0608 60.7123 64.0052C60.3604 63.9495 60.0228 63.8251 59.7189 63.6388C49.5058 57.4 36.6483 55.9872 21.5066 59.4468C20.8054 59.6063 20.0697 59.4809 19.461 59.0981C18.8523 58.7153 18.4206 58.1065 18.2605 57.4055C18.1808 57.0584 18.1703 56.6989 18.2297 56.3478C18.2891 55.9966 18.4171 55.6606 18.6065 55.3591C18.796 55.0575 19.043 54.7962 19.3336 54.5903C19.6241 54.3843 19.9524 54.2377 20.2997 54.1588C36.8701 50.3726 51.0834 52.0027 62.5499 59.0105C62.854 59.1963 63.1184 59.4402 63.3281 59.7282C63.5378 60.0163 63.6887 60.3429 63.7722 60.6893C63.8556 61.0357 63.8699 61.3951 63.8144 61.7471C63.7588 62.0991 63.6349 62.4361 63.4488 62.7399C63.2632 63.0441 63.0194 63.3087 62.7313 63.5186ZM64.108 52.0131C52.4159 44.8262 34.5917 42.7444 20.7617 46.943C19.9008 47.2036 18.9717 47.112 18.1782 46.6883C17.3848 46.2646 16.7918 45.5435 16.5294 44.6832C16.2699 43.8224 16.3622 42.8938 16.7861 42.101C17.21 41.3082 17.9309 40.7157 18.7908 40.4535C34.589 35.6597 54.2284 37.9818 67.656 46.233C69.2506 47.2149 69.7552 49.3027 68.7733 50.8952C67.7909 52.491 65.7031 52.995 64.108 52.0131ZM18.6936 33.5315C16.5441 34.1835 14.2713 32.9701 13.6203 30.8206C13.3072 29.7879 13.4168 28.6732 13.9253 27.7214C14.4337 26.7697 15.2993 26.0587 16.3317 25.745C31.6974 21.0801 57.2413 21.9811 73.3824 31.5638C73.8424 31.836 74.2442 32.1962 74.5648 32.6239C74.8854 33.0516 75.1185 33.5383 75.2507 34.0562C75.3829 34.5741 75.4116 35.113 75.3352 35.642C75.2588 36.171 75.0788 36.6798 74.8055 37.1391C73.6631 39.0724 71.1592 39.7097 69.232 38.5618L69.2299 38.5612C55.2109 30.234 32.0791 29.4684 18.6936 33.5315Z" fill="#1ED760"/>
</g>
</svg>
