<svg width="54" height="54" viewBox="0 0 54 54" fill="none" xmlns="http://www.w3.org/2000/svg">
<g clip-path="url(#clip0_434_5621)">
<rect width="54" height="54" rx="27" fill="white"/>
<path d="M26.9998 0C12.0887 0 0 12.0886 0 27.0002C0 41.9124 12.0887 54 26.9998 54C41.9127 54 54 41.9124 54 27.0002C54 12.0896 41.9127 0.00135587 26.9995 0.00135587L26.9998 0ZM39.382 38.942C39.2668 39.1308 39.1155 39.2951 38.9367 39.4253C38.7579 39.5556 38.5552 39.6493 38.3402 39.7011C38.1251 39.753 37.902 39.7619 37.6835 39.7273C37.465 39.6928 37.2555 39.6156 37.0669 39.5C30.7277 35.6276 22.7472 34.7507 13.3489 36.898C12.9137 36.997 12.4571 36.9192 12.0793 36.6816C11.7015 36.444 11.4334 36.0661 11.3341 35.631C11.2846 35.4155 11.2781 35.1924 11.315 34.9745C11.3518 34.7565 11.4313 34.548 11.5489 34.3608C11.6665 34.1736 11.8198 34.0114 12.0001 33.8836C12.1805 33.7558 12.3843 33.6648 12.5998 33.6158C22.8849 31.2657 31.707 32.2776 38.8241 36.6272C39.0128 36.7425 39.1769 36.8939 39.3071 37.0727C39.4373 37.2515 39.5309 37.4542 39.5827 37.6692C39.6345 37.8842 39.6434 38.1073 39.6089 38.3258C39.5744 38.5442 39.4975 38.7534 39.382 38.942ZM42.6869 31.5901C42.0771 32.5806 40.7812 32.8935 39.7911 32.284C32.534 27.8232 21.4707 26.531 12.8866 29.137C12.3522 29.2988 11.7755 29.2419 11.283 28.9789C10.7906 28.716 10.4225 28.2684 10.2596 27.7344C10.0986 27.2001 10.1558 26.6238 10.419 26.1317C10.6821 25.6396 11.1295 25.2718 11.6633 25.1091C21.469 22.1336 33.659 23.5749 41.9934 28.6964C42.9831 29.3058 43.2963 30.6017 42.6869 31.5901ZM42.9703 23.9345C34.2688 18.766 19.9112 18.2907 11.6029 20.8126C10.2688 21.2174 8.85803 20.4642 8.45399 19.13C8.25961 18.4891 8.3277 17.7972 8.64328 17.2064C8.95887 16.6157 9.49611 16.1744 10.1369 15.9796C19.6742 13.0842 35.5291 13.6435 45.5477 19.5913C45.8332 19.7603 46.0826 19.9839 46.2816 20.2493C46.4806 20.5148 46.6253 20.8169 46.7073 21.1383C46.7894 21.4598 46.8072 21.7943 46.7598 22.1226C46.7124 22.451 46.6007 22.7668 46.431 23.0519C45.7219 24.2518 44.1678 24.6474 42.9716 23.9349L42.9703 23.9345Z" fill="#1ED760"/>
</g>
<defs>
<clipPath id="clip0_434_5621">
<rect width="54" height="54" rx="27" fill="white"/>
</clipPath>
</defs>
</svg>
