<svg width="54" height="54" viewBox="0 0 54 54" fill="none" xmlns="http://www.w3.org/2000/svg">
<rect width="54" height="54" rx="27" fill="#EA3035"/>
<path d="M27.0024 42.2677L31.2925 18.1398C35.3817 18.1398 36.6716 18.5882 36.8578 20.4185C36.8578 20.4185 39.601 19.3957 40.9845 17.3184C35.5855 14.8166 30.1607 14.7037 30.1607 14.7037L26.9952 18.5592L27.0024 18.5587L23.8369 14.7031C23.8369 14.7031 18.412 14.8161 13.0137 17.3179C14.396 19.3952 17.1403 20.418 17.1403 20.418C17.3276 18.5876 18.6159 18.1392 22.6777 18.1363L27.0024 42.2677Z" fill="white"/>
<path d="M27.0009 13.5899C31.3653 13.5565 36.3608 14.2651 41.4747 16.4939C42.1582 15.2637 42.3339 14.72 42.3339 14.72C36.7436 12.5083 31.5085 11.7514 27.0003 11.7324C22.4924 11.7514 17.2575 12.5084 11.668 14.72C11.668 14.72 11.9173 15.3897 12.5266 16.4939C17.6395 14.2651 22.6358 13.5565 27.0003 13.5899H27.0009Z" fill="white"/>
</svg>
