<svg width="87" height="87" viewBox="0 0 87 87" fill="none" xmlns="http://www.w3.org/2000/svg">
<rect width="87" height="87" rx="43.5" fill="#EA3035"/>
<mask id="mask0_105_988" style="mask-type:luminance" maskUnits="userSpaceOnUse" x="0" y="0" width="87" height="87">
<rect width="87" height="87" rx="43.5" fill="white"/>
</mask>
<g mask="url(#mask0_105_988)">
<path d="M50.3575 29.2825C56.8915 29.2825 58.9525 30.002 59.2501 32.939C59.2501 32.939 63.6333 31.2977 65.8441 27.9642C57.2171 23.9496 48.549 23.7685 48.549 23.7685L43.491 29.9554L43.5024 29.9547L38.4445 23.7676C38.4445 23.7676 29.7762 23.9488 21.1504 27.9635C23.3592 31.2969 27.7442 32.9383 27.7442 32.9383C28.0435 30.001 30.102 29.2815 36.5922 29.2768L43.5024 68.0003L50.3575 29.2825Z" fill="white"/>
<path d="M66.6271 26.6408C67.7192 24.6666 68 23.7941 68 23.7941C59.0676 20.2451 50.7024 19.0305 43.499 19C36.296 19.0305 27.9313 20.2453 19 23.7941C19 23.7941 19.3984 24.8688 20.3719 26.6408C28.5417 23.0641 36.5252 21.9271 43.499 21.9807H43.5C50.4737 21.9271 58.4558 23.0641 66.6271 26.6408Z" fill="white"/>
</g>
</svg>
