<svg width="230" height="72" viewBox="0 0 230 72" fill="none" xmlns="http://www.w3.org/2000/svg">
<path d="M23.1955 59.3193L29.6851 22.8217C35.8708 22.8217 37.8219 23.5 38.1036 26.2686C38.1036 26.2686 42.2531 24.7214 44.346 21.579C36.179 17.7946 27.973 17.624 27.973 17.624L23.1847 23.4561L23.1955 23.4553L18.4072 17.623C18.4072 17.623 10.2011 17.7939 2.03516 21.5783C4.1262 24.7206 8.27739 26.2679 8.27739 26.2679C8.56074 23.4991 10.5095 22.8208 16.6537 22.8164L23.1955 59.3193Z" fill="white"/>
<path d="M23.1938 15.9387C29.7957 15.8882 37.3522 16.96 45.0879 20.3315C46.1218 18.4706 46.3876 17.6481 46.3876 17.6481C37.9314 14.3026 30.0122 13.1576 23.1929 13.1289C16.3739 13.1576 8.45511 14.3028 0 17.6481C0 17.6481 0.377197 18.6612 1.29879 20.3315C9.03298 16.96 16.5908 15.8882 23.1929 15.9387H23.1938Z" fill="white"/>
<path d="M58.6836 25.1094C59.1828 27.0564 60.8685 29.0464 63.1812 29.545H70.1711L70.5276 29.6857V47.3239H74.8924V29.6857L75.289 29.545H82.285C84.6235 28.9425 86.2729 27.0564 86.7635 25.1094V25.0664H58.6836V25.1094Z" fill="white"/>
<path d="M101.884 47.3732H118.489C120.799 46.914 122.516 44.8785 122.998 42.9082H97.375C97.8533 44.8791 99.5955 46.914 101.884 47.3732Z" fill="white"/>
<path d="M101.884 38.3257H118.489C120.799 37.8702 122.516 35.8341 122.998 33.8613H97.375C97.8533 35.8347 99.5955 37.8702 101.884 38.3257Z" fill="white"/>
<path d="M101.884 29.5209H118.489C120.799 29.0605 122.516 27.0262 122.998 25.0547H97.375C97.8533 27.0262 99.5955 29.0605 101.884 29.5209Z" fill="white"/>
<path d="M139.755 29.4787H155.096C157.409 28.8068 159.351 27.0449 159.824 25.0918H135.455V38.2569H155.401V42.8769L139.755 42.8892C137.304 43.5728 135.225 45.2191 134.188 47.3935L135.455 47.3702H159.686V33.8798H139.755V29.4787Z" fill="white"/>
<path d="M191.961 47.376C194.139 46.4526 195.31 44.8555 195.759 42.9866H176.384L176.396 25.0859L172.053 25.0982V47.376H191.961Z" fill="white"/>
<path d="M208.883 29.5386H225.494C227.801 29.08 229.517 27.0439 230.001 25.0742H204.377C204.856 27.0445 206.597 29.08 208.883 29.5386Z" fill="white"/>
<path d="M205.045 33.8965V47.3672H209.365V38.3984H225.087V47.3672H229.404V33.9198L205.045 33.8965Z" fill="white"/>
</svg>
