<svg width="170" height="170" viewBox="0 0 170 170" fill="none" xmlns="http://www.w3.org/2000/svg">
<g clip-path="url(#clip0_236_2415)">
<path d="M38.9082 30.9824L34.3723 51.5962L130.305 128.956L134.841 108.342L38.9082 30.9824Z" fill="#4073C1"/>
<path d="M163.088 86.2473L158.551 106.871C156.232 117.412 145.595 125.088 130.258 128.996L134.795 108.372L156.247 91.5983L163.088 86.2473Z" fill="#4073C1"/>
<path d="M95.2562 31.5157C74.2154 26.9412 54.2132 27.0653 38.9045 30.9741L86.8641 69.6583L134.824 108.343C150.133 104.434 160.762 96.7625 163.08 86.2284C167.733 65.1641 137.356 40.6686 95.2562 31.5157Z" fill="#3C7EE2"/>
<path d="M22.3322 93.1581L17.7948 113.782C5.49457 103.885 -0.924991 92.4813 1.39416 81.9402L5.93164 61.3164L9.90155 69.018L22.3322 93.1581Z" fill="#E8E8E8"/>
<path d="M82.1413 77.9072L77.6047 98.5235L17.7638 113.781L22.3004 93.1648L82.1413 77.9072Z" fill="#CCCCCC"/>
<path d="M34.1712 39.2126C18.8603 43.1227 8.22903 50.7956 5.91065 61.3317C3.59227 71.8678 10.0303 83.2514 22.3011 93.1573L82.1361 77.902L34.1712 39.2126Z" fill="#F0F0F0"/>
<path d="M127.21 125.19L122.678 145.794C107.372 149.701 87.3919 149.827 66.3362 145.248C45.2806 140.669 27.1776 132.261 14.9094 122.358L19.4414 101.754L127.21 125.19Z" fill="#4073C1"/>
<path d="M19.438 101.722C31.7066 111.625 49.8287 120.038 70.8671 124.613C91.9055 129.187 111.905 129.064 127.212 125.157L79.2561 86.4774L19.438 101.722Z" fill="#3C7EE2"/>
</g>
<defs>
<clipPath id="clip0_236_2415">
<rect width="170" height="170" fill="white"/>
</clipPath>
</defs>
</svg>
