<svg width="170" height="170" viewBox="0 0 170 170" fill="none" xmlns="http://www.w3.org/2000/svg">
<g clip-path="url(#clip0_236_2429)">
<path d="M126.462 150.824C133.924 133.378 128.068 105.807 110.042 81.5832C91.9886 57.3215 67.2071 43.7208 48.239 45.7031L45.7166 42.3134L34.1632 50.8063C15.2472 64.7114 18.5387 101.003 41.5238 131.892C64.509 162.781 98.4586 176.536 117.375 162.631L128.928 154.138L126.462 150.824Z" fill="#F0AB17"/>
<path d="M53.1464 123.29C76.1249 154.169 110.085 167.932 128.997 154.029C147.91 140.127 144.614 103.823 121.636 72.9437C98.6571 42.0641 64.6974 28.3015 45.7847 42.2042C26.8719 56.1068 30.1678 92.4099 53.1464 123.29Z" fill="#FCCD6A"/>
<path d="M126.263 156.055C107.347 169.959 73.3975 156.204 50.412 125.315C27.4265 94.426 24.1346 58.1343 43.0503 44.2295C61.966 30.3248 95.9158 44.0802 118.901 74.9691C141.887 105.858 145.179 142.15 126.263 156.055Z" fill="#FFC343"/>
<path d="M63.1991 115.891C81.5393 140.54 107.932 152.049 122.15 141.597C136.367 131.145 133.025 102.69 114.685 78.0411C96.3443 53.3921 69.9512 41.8832 55.7339 52.3353C41.5165 62.7874 44.8588 91.2424 63.1991 115.891Z" fill="#FCCD6A"/>
<path d="M114.719 77.956C96.4292 53.3462 70.0679 41.8556 55.9126 52.2739C54.6326 53.2159 53.5599 54.3585 52.5813 55.5495C67.3512 49.5629 90.6147 61.0385 107.265 83.4422C123.916 105.846 128.158 131.38 118.053 143.642C119.521 143.032 120.933 142.346 122.176 141.432C136.369 130.986 133.038 102.604 114.719 77.956Z" fill="#FFBE2E"/>
<path d="M117.2 142.982L115.835 144.516L118.501 144.732C120.262 143.966 121.646 143.242 122.851 142.355C137.502 131.573 134.257 102.36 115.622 77.2903C96.9592 52.1831 69.8636 40.5788 55.2128 51.36C54.0076 52.2469 52.8684 53.3794 51.6823 54.8407L50.6287 57.4993L52.9548 56.5526C67.3727 50.7096 90.3522 62.5769 106.357 84.1083C122.39 105.678 127.037 130.977 117.2 142.982Z" fill="#F7B52B"/>
<path d="M91.1658 115.468L84.8589 99.4975C79.0082 97.2029 74.2466 94.4177 70.6406 91.1363C67.0345 87.8549 64.3913 84.16 62.7774 80.046C61.1271 75.9019 61.771 73.2905 63.4434 70.9242C65.1158 68.5579 67.6202 66.8186 72.103 67.1368L72.4123 64.1884L76.4772 64.3428L77.9555 68.103C82.457 69.283 86.3968 71.2079 89.8411 73.872C93.2854 76.5362 95.0731 79.7057 97.2713 83.6375L88.5441 83.3793C86.7629 80.2757 84.2937 77.994 81.2992 76.4872L87.1993 91.3963C94.3271 94.081 99.6328 96.9531 102.977 99.9577C106.388 102.957 108.885 106.531 110.499 110.645C112.328 115.239 112.356 118.89 110.644 121.525C108.901 124.196 105.578 125.44 100.577 125.298L102.569 132.203L97.5091 131.469L94.7442 124.53C89.8612 123.216 85.424 121.001 81.4197 117.753C77.4154 114.506 75.0003 111.422 72.2131 106.279L81.4058 105.833C82.6541 107.953 84.1117 109.822 85.918 111.495C87.7009 113.271 89.438 114.585 91.1658 115.468ZM75.3738 75.4608C73.993 75.7104 73.0563 76.3874 72.5936 77.4559C72.1309 78.5244 72.1889 79.7814 72.7743 81.2926C73.31 82.642 74.2441 83.9577 75.5465 85.2755C76.8788 86.5575 78.5663 87.7099 80.5727 88.7024L75.3738 75.4608ZM97.2398 116.98C99.1115 116.955 100.423 116.346 101.138 115.123C101.853 113.9 101.835 112.374 101.078 110.479C100.407 108.776 99.2838 107.244 97.7692 105.811C96.2247 104.414 94.0958 103.199 91.4126 102.131L97.2398 116.98Z" fill="#F8F7F7"/>
<path d="M133.57 124.737C144.424 109.174 144.299 80.9875 131.579 53.6036C118.838 26.1766 97.3417 7.81889 78.3669 5.90113L76.5868 2.06909L63.5472 8.03409C42.1981 17.8003 38.0378 54.0028 54.2586 88.9217C70.4794 123.841 100.921 144.214 122.27 134.448L135.31 128.483L133.57 124.737Z" fill="#F0AB17"/>
<path d="M67.3852 82.8664C83.6014 117.775 114.051 138.158 135.397 128.394C156.742 118.629 160.9 82.4146 144.684 47.5062C128.468 12.5977 98.0183 -7.78553 76.6728 1.97892C55.3272 11.7434 51.1691 47.9579 67.3852 82.8664Z" fill="#FCCD6A"/>
<path d="M132.309 129.817C110.96 139.583 80.5184 119.209 64.2973 84.2902C48.0762 49.3711 52.236 13.1687 73.5849 3.40274C94.9337 -6.36321 125.375 14.011 141.596 48.93C157.817 83.8491 153.658 120.051 132.309 129.817Z" fill="#FFC343"/>
<path d="M78.7376 77.6691C91.6799 105.534 115.18 122.171 131.226 114.83C147.272 107.489 149.789 78.9486 136.846 51.0841C123.904 23.2195 100.404 6.58213 84.3577 13.9234C68.3114 21.2647 65.7952 49.8046 78.7376 77.6691Z" fill="#FCCD6A"/>
<path d="M136.895 51.0099C123.994 23.1939 100.521 6.5809 84.5428 13.9017C83.0979 14.5636 81.8152 15.4641 80.6148 16.4311C96.2937 13.5743 116.736 29.5426 128.481 54.8649C140.226 80.1873 139.185 106.05 126.796 116.001C128.358 115.702 129.88 115.318 131.283 114.675C147.304 107.335 149.817 78.8688 136.895 51.0099Z" fill="#FFBE2E"/>
<path d="M126.095 115.179L124.446 116.403L127.012 117.157C128.892 116.765 130.395 116.337 131.755 115.714C148.293 108.138 151.058 78.875 137.913 50.5392C124.748 22.1603 100.58 5.28655 84.0421 12.8619C82.6817 13.4851 81.336 14.3622 79.8775 15.5517L78.3051 17.9403L80.7751 17.4866C96.0801 14.6988 116.165 30.9928 127.455 55.3298C138.765 79.7098 138.168 105.425 126.095 115.179Z" fill="#F7B52B"/>
<path d="M106.2 82.9468L103.274 66.0272C98.0126 62.5904 93.9172 58.8947 91.0541 54.9484C88.1909 51.002 86.3547 46.8466 85.6115 42.4903C84.8387 38.0971 86.0004 35.6713 88.1192 33.6947C90.238 31.7181 93.0439 30.5247 97.3682 31.7482L98.2708 28.9244L102.219 29.9024L102.902 33.8847C107.069 35.9559 110.535 38.642 113.365 41.9511C116.196 45.2602 117.301 48.7271 118.653 53.0239L110.161 50.9957C109.049 47.5946 107.095 44.8583 104.47 42.7739L107.214 58.5715C113.646 62.6501 118.257 66.5414 120.92 70.1636C123.649 73.7938 125.367 77.8014 126.11 82.1578C126.966 87.0277 126.252 90.6075 124.039 92.8393C121.789 95.1001 118.282 95.6421 113.415 94.4861L113.96 101.652L109.156 99.9033L107.86 92.547C103.347 90.2673 99.453 87.1961 96.1931 83.2016C92.9332 79.2072 91.1959 75.6972 89.5133 70.0939L98.6044 71.5279C99.3954 73.8569 100.442 75.9834 101.87 77.9895C103.255 80.0904 104.688 81.7305 106.2 82.9468ZM98.8772 40.5635C97.4745 40.527 96.4197 40.9992 95.7493 41.9513C95.0789 42.9034 94.88 44.1459 95.1457 45.7446C95.3957 47.1747 96.0426 48.6529 97.0497 50.2081C98.0933 51.7343 99.5112 53.2059 101.274 54.5859L98.8772 40.5635ZM111.84 85.6628C113.677 86.0186 115.085 85.6891 116.034 84.6375C116.983 83.5858 117.276 82.088 116.92 80.0784C116.609 78.2743 115.822 76.5457 114.63 74.8349C113.402 73.153 111.565 71.5307 109.155 69.939L111.84 85.6628Z" fill="#F8F7F7"/>
</g>
<defs>
<clipPath id="clip0_236_2429">
<rect width="170" height="170" fill="white"/>
</clipPath>
</defs>
</svg>
