<svg width="170" height="170" viewBox="0 0 170 170" fill="none" xmlns="http://www.w3.org/2000/svg">
<g clip-path="url(#clip0_236_2466)">
<path fill-rule="evenodd" clip-rule="evenodd" d="M120.155 48.7157C118.585 58.3455 112.366 66.7621 107.468 72.7553L85.9681 99.0606L98.8114 109.558L120.311 83.2524C127.486 74.4743 132.035 62.7067 133.95 50.9647C135.864 39.2228 135.288 26.6195 131.273 16.0172L115.761 21.8912C118.502 29.1299 121.725 39.0859 120.155 48.7157Z" fill="#D8D8D8"/>
<path d="M61.399 99.2557C54.6432 81.4147 58.9534 54.9773 71.0263 40.2061L92.5262 13.9007C97.1613 8.22961 102.267 5.10263 107.18 4.41182C108.794 4.18505 126.803 7.56896 128.351 7.86347L118.163 18.973L105.654 33.5419L91.61 53.209L84.4792 83.9965L93.6401 117.03C92.2528 116.905 74.7204 113.941 73.407 113.414C68.4933 111.444 64.2098 106.679 61.399 99.2557Z" fill="white"/>
<path fill-rule="evenodd" clip-rule="evenodd" d="M77.3448 101.855C84.1006 119.696 99.3643 122.184 111.437 107.413L132.937 81.1079C145.01 66.3366 149.32 39.8992 142.564 22.0582C135.809 4.21724 120.545 1.72868 108.472 16.4999L86.9721 42.8052C74.8992 57.5765 70.589 84.0139 77.3448 101.855ZM89.7751 87.4563C94.0816 98.829 102.831 98.7301 110.527 89.3142L124.232 72.5459C131.928 63.13 135.656 47.9629 131.349 36.5902C127.043 25.2175 118.24 25.4641 110.544 34.88L96.8389 51.6482C89.1431 61.0641 85.4686 76.0837 89.7751 87.4563Z" fill="#EFEFEF"/>
<path fill-rule="evenodd" clip-rule="evenodd" d="M79.0418 96.2632C69.9172 99.7184 62.9067 107.488 58.0084 113.481L36.5084 139.787L23.6651 129.289L45.1651 102.984C52.3396 94.206 62.9663 87.4055 74.0923 83.1924C85.2183 78.9793 97.6841 77.0354 108.873 78.8597L106.204 95.2309C98.5649 93.9854 88.1665 92.808 79.0418 96.2632Z" fill="#D8D8D8"/>
<path d="M41.2068 163.903C60.0355 166.972 85.0861 157.486 97.1589 142.715L118.659 116.41C123.294 110.739 125.342 105.113 125.041 100.16C124.942 98.5342 118.042 81.5587 117.445 80.0999L108.585 92.2952L96.7978 107.454L80.3193 125.131L51.5671 138.247L17.3716 135.844C17.7699 137.179 24.1641 153.77 24.9416 154.953C27.8505 159.376 33.373 162.625 41.2068 163.903Z" fill="white"/>
<path fill-rule="evenodd" clip-rule="evenodd" d="M35.4848 148.793C16.6562 145.723 11.1795 131.26 23.2523 116.489L44.7522 90.1838C56.8251 75.4126 81.8757 65.9267 100.704 68.9965C119.533 72.0663 125.01 86.5293 112.937 101.3L91.437 127.606C79.3641 142.377 54.3135 151.863 35.4848 148.793ZM47.1226 133.743C35.1203 131.787 33.4758 123.192 41.1716 113.776L54.8767 97.0081C62.5725 87.5922 76.6943 80.9205 88.6966 82.8773C100.699 84.8342 102.209 93.51 94.5135 102.926L80.8084 119.694C73.1126 129.11 59.1249 135.7 47.1226 133.743Z" fill="#EFEFEF"/>
<path d="M61.3976 99.2562C54.6418 81.4152 58.2701 61.5302 76.6551 51.0382L75.2139 72.535C74.0138 85.1647 77.851 97.7571 85.8904 107.571L93.6387 117.03C92.2515 116.905 74.719 113.941 73.4057 113.415C68.492 111.444 64.2084 106.679 61.3976 99.2562Z" fill="white"/>
<rect x="82.5176" y="118.354" width="25.8043" height="9.24399" transform="rotate(-53.4771 82.5176 118.354)" fill="#EFEFEF"/>
<path d="M93.3357 100.191C87.8042 92.2637 87.4487 79.5097 87.9623 74.1237C84.3222 73.1132 76.4998 67.3183 75.3333 76.5871C73.3231 92.5591 83.5274 104.685 88.2286 109.895L93.3357 100.191Z" fill="#EFEFEF"/>
</g>
<defs>
<clipPath id="clip0_236_2466">
<rect width="170" height="170" fill="white"/>
</clipPath>
</defs>
</svg>
