<svg width="54" height="16" viewBox="0 0 54 16" fill="none" xmlns="http://www.w3.org/2000/svg">
<path d="M52.5 15L49.7649 6.79473C49.5321 6.09617 48.5 6.26365 48.5 7V7M48.5 11V7M48.5 7L46.7917 9.27779C46.2101 10.0533 45.0103 9.92264 44.6092 9.0402V9.0402C44.0992 7.91831 42.4528 8.09943 42.1989 9.30535L41.8977 10.7361C41.572 12.2829 39.5283 12.6454 38.6906 11.305L37.7638 9.82211C37.0501 8.6802 35.3336 8.86594 34.8807 10.1341V10.1341C34.3881 11.5132 32.4598 11.5729 31.8829 10.2268L30.7108 7.49185C30.5715 7.16693 30.3716 6.87158 30.1216 6.62162L26.7684 3.2684C26.5965 3.09655 26.5 2.86346 26.5 2.62042V2.62042C26.5 2.24571 26.2719 1.90875 25.924 1.76958L25.2335 1.4934C24.4852 1.19408 23.6305 1.36951 23.0606 1.93941L22.3864 2.61359C21.2748 3.72521 19.5535 3.9479 18.1956 3.15578L17.4646 2.72937C15.8273 1.77426 13.7257 2.32731 12.7706 3.96463V3.96463C11.7996 5.62931 9.64855 6.16834 8.00722 5.15829L4.5 3L1 1" stroke="white" stroke-width="2"/>
</svg>
