<svg width="53" height="22" viewBox="0 0 53 22" fill="none" xmlns="http://www.w3.org/2000/svg">
<path d="M52 21L47.5446 16.5446C46.8508 15.8508 46.2447 15.0746 45.74 14.2333L45 13M46.5 7.5L45 13M45 13L44.2569 10.2753C44.0011 9.33733 42.7119 9.23374 42.3096 10.1188V10.1188C41.8946 11.0319 40.5546 10.8845 40.348 9.90305L39.2735 4.79928C39.1007 3.97843 38.5627 3.28135 37.8124 2.90621L37.4986 2.74932C36.5608 2.28039 35.4519 2.30449 34.5353 2.81371L33.5646 3.35301C32.4553 3.9693 31.0562 3.50141 30.5408 2.34176V2.34176C29.9969 1.11795 28.4821 0.678616 27.3678 1.42149L26.3003 2.13312C25.4838 2.67749 24.9785 3.58102 24.9422 4.56171L24.7177 10.6231C24.66 12.1789 22.5662 12.6324 21.87 11.24L21.5545 10.6091C21.0305 9.56093 19.4819 9.74518 19.2184 10.887V10.887C18.9626 11.9955 17.4794 12.2139 16.9149 11.2262L14.4111 6.84448C13.6214 5.46243 11.5941 5.57073 10.956 7.02905L10.7967 7.39323C10.1513 8.86856 8.03395 8.79507 7.49234 7.27854V7.27854C7.04183 6.01714 5.41141 5.68755 4.50633 6.67492L1 10.5" stroke="white" stroke-width="2"/>
</svg>
